<svg width="60" height="61" viewBox="0 0 60 61" fill="none" xmlns="http://www.w3.org/2000/svg">
<path d="M30.0683 0H29.9317C13.4009 0 0 13.4048 0 29.9405V30.0772C0 46.6129 13.4009 60.0177 29.9317 60.0177H30.0683C46.5991 60.0177 60 46.6129 60 30.0772V29.9405C60 13.4048 46.5991 0 30.0683 0Z" fill="url(#paint0_linear_2419_3377)"/>
<path d="M37.4924 16H22.5076C18.3678 16 15 19.3688 15 23.5098V37.2227C15 41.3638 18.3678 44.7326 22.5076 44.7326H37.4924C41.6322 44.7326 45 41.3638 45 37.2227V23.5098C45 19.3688 41.6322 16 37.4924 16ZM17.6485 23.5098C17.6485 20.8301 19.8286 18.6492 22.5076 18.6492H37.4924C40.1714 18.6492 42.3515 20.8301 42.3515 23.5098V37.2227C42.3515 39.9025 40.1714 42.0834 37.4924 42.0834H22.5076C19.8286 42.0834 17.6485 39.9025 17.6485 37.2227V23.5098Z" fill="white"/>
<path d="M30 37.35C33.8497 37.35 36.9833 34.2171 36.9833 30.3646C36.9833 26.5121 33.8514 23.3792 30 23.3792C26.1486 23.3792 23.0166 26.5121 23.0166 30.3646C23.0166 34.2171 26.1486 37.35 30 37.35ZM30 26.0301C32.3905 26.0301 34.3349 27.975 34.3349 30.3663C34.3349 32.7575 32.3905 34.7025 30 34.7025C27.6094 34.7025 25.6651 32.7575 25.6651 30.3663C25.6651 27.975 27.6094 26.0301 30 26.0301Z" fill="white"/>
<path d="M37.6299 24.5078C38.6665 24.5078 39.5114 23.6643 39.5114 22.6257C39.5114 21.587 38.6682 20.7435 37.6299 20.7435C36.5915 20.7435 35.7483 21.587 35.7483 22.6257C35.7483 23.6643 36.5915 24.5078 37.6299 24.5078Z" fill="white"/>
<defs>
<linearGradient id="paint0_linear_2419_3377" x1="8.76572" y1="51.2494" x2="51.2468" y2="8.78292" gradientUnits="userSpaceOnUse">
<stop stop-color="#FAAD4F"/>
<stop offset="0.35" stop-color="#DD2A7B"/>
<stop offset="0.62" stop-color="#9537B0"/>
<stop offset="1" stop-color="#515BD4"/>
</linearGradient>
</defs>
</svg>
