<svg width="60" height="60" viewBox="0 0 60 60" fill="none" xmlns="http://www.w3.org/2000/svg">
<mask id="mask0_2263_3608" style="mask-type:luminance" maskUnits="userSpaceOnUse" x="0" y="0" width="60" height="60">
<path d="M30 60C46.5685 60 60 46.5685 60 30C60 13.4315 46.5685 0 30 0C13.4315 0 0 13.4315 0 30C0 46.5685 13.4315 60 30 60Z" fill="white"/>
</mask>
<g mask="url(#mask0_2263_3608)">
<mask id="mask1_2263_3608" style="mask-type:luminance" maskUnits="userSpaceOnUse" x="-3" y="-3" width="66" height="66">
<path d="M62.2223 -2.22217H-2.22217V62.2223H62.2223V-2.22217Z" fill="white"/>
</mask>
<g mask="url(#mask1_2263_3608)">
<rect x="-2.42676" y="-2.39551" width="64.8533" height="64.64" fill="#E1E4EE"/>
</g>
</g>
<path d="M29.9894 17.7016C33.9925 17.7016 34.4651 17.7016 36.0451 17.7898C36.9966 17.7995 37.9393 17.9737 38.8314 18.3047C39.4769 18.5548 40.0631 18.9368 40.5526 19.4262C41.0421 19.9157 41.424 20.5019 41.6741 21.1474C42.0051 22.0396 42.1793 22.9822 42.189 23.9337C42.2631 25.5138 42.2772 25.9864 42.2772 29.9894C42.2772 33.9925 42.2772 34.4651 42.189 36.0451C42.1793 36.9966 42.0051 37.9393 41.6741 38.8314C41.424 39.4769 41.0421 40.0631 40.5526 40.5526C40.0631 41.0421 39.4769 41.424 38.8314 41.6741C37.9393 42.0051 36.9966 42.1793 36.0451 42.189C34.4651 42.2631 33.9925 42.2772 29.9894 42.2772C25.9864 42.2772 25.5138 42.2772 23.9337 42.189C22.9822 42.1793 22.0396 42.0051 21.1474 41.6741C20.5019 41.424 19.9157 41.0421 19.4262 40.5526C18.9368 40.0631 18.5548 39.4769 18.3047 38.8314C17.9737 37.9393 17.7995 36.9966 17.7898 36.0451C17.7157 34.4651 17.7016 33.9925 17.7016 29.9894C17.7016 25.9864 17.7016 25.5138 17.7898 23.9337C17.7995 22.9822 17.9737 22.0396 18.3047 21.1474C18.5548 20.5019 18.9368 19.9157 19.4262 19.4262C19.9157 18.9368 20.5019 18.5548 21.1474 18.3047C22.0396 17.9737 22.9822 17.7995 23.9337 17.7898C25.5138 17.7157 25.9864 17.7016 29.9894 17.7016ZM29.9894 15C25.9194 15 25.4044 15.0176 23.8103 15.0917C22.5657 15.1179 21.3347 15.3565 20.1705 15.7971C19.1754 16.1804 18.2714 16.7675 17.5164 17.5206C16.7615 18.2737 16.1722 19.1763 15.7865 20.1705C15.3459 21.3347 15.1073 22.5657 15.0811 23.8103C15.0176 25.4079 15 25.9335 15 29.9894C15 34.0454 15.0176 34.5744 15.0917 36.1686C15.1179 37.4132 15.3565 38.6441 15.7971 39.8084C16.1816 40.8045 16.7703 41.7091 17.5253 42.4641C18.2803 43.2192 19.1849 43.8078 20.181 44.1923C21.3453 44.633 22.5763 44.8715 23.8208 44.8977C25.4185 44.9718 25.937 44.9894 30 44.9894C34.063 44.9894 34.585 44.9894 36.1792 44.8977C37.4237 44.8715 38.6547 44.633 39.819 44.1923C40.8151 43.8078 41.7197 43.2192 42.4747 42.4641C43.2297 41.7091 43.8184 40.8045 44.2029 39.8084C44.6435 38.6441 44.8821 37.4132 44.9083 36.1686C44.9824 34.5709 45 34.0524 45 29.9894C45 25.9264 45 25.4044 44.9083 23.8103C44.8821 22.5657 44.6435 21.3347 44.2029 20.1705C43.8173 19.1733 43.2269 18.268 42.47 17.513C41.7131 16.7579 40.8064 16.1698 39.8084 15.7865C38.6441 15.3459 37.4132 15.1073 36.1686 15.0811C34.5709 15.0176 34.0454 15 29.9894 15Z" fill="#9399AA"/>
<path d="M29.9894 22.2937C28.4674 22.2937 26.9795 22.745 25.7139 23.5907C24.4484 24.4363 23.462 25.6382 22.8795 27.0444C22.297 28.4506 22.1446 29.998 22.4416 31.4908C22.7385 32.9836 23.4715 34.3549 24.5477 35.4312C25.624 36.5074 26.9953 37.2404 28.4881 37.5373C29.9809 37.8343 31.5283 37.6819 32.9345 37.0994C34.3407 36.5169 35.5426 35.5305 36.3882 34.265C37.2338 32.9994 37.6852 31.5115 37.6852 29.9894C37.6852 27.9484 36.8744 25.991 35.4312 24.5477C33.9879 23.1045 32.0305 22.2937 29.9894 22.2937ZM29.9894 34.9906C29.0012 34.9906 28.0351 34.6976 27.2133 34.1486C26.3915 33.5996 25.7509 32.8193 25.3726 31.9063C24.9942 30.9933 24.895 29.9886 25.0876 29.0193C25.2801 28.0499 25.7558 27.1594 26.4543 26.4603C27.1529 25.7613 28.0431 25.285 29.0123 25.0918C29.9815 24.8985 30.9863 24.997 31.8995 25.3747C32.8128 25.7525 33.5936 26.3925 34.1431 27.2139C34.6927 28.0353 34.9864 29.0012 34.9871 29.9894C34.9862 31.3146 34.4593 32.5852 33.5223 33.5223C32.5852 34.4593 31.3146 34.9862 29.9894 34.9871V34.9906Z" fill="#9399AA"/>
<path d="M37.9921 23.7857C38.9855 23.7857 39.7908 22.9804 39.7908 21.987C39.7908 20.9936 38.9855 20.1882 37.9921 20.1882C36.9987 20.1882 36.1934 20.9936 36.1934 21.987C36.1934 22.9804 36.9987 23.7857 37.9921 23.7857Z" fill="#9399AA"/>
</svg>
