<svg width="72" height="72" viewBox="0 0 72 72" fill="none" xmlns="http://www.w3.org/2000/svg">
<circle cx="36" cy="36" r="35.5" stroke="url(#paint0_linear_2437_1041)"/>
<path d="M36.0683 6H35.9317C19.4009 6 6 19.4048 6 35.9405V36.0772C6 52.6129 19.4009 66.0177 35.9317 66.0177H36.0683C52.5991 66.0177 66 52.6129 66 36.0772V35.9405C66 19.4048 52.5991 6 36.0683 6Z" fill="url(#paint1_linear_2437_1041)"/>
<path d="M43.4924 22H28.5076C24.3678 22 21 25.3688 21 29.5098V43.2227C21 47.3638 24.3678 50.7326 28.5076 50.7326H43.4924C47.6322 50.7326 51 47.3638 51 43.2227V29.5098C51 25.3688 47.6322 22 43.4924 22ZM23.6485 29.5098C23.6485 26.8301 25.8286 24.6492 28.5076 24.6492H43.4924C46.1714 24.6492 48.3515 26.8301 48.3515 29.5098V43.2227C48.3515 45.9025 46.1714 48.0834 43.4924 48.0834H28.5076C25.8286 48.0834 23.6485 45.9025 23.6485 43.2227V29.5098Z" fill="white"/>
<path d="M36 43.35C39.8497 43.35 42.9833 40.2171 42.9833 36.3646C42.9833 32.5121 39.8514 29.3792 36 29.3792C32.1486 29.3792 29.0166 32.5121 29.0166 36.3646C29.0166 40.2171 32.1486 43.35 36 43.35ZM36 32.0301C38.3905 32.0301 40.3349 33.975 40.3349 36.3663C40.3349 38.7575 38.3905 40.7025 36 40.7025C33.6094 40.7025 31.6651 38.7575 31.6651 36.3663C31.6651 33.975 33.6094 32.0301 36 32.0301Z" fill="white"/>
<path d="M43.6299 30.5078C44.6665 30.5078 45.5114 29.6643 45.5114 28.6257C45.5114 27.587 44.6682 26.7435 43.6299 26.7435C42.5915 26.7435 41.7483 27.587 41.7483 28.6257C41.7483 29.6643 42.5915 30.5078 43.6299 30.5078Z" fill="white"/>
<defs>
<linearGradient id="paint0_linear_2437_1041" x1="36" y1="0" x2="36" y2="72" gradientUnits="userSpaceOnUse">
<stop stop-color="#C9188D"/>
<stop offset="1" stop-color="#5154D4" stop-opacity="0"/>
</linearGradient>
<linearGradient id="paint1_linear_2437_1041" x1="14.7657" y1="57.2494" x2="57.2468" y2="14.7829" gradientUnits="userSpaceOnUse">
<stop stop-color="#FAAD4F"/>
<stop offset="0.35" stop-color="#DD2A7B"/>
<stop offset="0.62" stop-color="#9537B0"/>
<stop offset="1" stop-color="#515BD4"/>
</linearGradient>
</defs>
</svg>
