<svg width="72" height="72" viewBox="0 0 72 72" fill="none" xmlns="http://www.w3.org/2000/svg">
<path d="M36 66C52.5685 66 66 52.5685 66 36C66 19.4315 52.5685 6 36 6C19.4315 6 6 19.4315 6 36C6 52.5685 19.4315 66 36 66Z" fill="#4467AD"/>
<path d="M37.2523 32.1247C37.5851 31.7521 37.852 31.3704 38.1999 31.0488C38.6941 30.5651 39.2797 30.1851 39.9224 29.9312C40.5651 29.6773 41.2519 29.5546 41.9426 29.5702C42.7364 29.5614 43.5276 29.6626 44.2938 29.8708C46.0511 30.3787 47.0738 31.5928 47.5596 33.3118C47.8851 34.5997 48.0314 35.9266 47.9944 37.2547C47.9944 40.0556 47.9944 42.8595 47.9944 45.6694C47.9944 45.9339 47.9225 46 47.6646 46C46.2251 45.988 44.7846 45.988 43.3431 46C43.0912 46 43.0432 45.9218 43.0432 45.6995C43.0372 43.0027 43.0342 40.3231 43.0342 37.6604C43.049 36.9907 42.9713 36.3222 42.8033 35.6739C42.4584 34.4718 41.6037 33.8708 40.3532 33.9339C38.6438 34.024 37.7561 34.8715 37.5372 36.6116C37.4867 37.0274 37.4617 37.4459 37.4622 37.8648C37.4622 40.4553 37.4622 43.0488 37.4622 45.6424C37.4622 45.9008 37.3992 45.9789 37.1353 45.9759C35.6838 45.9639 34.2323 45.9639 32.7809 45.9759C32.5499 45.9759 32.481 45.9128 32.481 45.6754C32.481 40.5384 32.481 35.4044 32.481 30.2735C32.481 30.018 32.5649 29.9729 32.8048 29.9729C34.1814 29.9729 35.5609 29.9729 36.9374 29.9729C37.1923 29.9729 37.2583 30.0511 37.2373 30.2915C37.2433 30.8986 37.2523 31.5116 37.2523 32.1247Z" fill="#FEFEFE"/>
<path d="M29.3588 37.991C29.3588 40.5334 29.3588 43.0728 29.3588 45.6123C29.3588 45.8948 29.2899 45.9789 28.999 45.9759C27.5595 45.9759 26.12 45.9759 24.6805 45.9759C24.4496 45.9759 24.3806 45.9188 24.3806 45.6754C24.3806 40.5324 24.3806 35.3904 24.3806 30.2494C24.3806 30.036 24.4316 29.9489 24.6565 29.9489C26.117 29.9489 27.5805 29.9489 29.041 29.9489C29.3199 29.9489 29.3588 30.0541 29.3588 30.2945C29.3558 32.87 29.3588 35.4305 29.3588 37.991Z" fill="#FEFEFE"/>
<path d="M29.7579 24.867C29.7615 25.4386 29.5955 25.9984 29.2811 26.4754C28.9666 26.9523 28.5179 27.3249 27.9918 27.5459C27.4657 27.7668 26.886 27.8262 26.3262 27.7164C25.7663 27.6066 25.2517 27.3327 24.8475 26.9293C24.4433 26.526 24.1678 26.0114 24.0559 25.4509C23.944 24.8903 24.0008 24.3091 24.2191 23.781C24.4374 23.2529 24.8073 22.8017 25.282 22.4846C25.7566 22.1675 26.3145 21.9988 26.8849 22C27.6438 22.0031 28.371 22.3058 28.9087 22.8425C29.4465 23.3791 29.7516 24.1065 29.7579 24.867Z" fill="#FEFEFE"/>
<circle cx="36" cy="36" r="35.5" stroke="url(#paint0_linear_2140_3043)"/>
<defs>
<linearGradient id="paint0_linear_2140_3043" x1="36" y1="0" x2="36" y2="72" gradientUnits="userSpaceOnUse">
<stop stop-color="#4467AD"/>
<stop offset="1" stop-color="#4467AD" stop-opacity="0"/>
</linearGradient>
</defs>
</svg>
