<svg width="60" height="60" viewBox="0 0 60 60" fill="none" xmlns="http://www.w3.org/2000/svg">
<circle cx="30" cy="30" r="30" fill="#E1E4EE"/>
<path d="M27.5941 34.8407C26.8052 38.9716 25.8437 42.9315 22.9922 45C22.1133 38.7571 24.2837 34.0697 25.2932 29.0928C23.5727 26.1979 25.5002 20.375 29.1256 21.8105C33.588 23.5745 25.2617 32.5683 30.8506 33.6932C36.6869 34.8647 39.0689 23.5685 35.4495 19.895C30.2221 14.5882 20.2308 19.7705 21.4608 27.3679C21.7593 29.2248 23.6777 29.7873 22.2273 32.3508C18.8808 31.6098 17.8818 28.9698 18.0108 25.4509C18.2178 19.691 23.1842 15.6606 28.1671 15.1011C34.4685 14.3947 40.3829 17.4156 41.2004 23.342C42.1198 30.0333 38.3564 37.2812 31.6171 36.7592C29.7901 36.6167 29.0251 35.7107 27.5941 34.8407Z" fill="#9399AA"/>
</svg>
