<svg width="60" height="60" viewBox="0 0 60 60" fill="none" xmlns="http://www.w3.org/2000/svg">
<path d="M30 60C46.5685 60 60 46.5685 60 30C60 13.4315 46.5685 0 30 0C13.4315 0 0 13.4315 0 30C0 46.5685 13.4315 60 30 60Z" fill="#010201"/>
<path d="M24.217 37.8654L24.2972 37.936C24.5344 38.1091 24.7107 38.3495 24.9383 38.5322C25.6271 39.097 26.4788 39.4262 27.3684 39.4715C28.4174 39.5273 29.4482 39.1804 30.2502 38.5018C31.0522 37.8231 31.5648 36.864 31.6834 35.8201C31.6834 35.7143 31.6834 35.6085 31.6834 35.4995V16.085C31.6834 15.6458 31.6834 15.6458 32.1194 15.6458H35.0688C35.1624 15.6295 35.2588 15.643 35.3445 15.6843L35.3605 15.7003C35.4018 15.7493 35.4275 15.8096 35.4342 15.8734C35.7801 17.5669 36.7579 19.0651 38.1688 20.0634C38.2586 20.1308 38.3323 20.2141 38.4189 20.2814L38.608 20.4417C38.822 20.5941 39.0216 20.7658 39.2043 20.9547C39.9889 21.6113 40.9116 22.0825 41.9036 22.3332C41.9902 22.3556 42.0927 22.3556 42.1569 22.439C42.2012 22.5024 42.2185 22.5808 42.2049 22.657C42.2049 23.7982 42.2049 24.9395 42.2049 26.0808C42.2049 26.3405 42.1697 26.3533 41.9068 26.3533C41.0753 26.349 40.247 26.2489 39.4383 26.0551C38.0541 25.7371 36.7388 25.1712 35.5561 24.3849C35.4919 24.3432 35.4278 24.2567 35.3605 24.2855C35.2932 24.3144 35.322 24.433 35.322 24.5099C35.322 27.7158 35.322 30.9216 35.322 34.1499C35.3223 36.4034 34.4946 38.5784 32.9963 40.2617C31.498 41.9449 29.4336 43.0191 27.1952 43.2801C25.3982 43.5001 23.5765 43.1786 21.9633 42.3568C21.6946 42.2255 21.4391 42.0688 21.2003 41.8887L20.9759 41.69C20.4338 41.2042 19.9813 40.6269 19.6391 39.9845C19.0734 39.03 18.6938 37.977 18.5203 36.8812C18.4093 36.2529 18.3685 35.6143 18.3984 34.977C18.488 33.12 19.1387 31.3338 20.2645 29.8542C21.3903 28.3747 22.9384 27.2714 24.7043 26.6899C25.3869 26.4555 26.0971 26.3111 26.8169 26.2603C26.9496 26.2401 27.0835 26.2294 27.2177 26.2282C27.2826 26.2209 27.348 26.2356 27.4036 26.2699H27.4229C27.4514 26.3343 27.4614 26.4054 27.4517 26.4751V29.963C27.4517 30.0047 27.4517 30.0432 27.4517 30.0849C27.4517 30.2003 27.394 30.242 27.2786 30.2099C26.9643 30.1253 26.6419 30.0748 26.3168 30.0592C25.8133 30.0326 25.3096 30.1079 24.8357 30.2804C23.2328 30.8671 22.2711 32.0084 22.0755 33.6882C21.88 35.3681 22.5275 36.6664 23.9061 37.6218C23.9926 37.7019 24.1112 37.7757 24.217 37.8654Z" fill="white"/>
<path d="M21.2195 41.9016C21.2804 41.8855 21.3157 41.9336 21.3605 41.9625C22.3835 42.5889 23.5196 43.0082 24.7042 43.1967C25.3058 43.296 25.9161 43.3315 26.5251 43.3025C28.4801 43.219 30.3569 42.5112 31.8801 41.2828C33.4033 40.0544 34.4927 38.3702 34.9885 36.4773C35.151 35.8781 35.2499 35.2635 35.2835 34.6436C35.3027 34.2877 35.2995 33.9319 35.2995 33.5728C35.2995 30.5102 35.2995 27.4486 35.2995 24.3881V24.1797C35.3764 24.1573 35.4149 24.2182 35.4566 24.247C36.5381 24.9912 37.7366 25.5493 39.0022 25.8981C39.701 26.0901 40.4155 26.2188 41.1373 26.2828C41.4579 26.3084 41.7464 26.3052 42.0478 26.3276C42.1824 26.3276 42.1824 26.3276 42.1856 26.193V22.6441C42.1856 22.58 42.1856 22.5159 42.1856 22.4518C42.4581 22.4838 42.7274 22.5415 43.0031 22.564C43.173 22.564 43.3397 22.5896 43.5096 22.5864C43.593 22.5864 43.6283 22.6121 43.6218 22.6954C43.6186 22.7306 43.6186 22.766 43.6218 22.8012V27.2894C43.6235 27.3182 43.6235 27.3471 43.6218 27.3759C43.6218 27.5074 43.6218 27.5106 43.4808 27.5106C43.0122 27.509 42.5442 27.4769 42.0798 27.4144C41.1335 27.2921 40.2056 27.0552 39.3164 26.7091C38.4652 26.3757 37.6552 25.9455 36.9024 25.4268L36.7357 25.3178V25.5294C36.7357 28.8036 36.7357 32.0757 36.7357 35.3456C36.7399 36.6023 36.4845 37.8462 35.9855 38.9996C35.4864 40.1529 34.7545 41.1906 33.8356 42.0478C32.9167 42.905 31.8306 43.5632 30.6455 43.981C29.4603 44.3988 28.2016 44.5673 26.9483 44.4759C24.8498 44.3375 22.865 43.4726 21.3349 42.0298C21.2964 41.9913 21.2612 41.9465 21.2195 41.9016Z" fill="#CB1C54"/>
<path d="M35.3511 15.6874C35.287 15.6874 35.2228 15.6874 35.1587 15.6874H31.9946C31.7509 15.6874 31.7509 15.6874 31.7509 15.9247V35.2527C31.7644 35.6972 31.7059 36.1411 31.5778 36.567C31.3806 37.2767 30.9918 37.9184 30.4541 38.4217C29.9163 38.925 29.2502 39.2705 28.5291 39.4202C26.8716 39.7985 25.4643 39.2952 24.3422 38.0097C24.3254 37.9863 24.3104 37.9616 24.2974 37.9359C24.6136 38.0733 24.942 38.1807 25.2783 38.2565C25.8309 38.3707 26.4007 38.372 26.9538 38.2605C27.5068 38.1489 28.0316 37.9267 28.4966 37.6072C28.9616 37.2877 29.3573 36.8775 29.6598 36.4013C29.9623 35.9251 30.1654 35.3926 30.257 34.8359C30.2966 34.5997 30.3138 34.3604 30.3083 34.121C30.3083 27.6687 30.3083 21.2164 30.3083 14.7642C30.3083 14.466 30.2666 14.5013 30.5648 14.5013H35.1331C35.287 14.5013 35.287 14.5013 35.287 14.6584C35.273 15.0027 35.2944 15.3475 35.3511 15.6874Z" fill="#6ABAC5"/>
<path d="M27.3877 26.2699C26.4819 26.2931 25.5844 26.4487 24.7236 26.7315C23.3033 27.201 22.0198 28.0117 20.9858 29.0927C19.9518 30.1737 19.1988 31.4918 18.7928 32.9316C18.6221 33.5223 18.5146 34.1295 18.4723 34.7429C18.3814 36.002 18.5543 37.2663 18.9799 38.4548C19.4055 39.6433 20.0744 40.7299 20.944 41.6451C20.9596 41.663 20.9736 41.6823 20.9856 41.7028C20.8142 41.6171 20.6546 41.5093 20.5112 41.3822C19.054 40.2497 17.977 38.6996 17.424 36.9389C17.2253 36.3139 17.0963 35.6688 17.0393 35.0154C16.9944 34.5433 16.988 34.0684 17.02 33.5952C17.1403 31.825 17.7733 30.1282 18.8419 28.7118C19.9104 27.2954 21.3682 26.2208 23.0374 25.6191C24.3925 25.1368 25.841 24.9755 27.2691 25.1479C27.3492 25.1479 27.3973 25.1735 27.3941 25.2697C27.3877 25.6031 27.3877 25.9365 27.3877 26.2699Z" fill="#6ABAC5"/>
<path d="M24.217 37.8654C23.8594 37.6964 23.5339 37.4664 23.2552 37.1858C22.5412 36.5199 22.0925 35.618 21.9921 34.6468C21.9144 33.9682 22.0048 33.2809 22.2551 32.6454C22.5054 32.0098 22.9081 31.4456 23.4278 31.0023C23.9474 30.559 24.568 30.2502 25.235 30.103C25.9021 29.9559 26.595 29.975 27.2529 30.1586C27.295 30.1777 27.3417 30.1843 27.3875 30.1778C27.4019 30.1145 27.4019 30.0488 27.3875 29.9855V26.4591C27.3875 26.395 27.3875 26.3308 27.3875 26.2667C27.8373 26.2452 28.288 26.2656 28.734 26.3276C28.8045 26.3276 28.8238 26.3661 28.8238 26.4302C28.8238 26.4943 28.8238 26.4975 28.8238 26.5328C28.8238 28.0844 28.8238 29.6361 28.8238 31.1877C28.8341 31.2471 28.8274 31.3082 28.8045 31.364C28.5994 31.3255 28.3974 31.2646 28.1922 31.2358C27.6239 31.1446 27.0429 31.1739 26.4867 31.322C25.9305 31.47 25.4117 31.7333 24.9639 32.0949C24.1467 32.7228 23.6026 33.6412 23.4444 34.6596C23.3496 35.1907 23.3611 35.7354 23.4783 36.262C23.5955 36.7887 23.8161 37.2868 24.1272 37.7276C24.1603 37.7714 24.1903 37.8175 24.217 37.8654Z" fill="#CB1C54"/>
<path d="M38.4286 20.2814C37.9787 20.0128 37.5678 19.6838 37.2072 19.3036C36.2464 18.3265 35.601 17.0835 35.3542 15.7355V15.7035C35.7742 15.6778 36.1974 15.7035 36.6173 15.7035C36.6911 15.7035 36.7231 15.7323 36.7167 15.8061C36.7151 15.836 36.7151 15.8659 36.7167 15.8958C36.714 17.0479 37.0267 18.1787 37.6208 19.1658C37.8284 19.5259 38.0688 19.866 38.3389 20.182C38.3806 20.2045 38.4222 20.2301 38.4286 20.2814Z" fill="#CB1C54"/>
<path d="M42.1665 22.4389C40.9873 22.1922 39.8938 21.6393 38.996 20.836C38.8557 20.7225 38.7288 20.5935 38.6177 20.4513C38.6584 20.4536 38.6975 20.4681 38.7299 20.493C39.4484 20.9078 40.2357 21.1902 41.0541 21.3265C41.3719 21.3807 41.6935 21.4086 42.0159 21.4099C42.1505 21.4099 42.1537 21.4099 42.1537 21.5445C42.1729 21.833 42.1697 22.1344 42.1665 22.4389Z" fill="#6ABAC5"/>
</svg>
