<svg width="60" height="60" viewBox="0 0 60 60" fill="none" xmlns="http://www.w3.org/2000/svg">
<path d="M30 60C46.5685 60 60 46.5685 60 30C60 13.4315 46.5685 0 30 0C13.4315 0 0 13.4315 0 30C0 46.5685 13.4315 60 30 60Z" fill="#E1E4EE"/>
<path fill-rule="evenodd" clip-rule="evenodd" d="M35.3477 15.6874H35.351C35.2944 15.3475 35.2729 15.0027 35.2869 14.6584C35.2869 14.5013 35.2869 14.5013 35.133 14.5013H30.5647C30.5327 14.5013 30.5046 14.5009 30.4799 14.5005C30.3907 14.4992 30.3466 14.4986 30.3253 14.5203C30.3045 14.5415 30.3053 14.5839 30.307 14.6676C30.3076 14.6951 30.3082 14.7271 30.3082 14.7642V34.121C30.3137 34.3604 30.2966 34.5997 30.2569 34.8359C30.1654 35.3926 29.9622 35.9251 29.6597 36.4013C29.3572 36.8775 28.9616 37.2877 28.4966 37.6072C28.0316 37.9267 27.5068 38.1489 26.9537 38.2605C26.4007 38.372 25.8308 38.3707 25.2783 38.2565C24.942 38.1807 24.6135 38.0733 24.2973 37.9359L24.2972 37.936L24.217 37.8654L24.2169 37.8653L24.2171 37.8654C24.1904 37.8175 24.1604 37.7714 24.1273 37.7276C23.8162 37.2868 23.5956 36.7886 23.4784 36.262C23.3612 35.7354 23.3497 35.1907 23.4445 34.6596C23.6027 33.6412 24.1468 32.7228 24.964 32.0949C25.4118 31.7333 25.9306 31.47 26.4868 31.322C27.043 31.1739 27.624 31.1446 28.1923 31.2358C28.3125 31.2527 28.4316 31.2806 28.5509 31.3085L28.551 31.3085L28.551 31.3085C28.6353 31.3283 28.7197 31.3481 28.8046 31.364C28.8275 31.3082 28.8342 31.2471 28.8239 31.1877V26.5328V26.4302C28.8239 26.3661 28.8046 26.3276 28.7341 26.3276C28.2914 26.2661 27.844 26.2455 27.3975 26.2663L27.3877 26.2608C27.3877 25.9304 27.3877 25.6 27.3941 25.2697C27.3973 25.1735 27.3492 25.1479 27.2691 25.1479C25.841 24.9755 24.3925 25.1368 23.0374 25.6191C21.3682 26.2208 19.9104 27.2954 18.8419 28.7118C17.7733 30.1282 17.1403 31.8251 17.02 33.5952C16.988 34.0684 16.9944 34.5433 17.0393 35.0154C17.0963 35.6688 17.2253 36.3139 17.424 36.9389C17.977 38.6996 19.054 40.2497 20.5112 41.3822C20.6546 41.5093 20.8142 41.6171 20.9856 41.7028L20.9801 41.6937L21.2003 41.8887L21.2243 41.9067C21.2401 41.9239 21.2551 41.9411 21.2697 41.9579C21.2916 41.9832 21.3128 42.0076 21.335 42.0298C22.8651 43.4726 24.8499 44.3375 26.9484 44.4759C28.2017 44.5673 29.4604 44.3988 30.6456 43.981C31.8307 43.5632 32.9168 42.905 33.8357 42.0478C34.7546 41.1906 35.4865 40.1529 35.9855 38.9996C36.4846 37.8463 36.74 36.6023 36.7358 35.3456V25.5294V25.3178L36.9025 25.4268C37.6553 25.9455 38.4653 26.3758 39.3165 26.7091C40.2057 27.0552 41.1336 27.2921 42.0799 27.4144C42.5443 27.4769 43.0123 27.509 43.4809 27.5106C43.6219 27.5106 43.6219 27.5074 43.6219 27.3759C43.6235 27.3471 43.6235 27.3182 43.6219 27.2894V22.8012C43.6187 22.766 43.6187 22.7306 43.6219 22.6954C43.6283 22.6121 43.5931 22.5864 43.5097 22.5864C43.4198 22.5881 43.3308 22.5817 43.2417 22.5754L43.2417 22.5754C43.1625 22.5697 43.0832 22.564 43.0032 22.564C42.843 22.551 42.685 22.526 42.5272 22.5011L42.5272 22.5011C42.4135 22.4831 42.2999 22.4652 42.1857 22.4518V22.4908C42.1779 22.4727 42.1683 22.4553 42.1569 22.439C42.1562 22.4381 42.1556 22.4373 42.1549 22.4365C42.1588 22.4373 42.1627 22.4381 42.1665 22.4389L42.1666 22.4375C42.1698 22.1334 42.1729 21.8325 42.1537 21.5445C42.1537 21.4098 42.1505 21.4098 42.0159 21.4098C41.6935 21.4085 41.3719 21.3807 41.0541 21.3265C40.2357 21.1901 39.4484 20.9078 38.7299 20.493C38.6986 20.4689 38.661 20.4545 38.6218 20.4516C38.6172 20.4483 38.6126 20.445 38.608 20.4417L38.4189 20.2814C38.4092 20.2739 38.3997 20.2662 38.3903 20.2583L38.4286 20.2814C38.4222 20.2301 38.3806 20.2045 38.3389 20.182C38.0688 19.866 37.8284 19.5259 37.6208 19.1658C37.0267 18.1787 36.714 17.0479 36.7167 15.8958C36.7151 15.8659 36.7151 15.836 36.7167 15.8061C36.7231 15.7323 36.6911 15.7035 36.6173 15.7035C36.4775 15.7035 36.3373 15.7006 36.1969 15.6978C35.9187 15.6921 35.64 15.6865 35.3627 15.703L35.3605 15.7003L35.3477 15.6874ZM42.1438 26.3224C42.1594 26.3122 42.1713 26.2987 42.1801 26.2807C42.1774 26.2943 42.1731 26.304 42.1661 26.3108C42.1605 26.3162 42.1533 26.3199 42.1438 26.3224Z" fill="#9399AA"/>
</svg>
