<svg width="60" height="60" viewBox="0 0 60 60" fill="none" xmlns="http://www.w3.org/2000/svg">
<path d="M30 60C46.5685 60 60 46.5685 60 30C60 13.4315 46.5685 0 30 0C13.4315 0 0 13.4315 0 30C0 46.5685 13.4315 60 30 60Z" fill="#DA0000"/>
<path d="M44.3606 23.2771C44.1898 22.638 43.8536 22.0552 43.3859 21.5875C42.9181 21.1197 42.3353 20.7835 41.6963 20.6128C39.3717 20 30 20 30 20C30 20 20.6283 20 18.2904 20.6261C17.6513 20.7969 17.0686 21.1331 16.6008 21.6008C16.1331 22.0686 15.7969 22.6513 15.6261 23.2904C15 25.6217 15 30.504 15 30.504C15 30.504 15 35.3797 15.6261 37.7176C15.7969 38.3567 16.1331 38.9394 16.6008 39.4072C17.0686 39.8749 17.6513 40.2111 18.2904 40.3819C20.6283 40.9813 30 40.9813 30 40.9813C30 40.9813 39.3717 40.9813 41.7096 40.3552C42.3487 40.1845 42.9314 39.8483 43.3992 39.3805C43.8669 38.9128 44.2031 38.33 44.3739 37.6909C45 35.3597 45 30.4774 45 30.4774C45 30.4774 44.9867 25.615 44.3606 23.2771ZM27.0027 34.9867V25.9947L34.7891 30.4907L27.0027 34.9867Z" fill="white"/>
</svg>
