<svg width="72" height="72" viewBox="0 0 72 72" fill="none" xmlns="http://www.w3.org/2000/svg">
<path d="M36 66C52.5685 66 66 52.5685 66 36C66 19.4315 52.5685 6 36 6C19.4315 6 6 19.4315 6 36C6 52.5685 19.4315 66 36 66Z" fill="#DA0000"/>
<path d="M50.3606 29.2771C50.1898 28.638 49.8536 28.0552 49.3859 27.5875C48.9181 27.1197 48.3353 26.7835 47.6963 26.6128C45.3717 26 36 26 36 26C36 26 26.6283 26 24.2904 26.6261C23.6513 26.7969 23.0686 27.1331 22.6008 27.6008C22.1331 28.0686 21.7969 28.6513 21.6261 29.2904C21 31.6217 21 36.504 21 36.504C21 36.504 21 41.3797 21.6261 43.7176C21.7969 44.3567 22.1331 44.9394 22.6008 45.4072C23.0686 45.8749 23.6513 46.2111 24.2904 46.3819C26.6283 46.9813 36 46.9813 36 46.9813C36 46.9813 45.3717 46.9813 47.7096 46.3552C48.3487 46.1845 48.9314 45.8483 49.3992 45.3805C49.8669 44.9128 50.2031 44.33 50.3739 43.6909C51 41.3597 51 36.4774 51 36.4774C51 36.4774 50.9867 31.615 50.3606 29.2771ZM33.0027 40.9867V31.9947L40.7891 36.4907L33.0027 40.9867Z" fill="white"/>
<circle cx="36" cy="36" r="35.5" stroke="url(#paint0_linear_2140_3044)"/>
<defs>
<linearGradient id="paint0_linear_2140_3044" x1="36" y1="0" x2="36" y2="72" gradientUnits="userSpaceOnUse">
<stop stop-color="#DA0000"/>
<stop offset="1" stop-color="#DA0000" stop-opacity="0"/>
</linearGradient>
</defs>
</svg>
