<svg xmlns="http://www.w3.org/2000/svg" width="16" height="17" viewBox="0 0 16 17" fill="none">
  <g clip-path="url(#clip0_761_940)">
    <path d="M4.64497 8.90292H2.0411C1.65052 8.90292 1.39014 9.16331 1.39014 9.55389V14.7616C1.39014 15.1522 1.65052 15.4126 2.0411 15.4126H4.64497C5.03556 15.4126 5.29594 15.1522 5.29594 14.7616V9.55389C5.29594 9.16331 5.03556 8.90292 4.64497 8.90292ZM15.0605 6.29905H12.4566C12.066 6.29905 11.8056 6.55944 11.8056 6.95002V14.7616C11.8056 15.1522 12.066 15.4126 12.4566 15.4126H15.0605C15.451 15.4126 15.7114 15.1522 15.7114 14.7616V6.95002C15.7114 6.55944 15.451 6.29905 15.0605 6.29905ZM9.85272 1.09131H7.24885C6.85826 1.09131 6.59788 1.3517 6.59788 1.74228V14.7616C6.59788 15.1522 6.85826 15.4126 7.24885 15.4126H9.85272C10.2433 15.4126 10.5037 15.1522 10.5037 14.7616V1.74228C10.5037 1.3517 10.2433 1.09131 9.85272 1.09131Z" fill="#FEFBFA"/>
  </g>
  <defs>
    <clipPath id="clip0_761_940">
      <rect width="15" height="16" fill="white" transform="translate(0.711426 0.251953)"/>
    </clipPath>
  </defs>
</svg>