<svg xmlns="http://www.w3.org/2000/svg" width="15" height="17" viewBox="0 0 15 17" fill="none">
  <g clip-path="url(#clip0_761_966)">
    <path d="M11.3978 8.03771C11.5615 7.99708 11.7173 7.88814 11.8779 7.88505C12.1254 7.87885 12.405 7.87634 12.6157 7.98141C12.9814 8.16387 13.0104 8.5617 12.6761 8.80376C12.4083 8.99571 12.0855 9.12245 11.773 9.24241C11.0776 9.51099 10.9851 9.71319 11.3367 10.3718C11.9195 11.463 12.7355 12.2751 13.9839 12.5758C14.1132 12.6063 14.3208 12.7489 14.3144 12.824C14.3003 12.9947 14.2165 13.2454 14.0872 13.3048C13.6673 13.5014 13.2225 13.6682 12.7707 13.7654C12.4888 13.8234 12.3829 13.9275 12.3235 14.193C12.1966 14.753 12.0853 14.8226 11.5426 14.7139C10.6794 14.5399 9.9205 14.6897 9.18502 15.2206C7.70092 16.2943 6.5949 16.2897 5.11389 15.2144C4.39176 14.6881 3.64371 14.5409 2.7933 14.7156C2.22307 14.8323 2.12516 14.7634 1.98894 14.1831C1.93263 13.9459 1.84401 13.8236 1.56751 13.7712C1.13444 13.6883 0.71346 13.5515 0.314435 13.3639C0.154608 13.2903 0.0278684 13.0365 -0.00347777 12.8494C-0.016055 12.7725 0.251162 12.5965 0.414665 12.551C1.75868 12.1837 2.57717 11.2642 3.12766 10.0454C3.25769 9.75711 3.14798 9.55278 2.9092 9.41888C2.69617 9.30143 2.45488 9.23487 2.22771 9.14006C2.08433 9.07968 1.93786 9.01951 1.80628 8.93805C1.53848 8.7728 1.31364 8.5675 1.46863 8.21205C1.59479 7.91988 2.01061 7.76489 2.33801 7.86976C2.52357 7.92858 2.70526 8.00521 2.89411 8.04681C3.14159 8.10002 3.2811 8.02959 3.27162 7.72638C3.24976 7.03792 3.21048 6.34405 3.2662 5.65869C3.38365 4.21057 4.23039 3.2549 5.53358 2.74659C7.41725 2.01499 9.66663 2.56722 10.6825 4.38975C11.0389 5.02886 11.0929 5.72042 11.1227 6.42609C11.0944 6.86862 11.0718 7.31037 11.0366 7.75057C11.0149 8.03771 11.1653 8.09557 11.3978 8.03771Z" fill="white"/>
  </g>
  <defs>
    <clipPath id="clip0_761_966">
      <rect width="15" height="16" fill="white" transform="translate(-0.00390625 0.0234375)"/>
    </clipPath>
  </defs>
</svg>