<svg xmlns="http://www.w3.org/2000/svg" width="14" height="14" viewBox="0 0 14 14" fill="none">
  <g clip-path="url(#clip0_761_948)">
    <path fill-rule="evenodd" clip-rule="evenodd" d="M10.3537 4.14502V6.17627H11.6537C11.9985 6.17627 12.3291 6.30467 12.5729 6.53323C12.8167 6.76179 12.9537 7.07179 12.9537 7.39502V12.27C12.9537 12.5933 12.8167 12.9032 12.5729 13.1318C12.3291 13.3604 11.9985 13.4888 11.6537 13.4888H2.98701C2.64223 13.4888 2.31157 13.3604 2.06777 13.1318C1.82398 12.9032 1.68701 12.5933 1.68701 12.27V7.39502C1.68701 7.07179 1.82398 6.76179 2.06777 6.53323C2.31157 6.30467 2.64223 6.17627 2.98701 6.17627H4.28701V4.14502C4.28701 3.39081 4.60659 2.66749 5.17545 2.13418C5.74432 1.60088 6.51586 1.30127 7.32034 1.30127C8.12484 1.30127 8.89638 1.60088 9.46524 2.13418C10.0341 2.66749 10.3537 3.39081 10.3537 4.14502ZM5.15368 4.14502C5.15368 3.6063 5.38195 3.08964 5.78828 2.70871C6.19461 2.32778 6.74571 2.11377 7.32034 2.11377C7.89498 2.11377 8.44608 2.32778 8.85241 2.70871C9.25874 3.08964 9.48701 3.6063 9.48701 4.14502V6.17627H5.15368V4.14502Z" fill="white"/>
  </g>
  <defs>
    <clipPath id="clip0_761_948">
      <rect width="13" height="13" fill="white" transform="translate(0.820312 0.89502)"/>
    </clipPath>
  </defs>
</svg>