<svg xmlns="http://www.w3.org/2000/svg" width="11" height="15" viewBox="0 0 11 15" fill="none">
  <path d="M9.474 5.47479H8.8111V4.14899C8.8111 2.31938 7.32619 0.834473 5.49658 0.834473C3.66697 0.834473 2.18207 2.31938 2.18207 4.14899V5.47479H1.51917C0.789972 5.47479 0.193359 6.0714 0.193359 6.8006V13.4296C0.193359 14.1588 0.789972 14.7554 1.51917 14.7554H9.474C10.2032 14.7554 10.7998 14.1588 10.7998 13.4296V6.8006C10.7998 6.0714 10.2032 5.47479 9.474 5.47479ZM5.49658 11.4409C4.76739 11.4409 4.17078 10.8443 4.17078 10.1151C4.17078 9.38592 4.76739 8.78931 5.49658 8.78931C6.22578 8.78931 6.82239 9.38592 6.82239 10.1151C6.82239 10.8443 6.22578 11.4409 5.49658 11.4409ZM7.55158 5.47479H3.44158V4.14899C3.44158 3.01542 4.36302 2.09399 5.49658 2.09399C6.63015 2.09399 7.55158 3.01542 7.55158 4.14899V5.47479Z" fill="white"/>
</svg>