<svg xmlns="http://www.w3.org/2000/svg" width="15" height="15" viewBox="0 0 15 15" fill="none">
  <path d="M13.9071 6.99801L11.071 9.47316L11.9205 13.1582C11.9655 13.3509 11.9527 13.5525 11.8837 13.7379C11.8146 13.9233 11.6925 14.0842 11.5325 14.2006C11.3726 14.3169 11.1818 14.3835 10.9842 14.3921C10.7866 14.4006 10.5908 14.3507 10.4214 14.2486L7.20732 12.2992L4.00019 14.2486C3.83076 14.3507 3.63499 14.4006 3.43736 14.3921C3.23972 14.3835 3.04899 14.3169 2.88901 14.2006C2.72904 14.0842 2.60691 13.9233 2.5379 13.7379C2.46889 13.5525 2.45606 13.3509 2.50102 13.1582L3.34933 9.47693L0.512599 6.99801C0.362561 6.86861 0.254068 6.69779 0.200725 6.50697C0.147383 6.31616 0.151564 6.11384 0.212747 5.92539C0.273929 5.73694 0.389387 5.57075 0.544644 5.44766C0.699901 5.32457 0.888044 5.25005 1.08548 5.23346L4.82461 4.9096L6.28417 1.4283C6.36039 1.24563 6.48896 1.08959 6.65367 0.97984C6.81839 0.870087 7.0119 0.811523 7.20984 0.811523C7.40777 0.811523 7.60128 0.870087 7.766 0.97984C7.93072 1.08959 8.05928 1.24563 8.1355 1.4283L9.59946 4.9096L13.3373 5.23346C13.5348 5.25005 13.7229 5.32457 13.8782 5.44766C14.0334 5.57075 14.1489 5.73694 14.2101 5.92539C14.2713 6.11384 14.2754 6.31616 14.2221 6.50697C14.1687 6.69779 14.0603 6.86861 13.9102 6.99801H13.9071Z" fill="white"/>
</svg>