<svg width="541" height="757" viewBox="0 0 541 757" fill="none" xmlns="http://www.w3.org/2000/svg">
<circle cx="95.9113" cy="26.2474" r="7.19452" fill="#FFD76E"/>
<circle cx="484.476" cy="99.0619" r="4.4781" fill="#5338FC"/>
<circle cx="243.884" cy="214.548" r="6.64344" fill="#5338FC"/>
<circle cx="425.689" cy="661.459" r="6.64344" fill="#5338FC"/>
<circle cx="333.161" cy="283.345" r="2.85781" fill="#FFD76E"/>
<circle cx="162.063" cy="412.51" r="2.85781" fill="#EB5246"/>
<circle cx="402.114" cy="468.114" r="8.35783" fill="#FFD76E"/>
<circle cx="496.434" cy="582.45" r="4.03821" fill="#FFD76E"/>
<rect x="82.416" y="147.717" width="16.4964" height="16.4964" transform="rotate(14.6017 82.416 147.717)" fill="#EB5246"/>
<rect x="229.858" y="504.538" width="8.48567" height="8.48567" transform="rotate(14.6017 229.858 504.538)" fill="#EB5246"/>
<rect x="515.564" y="435.676" width="16.4964" height="16.4964" transform="rotate(14.6017 515.564 435.676)" fill="#FFD76E"/>
<rect x="209.402" y="597.588" width="13.6942" height="13.6942" transform="rotate(34.6746 209.402 597.588)" fill="#FFD76E"/>
<rect x="153.659" y="713.028" width="13.6942" height="13.6942" transform="rotate(34.6746 153.659 713.028)" fill="#EB5246"/>
<path d="M65.5351 515.49L47.9611 506.461L44.7822 512.56L62.3612 521.349L65.5351 515.49Z" fill="#5338FC"/>
<path d="M20.7529 750.46L3.1789 741.431L0 747.53L17.5789 756.319L20.7529 750.46Z" fill="#5338FC"/>
<path d="M535.233 705.176L523.246 720.882L528.689 725.087L540.441 709.334L535.233 705.176Z" fill="#5338FC"/>
<path d="M115.933 303.743L103.999 319.489L109.455 323.676L121.155 307.884L115.933 303.743Z" fill="#FFD76E"/>
<path d="M338.851 60.3939L323.626 55.1838L321.781 60.4729L336.982 65.4898L338.851 60.3939Z" fill="#FFD76E"/>
<path d="M496.803 514.028L481.329 501.743L477.021 507.104L492.546 519.155L496.803 514.028Z" fill="#EB5246"/>
<rect x="421.069" width="13.6942" height="13.6942" transform="rotate(34.6746 421.069 0)" fill="#EB5246"/>
</svg>
