<svg width="60" height="60" viewBox="0 0 60 60" fill="none" xmlns="http://www.w3.org/2000/svg">
<path d="M30 60C46.5685 60 60 46.5685 60 30C60 13.4315 46.5685 0 30 0C13.4315 0 0 13.4315 0 30C0 46.5685 13.4315 60 30 60Z" fill="#4676ED"/>
<path d="M36.95 31.7455L37.7811 26.357H32.5946V22.8632C32.5946 21.3883 33.3178 19.9521 35.6423 19.9521H38V15.3646C36.6153 15.1414 35.2162 15.0196 33.8137 15C29.5332 15 26.7626 17.5796 26.7626 22.2528V26.3598H22V31.7455H26.7626V44.7735C28.6995 45.0755 30.6716 45.0755 32.6085 44.7735V31.7455H36.95Z" fill="white"/>
</svg>
