<svg width="60" height="60" viewBox="0 0 60 60" fill="none" xmlns="http://www.w3.org/2000/svg">
<path d="M30 60C46.5685 60 60 46.5685 60 30C60 13.4315 46.5685 0 30 0C13.4315 0 0 13.4315 0 30C0 46.5685 13.4315 60 30 60Z" fill="#4467AD"/>
<path d="M31.2523 26.1247C31.5851 25.7521 31.852 25.3704 32.1999 25.0488C32.6941 24.5651 33.2797 24.1851 33.9224 23.9312C34.5651 23.6773 35.2519 23.5546 35.9426 23.5702C36.7364 23.5614 37.5276 23.6626 38.2938 23.8708C40.0511 24.3787 41.0738 25.5928 41.5596 27.3118C41.8851 28.5997 42.0314 29.9266 41.9944 31.2547C41.9944 34.0556 41.9944 36.8595 41.9944 39.6694C41.9944 39.9339 41.9225 40 41.6646 40C40.2251 39.988 38.7846 39.988 37.3431 40C37.0912 40 37.0432 39.9218 37.0432 39.6995C37.0372 37.0027 37.0342 34.3231 37.0342 31.6604C37.049 30.9907 36.9713 30.3222 36.8033 29.6739C36.4584 28.4718 35.6037 27.8708 34.3532 27.9339C32.6438 28.024 31.7561 28.8715 31.5372 30.6116C31.4867 31.0274 31.4617 31.4459 31.4622 31.8648C31.4622 34.4553 31.4622 37.0488 31.4622 39.6424C31.4622 39.9008 31.3992 39.9789 31.1353 39.9759C29.6838 39.9639 28.2323 39.9639 26.7809 39.9759C26.5499 39.9759 26.481 39.9128 26.481 39.6754C26.481 34.5384 26.481 29.4044 26.481 24.2735C26.481 24.018 26.5649 23.9729 26.8048 23.9729C28.1814 23.9729 29.5609 23.9729 30.9374 23.9729C31.1923 23.9729 31.2583 24.0511 31.2373 24.2915C31.2433 24.8986 31.2523 25.5116 31.2523 26.1247Z" fill="#FEFEFE"/>
<path d="M23.3588 31.991C23.3588 34.5334 23.3588 37.0728 23.3588 39.6123C23.3588 39.8948 23.2899 39.9789 22.999 39.9759C21.5595 39.9759 20.12 39.9759 18.6805 39.9759C18.4496 39.9759 18.3806 39.9188 18.3806 39.6754C18.3806 34.5324 18.3806 29.3904 18.3806 24.2494C18.3806 24.036 18.4316 23.9489 18.6565 23.9489C20.117 23.9489 21.5805 23.9489 23.041 23.9489C23.3199 23.9489 23.3588 24.0541 23.3588 24.2945C23.3558 26.87 23.3588 29.4305 23.3588 31.991Z" fill="#FEFEFE"/>
<path d="M23.7579 18.867C23.7615 19.4386 23.5955 19.9984 23.2811 20.4754C22.9666 20.9523 22.5179 21.3249 21.9918 21.5459C21.4657 21.7668 20.886 21.8262 20.3262 21.7164C19.7663 21.6066 19.2517 21.3327 18.8475 20.9293C18.4433 20.526 18.1678 20.0114 18.0559 19.4509C17.944 18.8903 18.0008 18.3091 18.2191 17.781C18.4374 17.2529 18.8073 16.8017 19.282 16.4846C19.7566 16.1675 20.3145 15.9988 20.8849 16C21.6438 16.0031 22.371 16.3058 22.9087 16.8425C23.4465 17.3791 23.7516 18.1065 23.7579 18.867Z" fill="#FEFEFE"/>
</svg>
