<svg width="72" height="72" viewBox="0 0 72 72" fill="none" xmlns="http://www.w3.org/2000/svg">
<circle cx="36" cy="36" r="30" fill="#C40027"/>
<path d="M33.5941 40.8407C32.8052 44.9716 31.8437 48.9315 28.9922 51C28.1133 44.7571 30.2837 40.0697 31.2932 35.0928C29.5727 32.1979 31.5002 26.375 35.1256 27.8105C39.588 29.5745 31.2617 38.5683 36.8506 39.6932C42.6869 40.8647 45.0689 29.5685 41.4495 25.895C36.2221 20.5882 26.2308 25.7705 27.4608 33.3679C27.7593 35.2248 29.6777 35.7873 28.2273 38.3508C24.8808 37.6098 23.8818 34.9698 24.0108 31.4509C24.2178 25.691 29.1842 21.6606 34.1671 21.1011C40.4685 20.3947 46.3829 23.4156 47.2004 29.342C48.1198 36.0333 44.3564 43.2812 37.6171 42.7592C35.7901 42.6167 35.0251 41.7107 33.5941 40.8407Z" fill="white"/>
<circle cx="36" cy="36" r="35.5" stroke="url(#paint0_linear_2140_3042)"/>
<defs>
<linearGradient id="paint0_linear_2140_3042" x1="36" y1="0" x2="36" y2="72" gradientUnits="userSpaceOnUse">
<stop stop-color="#C40027"/>
<stop offset="1" stop-color="#C40027" stop-opacity="0"/>
</linearGradient>
</defs>
</svg>
