<svg width="72" height="72" viewBox="0 0 72 72" fill="none" xmlns="http://www.w3.org/2000/svg">
<path d="M36 66C52.5685 66 66 52.5685 66 36C66 19.4315 52.5685 6 36 6C19.4315 6 6 19.4315 6 36C6 52.5685 19.4315 66 36 66Z" fill="#010201"/>
<path d="M30.217 43.8655L30.2972 43.936C30.5344 44.1091 30.7107 44.3495 30.9383 44.5323C31.6271 45.097 32.4788 45.4262 33.3684 45.4716C34.4174 45.5273 35.4482 45.1804 36.2502 44.5018C37.0522 43.8232 37.5648 42.864 37.6834 41.8201C37.6834 41.7143 37.6834 41.6085 37.6834 41.4995V22.085C37.6834 21.6458 37.6834 21.6458 38.1194 21.6458H41.0688C41.1624 21.6295 41.2588 21.643 41.3445 21.6843L41.3605 21.7003C41.4018 21.7494 41.4275 21.8097 41.4342 21.8734C41.7801 23.5669 42.7579 25.0651 44.1688 26.0635C44.2586 26.1308 44.3323 26.2141 44.4189 26.2815L44.608 26.4418C44.822 26.5942 45.0216 26.7659 45.2043 26.9547C45.9889 27.6113 46.9116 28.0825 47.9036 28.3332C47.9902 28.3556 48.0927 28.3556 48.1569 28.439C48.2012 28.5024 48.2185 28.5808 48.2049 28.657C48.2049 29.7983 48.2049 30.9395 48.2049 32.0808C48.2049 32.3405 48.1697 32.3533 47.9068 32.3533C47.0753 32.349 46.247 32.249 45.4383 32.0552C44.0541 31.7371 42.7388 31.1713 41.5561 30.3849C41.4919 30.3432 41.4278 30.2567 41.3605 30.2855C41.2932 30.3144 41.322 30.433 41.322 30.51C41.322 33.7158 41.322 36.9216 41.322 40.1499C41.3223 42.4034 40.4946 44.5784 38.9963 46.2617C37.498 47.945 35.4336 49.0192 33.1952 49.2801C31.3982 49.5001 29.5765 49.1786 27.9633 48.3568C27.6946 48.2255 27.4391 48.0688 27.2003 47.8888L26.9759 47.69C26.4338 47.2042 25.9813 46.6269 25.6391 45.9845C25.0734 45.0301 24.6938 43.9771 24.5203 42.8813C24.4093 42.253 24.3685 41.6143 24.3984 40.977C24.488 39.12 25.1387 37.3338 26.2645 35.8543C27.3903 34.3747 28.9384 33.2714 30.7043 32.6899C31.3869 32.4555 32.0971 32.3111 32.8169 32.2603C32.9496 32.2401 33.0835 32.2294 33.2177 32.2283C33.2826 32.221 33.348 32.2356 33.4036 32.27H33.4229C33.4514 32.3343 33.4614 32.4054 33.4517 32.4751V35.9631C33.4517 36.0048 33.4517 36.0432 33.4517 36.0849C33.4517 36.2003 33.394 36.242 33.2786 36.2099C32.9643 36.1254 32.6419 36.0749 32.3168 36.0592C31.8133 36.0327 31.3096 36.1079 30.8357 36.2805C29.2328 36.8671 28.2711 38.0084 28.0755 39.6883C27.88 41.3681 28.5275 42.6665 29.9061 43.6218C29.9926 43.702 30.1112 43.7757 30.217 43.8655Z" fill="white"/>
<path d="M27.2195 47.9016C27.2804 47.8855 27.3157 47.9336 27.3605 47.9625C28.3835 48.5889 29.5196 49.0082 30.7042 49.1967C31.3058 49.296 31.9161 49.3315 32.5251 49.3025C34.4801 49.219 36.3569 48.5112 37.8801 47.2828C39.4033 46.0544 40.4927 44.3702 40.9885 42.4773C41.151 41.8781 41.2499 41.2635 41.2835 40.6436C41.3027 40.2877 41.2995 39.9319 41.2995 39.5728C41.2995 36.5102 41.2995 33.4486 41.2995 30.3881V30.1797C41.3764 30.1573 41.4149 30.2182 41.4566 30.247C42.5381 30.9912 43.7366 31.5493 45.0022 31.8981C45.701 32.0901 46.4155 32.2188 47.1373 32.2828C47.4579 32.3084 47.7464 32.3052 48.0478 32.3276C48.1824 32.3276 48.1824 32.3276 48.1856 32.193V28.6441C48.1856 28.58 48.1856 28.5159 48.1856 28.4518C48.4581 28.4838 48.7274 28.5415 49.0031 28.564C49.173 28.564 49.3397 28.5896 49.5096 28.5864C49.593 28.5864 49.6283 28.6121 49.6218 28.6954C49.6186 28.7306 49.6186 28.766 49.6218 28.8012V33.2894C49.6235 33.3182 49.6235 33.3471 49.6218 33.3759C49.6218 33.5074 49.6218 33.5106 49.4808 33.5106C49.0122 33.509 48.5442 33.4769 48.0798 33.4144C47.1335 33.2921 46.2056 33.0552 45.3164 32.7091C44.4652 32.3757 43.6552 31.9455 42.9024 31.4268L42.7357 31.3178V31.5294C42.7357 34.8036 42.7357 38.0757 42.7357 41.3456C42.7399 42.6023 42.4845 43.8462 41.9855 44.9996C41.4864 46.1529 40.7545 47.1906 39.8356 48.0478C38.9167 48.905 37.8306 49.5632 36.6455 49.981C35.4603 50.3988 34.2016 50.5673 32.9483 50.4759C30.8498 50.3375 28.865 49.4726 27.3349 48.0298C27.2964 47.9913 27.2612 47.9465 27.2195 47.9016Z" fill="#CB1C54"/>
<path d="M41.3511 21.6874C41.287 21.6874 41.2228 21.6874 41.1587 21.6874H37.9946C37.7509 21.6874 37.7509 21.6874 37.7509 21.9247V41.2527C37.7644 41.6972 37.7059 42.1411 37.5778 42.567C37.3806 43.2767 36.9918 43.9184 36.4541 44.4217C35.9163 44.925 35.2502 45.2705 34.5291 45.4202C32.8716 45.7985 31.4643 45.2952 30.3422 44.0097C30.3254 43.9863 30.3104 43.9616 30.2974 43.9359C30.6136 44.0733 30.942 44.1807 31.2783 44.2565C31.8309 44.3707 32.4007 44.372 32.9538 44.2605C33.5068 44.1489 34.0316 43.9267 34.4966 43.6072C34.9616 43.2877 35.3573 42.8775 35.6598 42.4013C35.9623 41.9251 36.1654 41.3926 36.257 40.8359C36.2966 40.5997 36.3138 40.3604 36.3083 40.121C36.3083 33.6687 36.3083 27.2164 36.3083 20.7642C36.3083 20.466 36.2666 20.5013 36.5648 20.5013H41.1331C41.287 20.5013 41.287 20.5013 41.287 20.6584C41.273 21.0027 41.2944 21.3475 41.3511 21.6874Z" fill="#6ABAC5"/>
<path d="M33.3877 32.2699C32.4819 32.2931 31.5844 32.4487 30.7236 32.7315C29.3033 33.201 28.0198 34.0117 26.9858 35.0927C25.9518 36.1737 25.1988 37.4918 24.7928 38.9316C24.6221 39.5223 24.5146 40.1295 24.4723 40.7429C24.3814 42.002 24.5543 43.2663 24.9799 44.4548C25.4055 45.6433 26.0744 46.7299 26.944 47.6451C26.9596 47.663 26.9736 47.6823 26.9856 47.7028C26.8142 47.6171 26.6546 47.5093 26.5112 47.3822C25.054 46.2497 23.977 44.6996 23.424 42.9389C23.2253 42.3139 23.0963 41.6688 23.0393 41.0154C22.9944 40.5433 22.988 40.0684 23.02 39.5952C23.1403 37.825 23.7733 36.1282 24.8419 34.7118C25.9104 33.2954 27.3682 32.2208 29.0374 31.6191C30.3925 31.1368 31.841 30.9755 33.2691 31.1479C33.3492 31.1479 33.3973 31.1735 33.3941 31.2697C33.3877 31.6031 33.3877 31.9365 33.3877 32.2699Z" fill="#6ABAC5"/>
<path d="M30.217 43.8654C29.8594 43.6964 29.5339 43.4664 29.2552 43.1858C28.5412 42.5199 28.0925 41.618 27.9921 40.6468C27.9144 39.9682 28.0048 39.2809 28.2551 38.6454C28.5054 38.0098 28.9081 37.4456 29.4278 37.0023C29.9474 36.559 30.568 36.2502 31.235 36.103C31.9021 35.9559 32.595 35.975 33.2529 36.1586C33.295 36.1777 33.3417 36.1843 33.3875 36.1778C33.4019 36.1145 33.4019 36.0488 33.3875 35.9855V32.4591C33.3875 32.395 33.3875 32.3308 33.3875 32.2667C33.8373 32.2452 34.288 32.2656 34.734 32.3276C34.8045 32.3276 34.8238 32.3661 34.8238 32.4302C34.8238 32.4943 34.8238 32.4975 34.8238 32.5328C34.8238 34.0844 34.8238 35.6361 34.8238 37.1877C34.8341 37.2471 34.8274 37.3082 34.8045 37.364C34.5994 37.3255 34.3974 37.2646 34.1922 37.2358C33.6239 37.1446 33.0429 37.1739 32.4867 37.322C31.9305 37.47 31.4117 37.7333 30.9639 38.0949C30.1467 38.7228 29.6026 39.6412 29.4444 40.6596C29.3496 41.1907 29.3611 41.7354 29.4783 42.262C29.5955 42.7887 29.8161 43.2868 30.1272 43.7276C30.1603 43.7714 30.1903 43.8175 30.217 43.8654Z" fill="#CB1C54"/>
<path d="M44.4286 26.2814C43.9787 26.0128 43.5678 25.6838 43.2072 25.3036C42.2464 24.3265 41.601 23.0835 41.3542 21.7355V21.7035C41.7742 21.6778 42.1974 21.7035 42.6173 21.7035C42.6911 21.7035 42.7231 21.7323 42.7167 21.8061C42.7151 21.836 42.7151 21.8659 42.7167 21.8958C42.714 23.0479 43.0267 24.1787 43.6208 25.1658C43.8284 25.5259 44.0688 25.866 44.3389 26.182C44.3806 26.2045 44.4222 26.2301 44.4286 26.2814Z" fill="#CB1C54"/>
<path d="M48.1665 28.4389C46.9873 28.1922 45.8938 27.6393 44.996 26.836C44.8557 26.7225 44.7288 26.5935 44.6177 26.4513C44.6584 26.4536 44.6975 26.4681 44.7299 26.493C45.4484 26.9078 46.2357 27.1902 47.0541 27.3265C47.3719 27.3807 47.6935 27.4086 48.0159 27.4099C48.1505 27.4099 48.1537 27.4099 48.1537 27.5445C48.1729 27.833 48.1697 28.1344 48.1665 28.4389Z" fill="#6ABAC5"/>
<circle cx="36" cy="36" r="35.5" stroke="url(#paint0_linear_2140_3039)"/>
<defs>
<linearGradient id="paint0_linear_2140_3039" x1="36" y1="0" x2="36" y2="72" gradientUnits="userSpaceOnUse">
<stop stop-color="#6ABAC5"/>
<stop offset="1" stop-color="#CB1C54" stop-opacity="0"/>
</linearGradient>
</defs>
</svg>
