<svg width="72" height="72" viewBox="0 0 72 72" fill="none" xmlns="http://www.w3.org/2000/svg">
<path d="M6 36C6 52.5685 19.4315 66 36 66C52.5685 66 66 52.5685 66 36C66 19.4315 52.5685 6 36 6C19.4315 6 6 19.4315 6 36Z" fill="black"/>
<path d="M46.2756 45.565L38.2349 34.2121L37.3257 32.9281L31.5728 24.807L31.0962 24.134H24.0278L25.7515 26.5685L33.4005 37.3675L34.3097 38.6501L40.455 47.3278L40.9317 48H48.0001L46.2756 45.565ZM41.7704 46.4455L35.3863 37.4311L34.4771 36.1479L27.0692 25.6876H30.256L36.2473 34.1469L37.1564 35.4301L44.9582 46.4453L41.7704 46.4455Z" fill="white"/>
<path d="M34.4776 36.1479L35.3867 37.4311L34.3089 38.6501L26.0393 47.9992H24L33.3998 37.3675L34.4776 36.1479Z" fill="white"/>
<path d="M47.7236 24L38.914 34.1916L37.8489 35.4235L36.9504 34.1259L38.0156 32.8932L43.983 25.9862L45.7082 24H47.7236Z" fill="white"/>
<circle cx="36" cy="36" r="35.5" stroke="url(#paint0_linear_2140_3041)"/>
<defs>
<linearGradient id="paint0_linear_2140_3041" x1="36" y1="0" x2="36" y2="72" gradientUnits="userSpaceOnUse">
<stop/>
<stop offset="1" stop-opacity="0"/>
</linearGradient>
</defs>
</svg>
