<svg width="60" height="60" viewBox="0 0 60 60" fill="none" xmlns="http://www.w3.org/2000/svg">
<path d="M0 30C0 46.5685 13.4315 60 30 60C46.5685 60 60 46.5685 60 30C60 13.4315 46.5685 0 30 0C13.4315 0 0 13.4315 0 30Z" fill="black"/>
<path d="M40.2756 39.565L32.2349 28.2121L31.3257 26.9281L25.5728 18.807L25.0962 18.134H18.0278L19.7515 20.5685L27.4005 31.3675L28.3097 32.6501L34.455 41.3278L34.9317 42H42.0001L40.2756 39.565ZM35.7704 40.4455L29.3863 31.4311L28.4771 30.1479L21.0692 19.6876H24.256L30.2473 28.1469L31.1564 29.4301L38.9582 40.4453L35.7704 40.4455Z" fill="white"/>
<path d="M28.4776 30.1479L29.3867 31.4311L28.3089 32.6501L20.0393 41.9992H18L27.3998 31.3675L28.4776 30.1479Z" fill="white"/>
<path d="M41.7236 18L32.914 28.1916L31.8489 29.4235L30.9504 28.1259L32.0156 26.8932L37.983 19.9862L39.7082 18H41.7236Z" fill="white"/>
</svg>
