<svg width="14" height="15" viewBox="0 0 14 15" fill="none" xmlns="http://www.w3.org/2000/svg">
<path id="Vector" fill-rule="evenodd" clip-rule="evenodd" d="M7.13273 0.851318C5.73659 0.851318 4.39764 1.36632 3.41042 2.28302C2.4232 3.19972 1.86859 4.44303 1.86859 5.73944V6.18348C1.86855 6.62302 1.7284 7.05273 1.4658 7.41844L0.686707 8.50518C-0.219404 9.76663 0.472066 11.4809 2.04723 11.8796C2.56006 12.0095 3.07764 12.1192 3.59862 12.2094L3.59998 12.2126C4.12164 13.5068 5.51748 14.4119 7.13273 14.4119C8.74797 14.4119 10.1438 13.5068 10.6661 12.2126L10.6675 12.2094C11.1893 12.1193 11.7069 12.0092 12.2189 11.8796C13.7941 11.4809 14.4855 9.76663 13.5794 8.50518L12.7997 7.41844C12.5371 7.05273 12.3969 6.62302 12.3969 6.18348V5.73944C12.3969 4.44303 11.8422 3.19972 10.855 2.28302C9.86781 1.36632 8.52886 0.851318 7.13273 0.851318ZM9.42585 12.3854C7.90229 12.5544 6.36248 12.5544 4.83892 12.3854C5.32186 13.0294 6.16209 13.4658 7.13273 13.4658C8.10336 13.4658 8.94291 13.0294 9.42585 12.3854ZM2.88745 5.73944C2.88745 4.69395 3.33472 3.69128 4.13087 2.952C4.92701 2.21273 6.00681 1.79741 7.13273 1.79741C8.25864 1.79741 9.33844 2.21273 10.1346 2.952C10.9307 3.69128 11.378 4.69395 11.378 5.73944V6.18348C11.378 6.80979 11.5777 7.42222 11.952 7.9432L12.7317 9.02994C12.8526 9.19797 12.9286 9.39028 12.9536 9.59098C12.9787 9.79169 12.9519 9.99504 12.8756 10.1843C12.7993 10.3735 12.6756 10.5431 12.5148 10.6792C12.3539 10.8153 12.1606 10.9139 11.9506 10.9669C8.79606 11.7658 5.46871 11.7658 2.31417 10.9669C2.1044 10.9137 1.91123 10.8151 1.75056 10.679C1.5899 10.543 1.46634 10.3734 1.39006 10.1843C1.31379 9.99524 1.28697 9.79204 1.31183 9.59145C1.33669 9.39086 1.41251 9.19862 1.53304 9.03057L2.31417 7.9432C2.68812 7.42202 2.88759 6.80973 2.88745 6.18348V5.73944Z" fill="#FEFDFD"/>
</svg>
