<svg width="16" height="15" viewBox="0 0 16 15" fill="none" xmlns="http://www.w3.org/2000/svg">
<path d="M13.1711 1.60601H11.7047V0.872827C11.7047 0.678376 11.6275 0.491889 11.49 0.354391C11.3525 0.216894 11.166 0.139648 10.9715 0.139648C10.7771 0.139648 10.5906 0.216894 10.4531 0.354391C10.3156 0.491889 10.2384 0.678376 10.2384 0.872827V1.60601H5.83928V0.872827C5.83928 0.678376 5.76204 0.491889 5.62454 0.354391C5.48704 0.216894 5.30055 0.139648 5.1061 0.139648C4.91165 0.139648 4.72517 0.216894 4.58767 0.354391C4.45017 0.491889 4.37292 0.678376 4.37292 0.872827V1.60601H2.90657C2.32321 1.60601 1.76375 1.83774 1.35126 2.25024C0.938768 2.66273 0.707031 3.22219 0.707031 3.80554V12.6037C0.707031 13.187 0.938768 13.7465 1.35126 14.159C1.76375 14.5715 2.32321 14.8032 2.90657 14.8032H13.1711C13.7544 14.8032 14.3139 14.5715 14.7264 14.159C15.1389 13.7465 15.3706 13.187 15.3706 12.6037V3.80554C15.3706 3.22219 15.1389 2.66273 14.7264 2.25024C14.3139 1.83774 13.7544 1.60601 13.1711 1.60601ZM13.9042 12.6037C13.9042 12.7981 13.827 12.9846 13.6895 13.1221C13.552 13.2596 13.3655 13.3369 13.1711 13.3369H2.90657C2.71212 13.3369 2.52563 13.2596 2.38813 13.1221C2.25063 12.9846 2.17339 12.7981 2.17339 12.6037V7.47144H13.9042V12.6037ZM13.9042 6.00508H2.17339V3.80554C2.17339 3.61109 2.25063 3.4246 2.38813 3.28711C2.52563 3.14961 2.71212 3.07236 2.90657 3.07236H4.37292V3.80554C4.37292 3.99999 4.45017 4.18648 4.58767 4.32398C4.72517 4.46148 4.91165 4.53872 5.1061 4.53872C5.30055 4.53872 5.48704 4.46148 5.62454 4.32398C5.76204 4.18648 5.83928 3.99999 5.83928 3.80554V3.07236H10.2384V3.80554C10.2384 3.99999 10.3156 4.18648 10.4531 4.32398C10.5906 4.46148 10.7771 4.53872 10.9715 4.53872C11.166 4.53872 11.3525 4.46148 11.49 4.32398C11.6275 4.18648 11.7047 3.99999 11.7047 3.80554V3.07236H13.1711C13.3655 3.07236 13.552 3.14961 13.6895 3.28711C13.827 3.4246 13.9042 3.61109 13.9042 3.80554V6.00508Z" fill="white"/>
</svg>
