<svg width="17" height="18" viewBox="0 0 17 18" fill="none" xmlns="http://www.w3.org/2000/svg">
<g id="fluent:comment-12-filled">
<path id="Vector" d="M4.95801 3.15926C4.39442 3.15926 3.85392 3.38315 3.45541 3.78166C3.05689 4.18018 2.83301 4.72068 2.83301 5.28426V10.9509C2.83301 11.5145 3.05689 12.055 3.45541 12.4535C3.85392 12.852 4.39442 13.0759 4.95801 13.0759H5.66634V14.4926C5.66631 14.6179 5.69954 14.741 5.76263 14.8493C5.82571 14.9576 5.9164 15.0472 6.02544 15.109C6.13447 15.1708 6.25795 15.2025 6.38327 15.201C6.50858 15.1995 6.63125 15.1648 6.73876 15.1003L10.1118 13.0759H12.0413C12.6049 13.0759 13.1454 12.852 13.5439 12.4535C13.9425 12.055 14.1663 11.5145 14.1663 10.9509V5.28426C14.1663 4.72068 13.9425 4.18018 13.5439 3.78166C13.1454 3.38315 12.6049 3.15926 12.0413 3.15926H4.95801Z" fill="white"/>
</g>
</svg>
