<svg xmlns="http://www.w3.org/2000/svg" width="66" height="66" viewBox="0 0 66 66" fill="none">
  <circle cx="33.0493" cy="32.8256" r="32.3998" fill="#FEFDFD"/>
  <circle cx="33.0484" cy="32.8258" r="27.5274" fill="#5338FC"/>
  <path d="M29.8026 3.99654C31.6742 2.40402 34.4245 2.40402 36.296 3.99654C37.6186 5.12192 39.4296 5.48216 41.0822 4.94857C43.4207 4.19348 45.9617 5.24599 47.0813 7.4335C47.8726 8.97934 49.4079 10.0052 51.1388 10.1446C53.5883 10.3419 55.5331 12.2867 55.7304 14.7362C55.8698 16.4671 56.8957 18.0024 58.4415 18.7937C60.629 19.9133 61.6815 22.4543 60.9264 24.7928C60.3928 26.4454 60.7531 28.2564 61.8785 29.579C63.471 31.4505 63.471 34.2008 61.8785 36.0724C60.7531 37.395 60.3928 39.206 60.9264 40.8585C61.6815 43.1971 60.629 45.738 58.4415 46.8577C56.8957 47.6489 55.8698 49.1842 55.7304 50.9152C55.5331 53.3647 53.5883 55.3094 51.1388 55.5067C49.4079 55.6462 47.8726 56.672 47.0813 58.2179C45.9617 60.4054 43.4207 61.4579 41.0822 60.7028C39.4296 60.1692 37.6186 60.5294 36.296 61.6548C34.4245 63.2473 31.6742 63.2473 29.8026 61.6548C28.48 60.5294 26.669 60.1692 25.0165 60.7028C22.6779 61.4579 20.137 60.4054 19.0173 58.2179C18.2261 56.672 16.6908 55.6462 14.9598 55.5067C12.5103 55.3094 10.5656 53.3647 10.3683 50.9152C10.2288 49.1842 9.20297 47.6489 7.65713 46.8577C5.46962 45.738 4.41712 43.1971 5.1722 40.8585C5.70579 39.206 5.34556 37.395 4.22018 36.0724C2.62766 34.2008 2.62766 31.4505 4.22018 29.579C5.34556 28.2564 5.70579 26.4454 5.1722 24.7928C4.41712 22.4543 5.46962 19.9133 7.65713 18.7937C9.20297 18.0024 10.2288 16.4671 10.3683 14.7362C10.5656 12.2867 12.5103 10.3419 14.9598 10.1446C16.6908 10.0052 18.2261 8.97934 19.0173 7.4335C20.137 5.24599 22.6779 4.19348 25.0165 4.94857C26.669 5.48216 28.48 5.12192 29.8026 3.99654Z" fill="#59C3FF"/>
  <circle cx="33.0492" cy="32.8256" r="20.309" fill="#0062FF"/>
  <path d="M33.0492 12.5167C38.4355 12.5167 43.6012 14.6564 47.4099 18.4651C51.2186 22.2738 53.3583 27.4395 53.3583 32.8258C53.3583 38.212 51.2186 43.3777 47.4099 47.1864C43.6012 50.9951 38.4355 53.1348 33.0492 53.1348L33.0492 32.8258L33.0492 12.5167Z" fill="#0055DD"/>
  <path d="M41.1548 23.7993H25.0736L21.7666 30.569H44.3322L41.1548 23.7993Z" fill="white"/>
  <path d="M41.1548 23.7993H33.0493V30.569H44.3321L41.1548 23.7993Z" fill="#B2F5FF"/>
  <path d="M44.3322 30.5693H21.7666L33.0494 44.1087L44.3322 30.5693Z" fill="#B2F5FF"/>
  <path d="M44.3321 30.5693H33.0493V44.1087L44.3321 30.5693Z" fill="#18E0FF"/>
</svg>