<svg width="17" height="10" viewBox="0 0 17 10" fill="none" xmlns="http://www.w3.org/2000/svg">
<path id="Vector" d="M1.30989 0.87829C1.5359 0.671182 1.84238 0.554834 2.16195 0.554834C2.48153 0.554834 2.78801 0.671182 3.01402 0.87829L8.97966 6.3468L14.9453 0.87829C15.1726 0.677051 15.477 0.565699 15.793 0.568215C16.109 0.570732 16.4113 0.686917 16.6348 0.891747C16.8582 1.09658 16.985 1.37366 16.9877 1.66332C16.9904 1.95299 16.869 2.23205 16.6494 2.4404L9.83173 8.68997C9.60572 8.89708 9.29923 9.01343 8.97966 9.01343C8.66009 9.01343 8.35361 8.89708 8.1276 8.68997L1.30989 2.4404C1.08396 2.23323 0.957031 1.95229 0.957031 1.65935C0.957031 1.36641 1.08396 1.08546 1.30989 0.87829Z" fill="#F26E64"/>
</svg>
