<svg width="100" height="54" viewBox="0 0 100 54" fill="none" xmlns="http://www.w3.org/2000/svg">
<path d="M6.25269 47.9737C6.25269 47.7579 6.21883 47.5675 6.15112 47.4024C6.08765 47.2332 5.97339 47.0808 5.80835 46.9454C5.64754 46.81 5.42326 46.6809 5.1355 46.5582C4.85197 46.4355 4.49227 46.3106 4.0564 46.1837C3.59937 46.0483 3.18677 45.898 2.8186 45.733C2.45044 45.5637 2.13517 45.3712 1.8728 45.1554C1.61043 44.9395 1.40942 44.692 1.26978 44.4127C1.13013 44.1334 1.0603 43.8139 1.0603 43.4542C1.0603 43.0945 1.13436 42.7623 1.28247 42.4576C1.43058 42.1529 1.64217 41.8884 1.91724 41.6642C2.19653 41.4356 2.52873 41.2579 2.91382 41.131C3.29891 41.004 3.72843 40.9405 4.20239 40.9405C4.8964 40.9405 5.48462 41.0738 5.96704 41.3404C6.45369 41.6028 6.82397 41.9477 7.07788 42.3751C7.33179 42.7983 7.45874 43.2511 7.45874 43.7335H6.23999C6.23999 43.3865 6.16593 43.0797 6.01782 42.8131C5.86971 42.5422 5.64543 42.3307 5.34497 42.1783C5.04451 42.0217 4.66366 41.9435 4.20239 41.9435C3.76652 41.9435 3.40682 42.009 3.12329 42.1402C2.83976 42.2714 2.62817 42.4491 2.48853 42.6734C2.35311 42.8977 2.2854 43.1537 2.2854 43.4415C2.2854 43.6362 2.3256 43.8139 2.40601 43.9747C2.49064 44.1313 2.61971 44.2773 2.79321 44.4127C2.97095 44.5481 3.19523 44.6729 3.46606 44.7872C3.74113 44.9015 4.06909 45.0115 4.44995 45.1173C4.97469 45.2654 5.42749 45.4304 5.80835 45.6124C6.18921 45.7944 6.50236 45.9996 6.7478 46.2281C6.99748 46.4524 7.18156 46.7084 7.30005 46.9962C7.42277 47.2797 7.48413 47.6013 7.48413 47.961C7.48413 48.3377 7.40796 48.6783 7.25562 48.983C7.10327 49.2877 6.88534 49.5479 6.60181 49.7638C6.31828 49.9796 5.97762 50.1467 5.57983 50.2652C5.18628 50.3795 4.74618 50.4366 4.25952 50.4366C3.83211 50.4366 3.41105 50.3774 2.99634 50.2589C2.58586 50.1404 2.21134 49.9627 1.8728 49.7257C1.53849 49.4887 1.26978 49.1967 1.06665 48.8497C0.867757 48.4985 0.768311 48.0922 0.768311 47.631H1.98706C1.98706 47.9483 2.04842 48.2213 2.17114 48.4498C2.29386 48.6741 2.46102 48.8603 2.67261 49.0084C2.88843 49.1565 3.13175 49.2665 3.40259 49.3385C3.67765 49.4062 3.9633 49.44 4.25952 49.44C4.68693 49.44 5.04875 49.3808 5.34497 49.2623C5.64119 49.1438 5.86548 48.9745 6.01782 48.7545C6.1744 48.5344 6.25269 48.2742 6.25269 47.9737ZM15.8821 41.0675H17.0691L20.0969 48.6021L23.1184 41.0675H24.3118L20.554 50.3097H19.6272L15.8821 41.0675ZM15.4949 41.0675H16.5422L16.7136 46.7042V50.3097H15.4949V41.0675ZM23.6453 41.0675H24.6926V50.3097H23.4739V46.7042L23.6453 41.0675ZM36.4548 41.0675V50.3097H35.2488V41.0675H36.4548ZM39.4255 41.0675V42.0704H32.2844V41.0675H39.4255ZM49.4231 47.5167L51.2576 41.0675H52.1462L51.6321 43.5748L49.658 50.3097H48.7756L49.4231 47.5167ZM47.5251 41.0675L48.9851 47.3897L49.4231 50.3097H48.5471L46.3064 41.0675H47.5251ZM54.5203 47.3834L55.9485 41.0675H57.1736L54.9392 50.3097H54.0632L54.5203 47.3834ZM52.2795 41.0675L54.0632 47.5167L54.7107 50.3097H53.8284L51.9241 43.5748L51.4036 41.0675H52.2795ZM68.1423 41.0675V50.3097H66.9363V41.0675H68.1423ZM71.113 41.0675V42.0704H63.9719V41.0675H71.113ZM79.9045 41.0675V50.3097H78.6794V41.0675H79.9045ZM83.7766 45.2252V46.2281H79.6379V45.2252H83.7766ZM84.405 41.0675V42.0704H79.6379V41.0675H84.405ZM97.24 47.9737C97.24 47.7579 97.2061 47.5675 97.1384 47.4024C97.075 47.2332 96.9607 47.0808 96.7957 46.9454C96.6348 46.81 96.4106 46.6809 96.1228 46.5582C95.8393 46.4355 95.4796 46.3106 95.0437 46.1837C94.5867 46.0483 94.1741 45.898 93.8059 45.733C93.4377 45.5637 93.1225 45.3712 92.8601 45.1554C92.5977 44.9395 92.3967 44.692 92.2571 44.4127C92.1174 44.1334 92.0476 43.8139 92.0476 43.4542C92.0476 43.0945 92.1217 42.7623 92.2698 42.4576C92.4179 42.1529 92.6295 41.8884 92.9045 41.6642C93.1838 41.4356 93.516 41.2579 93.9011 41.131C94.2862 41.004 94.7157 40.9405 95.1897 40.9405C95.8837 40.9405 96.4719 41.0738 96.9543 41.3404C97.441 41.6028 97.8113 41.9477 98.0652 42.3751C98.3191 42.7983 98.446 43.2511 98.446 43.7335H97.2273C97.2273 43.3865 97.1532 43.0797 97.0051 42.8131C96.857 42.5422 96.6327 42.3307 96.3323 42.1783C96.0318 42.0217 95.651 41.9435 95.1897 41.9435C94.7538 41.9435 94.3941 42.009 94.1106 42.1402C93.8271 42.2714 93.6155 42.4491 93.4758 42.6734C93.3404 42.8977 93.2727 43.1537 93.2727 43.4415C93.2727 43.6362 93.3129 43.8139 93.3933 43.9747C93.4779 44.1313 93.607 44.2773 93.7805 44.4127C93.9583 44.5481 94.1825 44.6729 94.4534 44.7872C94.7284 44.9015 95.0564 45.0115 95.4373 45.1173C95.962 45.2654 96.4148 45.4304 96.7957 45.6124C97.1765 45.7944 97.4897 45.9996 97.7351 46.2281C97.9848 46.4524 98.1689 46.7084 98.2874 46.9962C98.4101 47.2797 98.4714 47.6013 98.4714 47.961C98.4714 48.3377 98.3953 48.6783 98.2429 48.983C98.0906 49.2877 97.8726 49.5479 97.5891 49.7638C97.3056 49.9796 96.9649 50.1467 96.5671 50.2652C96.1736 50.3795 95.7335 50.4366 95.2468 50.4366C94.8194 50.4366 94.3984 50.3774 93.9836 50.2589C93.5732 50.1404 93.1986 49.9627 92.8601 49.7257C92.5258 49.4887 92.2571 49.1967 92.054 48.8497C91.8551 48.4985 91.7556 48.0922 91.7556 47.631H92.9744C92.9744 47.9483 93.0357 48.2213 93.1584 48.4498C93.2812 48.6741 93.4483 48.8603 93.6599 49.0084C93.8757 49.1565 94.1191 49.2665 94.3899 49.3385C94.665 49.4062 94.9506 49.44 95.2468 49.44C95.6742 49.44 96.0361 49.3808 96.3323 49.2623C96.6285 49.1438 96.8528 48.9745 97.0051 48.7545C97.1617 48.5344 97.24 48.2742 97.24 47.9737Z" fill="#0B0721"/>
<rect x="1.43335" y="30.7246" width="5.02234" height="7.58502" rx="2.51117" fill="#5338FC"/>
<rect x="17.2209" y="11.9936" width="5.02234" height="26.316" rx="2.51117" fill="#5338FC"/>
<rect x="33.0083" y="10.2544" width="5.02234" height="28.0553" rx="2.51117" fill="#5338FC"/>
<rect x="48.7957" y="25.3729" width="5.02234" height="12.9367" rx="2.51117" fill="#5338FC"/>
<rect x="64.583" y="9.18399" width="5.02234" height="29.1257" rx="2.51117" fill="#5338FC"/>
<rect x="80.3704" y="13.7329" width="5.02234" height="24.5767" rx="2.51117" fill="#5338FC"/>
<rect x="93.9045" y="0.69632" width="5.02234" height="37.6133" rx="2.51117" fill="#5338FC"/>
</svg>
