<svg width="21" height="21" viewBox="0 0 21 21" fill="none" xmlns="http://www.w3.org/2000/svg">
<g id="ph:heart-fill">
<path id="Vector" d="M16.8632 8.64603C16.8632 12.6096 10.9863 15.8179 10.736 15.9504C10.6701 15.9859 10.5963 16.0044 10.5214 16.0044C10.4465 16.0044 10.3728 15.9859 10.3068 15.9504C10.0566 15.8179 4.17969 12.6096 4.17969 8.64603C4.18074 7.71528 4.55094 6.82295 5.20908 6.16481C5.86722 5.50667 6.75955 5.13646 7.6903 5.13541C8.85956 5.13541 9.88331 5.63822 10.5214 6.48813C11.1596 5.63822 12.1833 5.13541 13.3526 5.13541C14.2833 5.13646 15.1757 5.50667 15.8338 6.16481C16.492 6.82295 16.8622 7.71528 16.8632 8.64603Z" fill="white"/>
</g>
</svg>
