<svg width="19" height="19" viewBox="0 0 19 19" fill="none" xmlns="http://www.w3.org/2000/svg">
<path fill-rule="evenodd" clip-rule="evenodd" d="M9.20386 0.615692C9.73016 0.615692 10.1568 1.04235 10.1568 1.56865V2.90766C11.5737 3.11214 12.8966 3.76889 13.9208 4.79307C14.9449 5.81725 15.6017 7.14017 15.8062 8.55702H17.1452C17.6715 8.55702 18.0981 8.98367 18.0981 9.50998C18.0981 10.0363 17.6715 10.4629 17.1452 10.4629H15.8062C15.6646 11.4439 15.3055 12.3853 14.7504 13.216C14.0174 14.313 12.9755 15.168 11.7566 15.6729C11.241 15.8865 10.7034 16.0334 10.1568 16.1123V17.4513C10.1568 17.9776 9.73016 18.4043 9.20386 18.4043C8.67755 18.4043 8.2509 17.9776 8.2509 17.4513V16.1123C8.13446 16.0955 8.01827 16.0756 7.90247 16.0525C6.60847 15.7951 5.41987 15.1598 4.48695 14.2269C3.55403 13.294 2.91871 12.1054 2.66132 10.8114C2.63828 10.6956 2.61837 10.5794 2.60156 10.4629H1.26253C0.736225 10.4629 0.30957 10.0363 0.30957 9.50998C0.30957 8.98367 0.736225 8.55702 1.26253 8.55702H2.60156C2.68045 8.01041 2.82733 7.47286 3.04092 6.95721C3.54581 5.73829 4.40081 4.69647 5.49781 3.96348C6.32858 3.40837 7.26989 3.04928 8.2509 2.90768V1.56865C8.2509 1.04235 8.67755 0.615692 9.20386 0.615692ZM9.20386 4.74518C8.26147 4.74518 7.34024 5.02463 6.55668 5.5482C5.77311 6.07176 5.1624 6.81592 4.80176 7.68657C4.44112 8.55722 4.34676 9.51527 4.53062 10.4395C4.71447 11.3638 5.16827 12.2128 5.83464 12.8792C6.50101 13.5456 7.35001 13.9994 8.27429 14.1832C9.19857 14.3671 10.1566 14.2727 11.0273 13.9121C11.8979 13.5514 12.6421 12.9407 13.1656 12.1572C13.6892 11.3736 13.9687 10.4524 13.9687 9.50998C13.9687 8.24628 13.4667 7.03433 12.5731 6.14076C11.6795 5.24719 10.4676 4.74518 9.20386 4.74518Z" fill="white"/>
</svg>
