<svg width="9" height="17" viewBox="0 0 9 17" fill="none" xmlns="http://www.w3.org/2000/svg">
<path d="M0.489862 16.1566C0.282754 15.9306 0.166407 15.6241 0.166407 15.3046C0.166407 14.985 0.282754 14.6785 0.489862 14.4525L5.95837 8.48686L0.489862 2.52121C0.288622 2.29391 0.17727 1.98948 0.179787 1.67349C0.182304 1.35749 0.298489 1.05522 0.503319 0.831768C0.708148 0.608318 0.985234 0.481572 1.27489 0.478825C1.56456 0.47608 1.84362 0.597555 2.05198 0.817088L8.30154 7.6348C8.50865 7.8608 8.625 8.16729 8.625 8.48686C8.625 8.80643 8.50865 9.11292 8.30154 9.33892L2.05198 16.1566C1.84481 16.3826 1.56386 16.5095 1.27092 16.5095C0.97798 16.5095 0.697033 16.3826 0.489862 16.1566Z" fill="black"/>
</svg>
