<svg width="13" height="14" viewBox="0 0 13 14" fill="none" xmlns="http://www.w3.org/2000/svg">
<path d="M11.1396 10.8639L8.75059 8.47493C9.32575 7.70924 9.63624 6.77723 9.6352 5.81958C9.6352 3.37345 7.64508 1.38333 5.19895 1.38333C2.75281 1.38333 0.762695 3.37345 0.762695 5.81958C0.762695 8.26571 2.75281 10.2558 5.19895 10.2558C6.1566 10.2569 7.0886 9.94639 7.8543 9.37122L10.2433 11.7602C10.3642 11.8683 10.522 11.926 10.6841 11.9215C10.8462 11.917 11.0005 11.8505 11.1152 11.7358C11.2299 11.6211 11.2963 11.4669 11.3009 11.3047C11.3054 11.1426 11.2477 10.9849 11.1396 10.8639ZM2.0302 5.81958C2.0302 5.19286 2.21604 4.58022 2.56423 4.05912C2.91241 3.53802 3.4073 3.13187 3.98632 2.89204C4.56533 2.6522 5.20246 2.58945 5.81714 2.71172C6.43182 2.83398 6.99643 3.13578 7.43959 3.57894C7.88275 4.02209 8.18454 4.58671 8.30681 5.20139C8.42908 5.81607 8.36632 6.4532 8.12649 7.03221C7.88665 7.61122 7.48051 8.10611 6.95941 8.4543C6.43831 8.80249 5.82566 8.98833 5.19895 8.98833C4.35885 8.98732 3.55345 8.65315 2.95941 8.05911C2.36538 7.46508 2.0312 6.65968 2.0302 5.81958Z" fill="#FDEFEE"/>
</svg>
