<svg width="205" height="106" viewBox="0 0 205 106" fill="none" xmlns="http://www.w3.org/2000/svg">
<rect y="67.102" width="23.4286" height="16.898" rx="2" fill="url(#paint0_linear_145_758)"/>
<rect x="30.457" y="57.551" width="23.4286" height="26.449" rx="2" fill="url(#paint1_linear_145_758)"/>
<rect x="60.9143" y="39.1837" width="23.4286" height="44.8163" rx="2" fill="url(#paint2_linear_145_758)"/>
<rect opacity="0.75" x="90.2" y="12" width="23.4286" height="72" rx="2" fill="#F36060"/>
<rect x="120.657" y="26.5714" width="23.4286" height="57.3061" rx="2" fill="url(#paint3_linear_145_758)"/>
<rect x="151.114" y="57.4286" width="23.4286" height="26.449" rx="2" fill="url(#paint4_linear_145_758)"/>
<rect x="181.571" y="33.3061" width="23.4286" height="50.6939" rx="2" fill="url(#paint5_linear_145_758)"/>
<path d="M2.86168 100V92.92H4.29168L6.54168 98.28H6.58168L8.81168 92.92H10.2417V100H9.28168V94.18H9.26168L6.87168 100H6.23168L3.84168 94.18H3.82168V100H2.86168ZM14.0542 95.14C15.3942 95.14 16.5742 96.18 16.5742 97.63C16.5742 99.01 15.4642 100.12 14.0542 100.12C12.6842 100.12 11.5342 99.04 11.5342 97.63C11.5342 96.25 12.6442 95.14 14.0542 95.14ZM12.4942 97.63C12.4942 98.62 13.1242 99.28 14.0542 99.28C14.9942 99.28 15.6142 98.61 15.6142 97.63C15.6142 96.63 14.9742 95.98 14.0442 95.98C13.1242 95.98 12.4942 96.66 12.4942 97.63ZM17.7017 95.26H18.6017V95.99H18.6217C18.8717 95.46 19.4917 95.14 20.1817 95.14C21.2417 95.14 21.9017 95.84 21.9017 96.91V100H21.0017V97.17C21.0017 96.44 20.6017 95.98 19.9217 95.98C19.0917 95.98 18.6017 96.57 18.6017 97.52V100H17.7017V95.26Z" fill="#EF4452"/>
<path d="M34.3567 93.82V92.92H39.8767V93.82H37.5967V100H36.6367V93.82H34.3567ZM39.663 95.26H40.563V98.1C40.563 98.84 40.973 99.28 41.643 99.28C42.483 99.28 42.963 98.68 42.963 97.74V95.26H43.863V100H42.963V99.27H42.943C42.693 99.8 42.083 100.12 41.383 100.12C40.333 100.12 39.663 99.42 39.663 98.35V95.26ZM47.3896 95.14C48.7896 95.14 49.6996 96.07 49.6996 97.71V97.96H45.8996C45.8996 98.78 46.6696 99.34 47.4996 99.34C48.0496 99.34 48.4496 99.06 48.7996 98.63L49.4796 99.15C48.9696 99.8 48.2896 100.12 47.3796 100.12C45.9696 100.12 44.9396 99.14 44.9396 97.63C44.9396 96.23 45.9496 95.14 47.3896 95.14ZM48.7396 97.24C48.7096 96.35 48.2096 95.86 47.3696 95.86C46.4196 95.86 45.8996 96.67 45.8996 97.24H48.7396Z" fill="#EF4452"/>
<path d="M62.8142 92.92H63.8142L65.3742 98.58H65.3942L67.0642 92.92H68.1642L69.8342 98.58H69.8542L71.4142 92.92H72.4142L70.3542 100H69.3442L67.6242 94.22H67.6042L65.8942 100H64.8842L62.8142 92.92ZM74.8045 95.14C76.2045 95.14 77.1145 96.07 77.1145 97.71V97.96H73.3145C73.3145 98.78 74.0845 99.34 74.9145 99.34C75.4645 99.34 75.8645 99.06 76.2145 98.63L76.8945 99.15C76.3845 99.8 75.7045 100.12 74.7945 100.12C73.3845 100.12 72.3545 99.14 72.3545 97.63C72.3545 96.23 73.3645 95.14 74.8045 95.14ZM76.1545 97.24C76.1245 96.35 75.6245 95.86 74.7845 95.86C73.8345 95.86 73.3145 96.67 73.3145 97.24H76.1545ZM80.3712 100.12C78.9712 100.12 77.9612 99.1 77.9612 97.63C77.9612 96.16 78.9712 95.14 80.3712 95.14C81.0212 95.14 81.6812 95.43 82.0212 95.94H82.0412V92.44H82.9412V100H82.0412V99.32H82.0212C81.6712 99.83 81.0312 100.12 80.3712 100.12ZM78.9212 97.63C78.9212 98.62 79.5512 99.28 80.4812 99.28C81.4212 99.28 82.0412 98.61 82.0412 97.63C82.0412 96.63 81.4012 95.98 80.4712 95.98C79.5512 95.98 78.9212 96.64 78.9212 97.63Z" fill="#EF4452"/>
<path d="M94.1824 93.82V92.92H99.7024V93.82H97.4224V100H96.4624V93.82H94.1824ZM101.395 100H100.495V92.44H101.395V95.99H101.415C101.665 95.46 102.285 95.14 102.975 95.14C104.025 95.14 104.695 95.83 104.695 96.91V100H103.795V97.17C103.795 96.44 103.395 95.98 102.715 95.98C101.885 95.98 101.395 96.57 101.395 97.52V100ZM106.051 95.26H106.951V98.1C106.951 98.84 107.361 99.28 108.031 99.28C108.871 99.28 109.351 98.68 109.351 97.74V95.26H110.251V100H109.351V99.27H109.331C109.081 99.8 108.471 100.12 107.771 100.12C106.721 100.12 106.051 99.42 106.051 98.35V95.26Z" fill="#EF4452"/>
<path d="M127.359 100V92.92H131.809V93.82H128.319V96.04H131.569V96.94H128.319V100H127.359ZM132.871 100V95.26H133.771V95.99H133.791C134.031 95.48 134.621 95.14 135.211 95.14C135.361 95.14 135.511 95.16 135.611 95.2L135.571 96.17C135.421 96.13 135.281 96.1 135.121 96.1C134.231 96.1 133.771 96.62 133.771 97.58V100H132.871ZM137.092 92.9C137.452 92.9 137.752 93.2 137.752 93.56C137.752 93.93 137.442 94.22 137.092 94.22C136.722 94.22 136.432 93.93 136.432 93.56C136.432 93.19 136.742 92.9 137.092 92.9ZM137.542 95.26V100H136.642V95.26H137.542Z" fill="#EF4452"/>
<path d="M159.133 92.74C160.143 92.74 160.763 93.04 161.173 93.55L160.393 94.26C160.153 93.89 159.693 93.64 159.123 93.64C158.033 93.64 157.753 94.32 157.753 94.73C157.753 95.33 158.163 95.65 158.813 95.85L159.703 96.14C160.693 96.46 161.243 96.99 161.243 97.99C161.243 99.3 160.213 100.18 158.783 100.18C157.783 100.18 156.983 99.82 156.523 99.2L157.313 98.52C157.623 99 158.193 99.28 158.813 99.28C159.523 99.28 160.223 98.83 160.223 98.1C160.223 97.61 159.933 97.3 159.073 97.03L158.443 96.82C157.473 96.51 156.733 96 156.733 94.73C156.733 93.79 157.533 92.74 159.133 92.74ZM163.839 100.12C162.889 100.12 162.199 99.58 162.199 98.7C162.199 97.75 162.939 97.06 164.799 97.06H165.469V96.89C165.469 96.25 164.999 95.86 164.329 95.86C163.819 95.86 163.509 95.98 162.989 96.4L162.449 95.84C162.949 95.38 163.649 95.14 164.329 95.14C165.759 95.14 166.309 95.95 166.309 96.69V99.23C166.309 99.37 166.319 99.75 166.349 100H165.549C165.529 99.76 165.519 99.56 165.519 99.28H165.499C165.089 99.89 164.559 100.12 163.839 100.12ZM164.959 97.72C163.499 97.72 163.099 98.17 163.099 98.63C163.099 99.12 163.429 99.4 164.119 99.4C164.929 99.4 165.469 98.9 165.469 97.98V97.72H164.959ZM167.965 96.04H166.925V95.26H167.965V93.93H168.865V95.26H170.155V96.04H168.865V98.32C168.865 98.93 168.985 99.28 169.545 99.28C169.745 99.28 170.005 99.25 170.185 99.14V99.96C170.015 100.06 169.625 100.12 169.365 100.12C167.975 100.12 167.965 99.22 167.965 98.57V96.04Z" fill="#EF4452"/>
<path d="M188.476 92.74C189.486 92.74 190.106 93.04 190.516 93.55L189.736 94.26C189.496 93.89 189.036 93.64 188.466 93.64C187.376 93.64 187.096 94.32 187.096 94.73C187.096 95.33 187.506 95.65 188.156 95.85L189.046 96.14C190.036 96.46 190.586 96.99 190.586 97.99C190.586 99.3 189.556 100.18 188.126 100.18C187.126 100.18 186.326 99.82 185.866 99.2L186.656 98.52C186.966 99 187.536 99.28 188.156 99.28C188.866 99.28 189.566 98.83 189.566 98.1C189.566 97.61 189.276 97.3 188.416 97.03L187.786 96.82C186.816 96.51 186.076 96 186.076 94.73C186.076 93.79 186.876 92.74 188.476 92.74ZM191.773 95.26H192.673V98.1C192.673 98.84 193.083 99.28 193.753 99.28C194.593 99.28 195.073 98.68 195.073 97.74V95.26H195.973V100H195.073V99.27H195.053C194.803 99.8 194.193 100.12 193.493 100.12C192.443 100.12 191.773 99.42 191.773 98.35V95.26ZM197.33 95.26H198.23V95.99H198.25C198.5 95.46 199.12 95.14 199.81 95.14C200.87 95.14 201.53 95.84 201.53 96.91V100H200.63V97.17C200.63 96.44 200.23 95.98 199.55 95.98C198.72 95.98 198.23 96.57 198.23 97.52V100H197.33V95.26Z" fill="#EF4452"/>
<path d="M89.0246 5.37L91.8746 0.92H93.2346V5.48H94.2646V6.56H93.2346V8H92.0346V6.56H89.0246V5.37ZM92.0146 2.62L90.2446 5.48H92.0346V2.62H92.0146ZM97.5625 0.8C98.8225 0.8 99.7325 1.52 99.7325 2.66C99.7325 3.44 99.3425 4.05 98.6625 4.25V4.27C99.3825 4.41 99.9525 5.17 99.9525 5.99C99.9525 7.31 98.9725 8.12 97.5625 8.12C96.1625 8.12 95.1725 7.33 95.1725 5.99C95.1725 5.16 95.7325 4.43 96.4625 4.27V4.25C95.7925 4.06 95.3925 3.44 95.3925 2.66C95.3925 1.51 96.3025 0.8 97.5625 0.8ZM96.5925 2.78C96.5925 3.35 96.9825 3.77 97.5625 3.77C98.1025 3.77 98.5325 3.34 98.5325 2.78C98.5325 2.24 98.1125 1.82 97.5525 1.82C96.9625 1.82 96.5925 2.23 96.5925 2.78ZM96.3725 5.84C96.3725 6.52 96.8725 6.98 97.5625 6.98C98.2525 6.98 98.7525 6.52 98.7525 5.84C98.7525 5.18 98.2125 4.73 97.5525 4.73C96.9225 4.73 96.3725 5.2 96.3725 5.84ZM102.001 6.52C102.421 6.52 102.801 6.84 102.801 7.28C102.801 7.72 102.431 8.06 102.001 8.06C101.581 8.06 101.201 7.73 101.201 7.3C101.201 6.86 101.571 6.52 102.001 6.52ZM108.709 0.92V2.02L105.879 8H104.469L107.359 2.06H103.899V0.92H108.709ZM114.447 0.92V2H111.597L111.567 3.41C111.747 3.36 112.007 3.32 112.327 3.32C113.717 3.32 114.687 4.24 114.687 5.67C114.687 7.15 113.617 8.12 112.127 8.12C110.977 8.12 110.157 7.56 109.837 6.5L111.097 6.16C111.267 6.68 111.647 6.98 112.257 6.98C112.967 6.98 113.487 6.46 113.487 5.77C113.487 4.87 112.837 4.4 111.827 4.4C111.307 4.4 110.777 4.53 110.347 4.74L110.417 0.92H114.447Z" fill="#2A2E39"/>
<defs>
<linearGradient id="paint0_linear_145_758" x1="11.8024" y1="83.9999" x2="11.8024" y2="67.102" gradientUnits="userSpaceOnUse">
<stop stop-color="#FF0A5C"/>
<stop stop-color="#FF0A5C"/>
<stop offset="1" stop-color="#F36060"/>
</linearGradient>
<linearGradient id="paint1_linear_145_758" x1="42.2594" y1="83.9999" x2="42.2594" y2="57.551" gradientUnits="userSpaceOnUse">
<stop stop-color="#FF0A5C"/>
<stop stop-color="#FF0A5C"/>
<stop offset="1" stop-color="#F36060"/>
</linearGradient>
<linearGradient id="paint2_linear_145_758" x1="72.7167" y1="84" x2="72.7167" y2="39.1837" gradientUnits="userSpaceOnUse">
<stop stop-color="#FF0A5C"/>
<stop stop-color="#FF0A5C"/>
<stop offset="1" stop-color="#F36060"/>
</linearGradient>
<linearGradient id="paint3_linear_145_758" x1="132.459" y1="83.8775" x2="132.459" y2="26.5714" gradientUnits="userSpaceOnUse">
<stop stop-color="#FF0A5C"/>
<stop stop-color="#FF0A5C"/>
<stop offset="1" stop-color="#F36060"/>
</linearGradient>
<linearGradient id="paint4_linear_145_758" x1="162.917" y1="83.8776" x2="162.917" y2="57.4286" gradientUnits="userSpaceOnUse">
<stop stop-color="#FF0A5C"/>
<stop stop-color="#FF0A5C"/>
<stop offset="1" stop-color="#F36060"/>
</linearGradient>
<linearGradient id="paint5_linear_145_758" x1="193.374" y1="84" x2="193.374" y2="33.3061" gradientUnits="userSpaceOnUse">
<stop stop-color="#FF0A5C"/>
<stop stop-color="#FF0A5C"/>
<stop offset="1" stop-color="#F36060"/>
</linearGradient>
</defs>
</svg>
