<svg width="72" height="72" viewBox="0 0 72 72" fill="none" xmlns="http://www.w3.org/2000/svg">
<path d="M23.2056 37.264L22.2676 38.902C21.7076 38.524 21.1056 38.23 20.5316 38.076V40.204C22.6596 40.778 23.5696 41.632 23.5696 43.2V43.228C23.5696 44.796 22.3656 45.804 20.6016 45.986V47.372H19.1456V45.958C17.9416 45.804 16.7656 45.328 15.8416 44.628L16.9336 43.032C17.6896 43.606 18.3896 43.998 19.2156 44.166V41.94C17.1996 41.394 16.2056 40.638 16.2056 38.972V38.944C16.2056 37.404 17.3816 36.382 19.1456 36.2V35.388H20.6016V36.242C21.5956 36.368 22.4356 36.732 23.2056 37.264ZM21.5256 43.312C21.5256 42.85 21.2876 42.556 20.5316 42.276V44.236C21.1896 44.138 21.5256 43.844 21.5256 43.34V43.312ZM18.2496 38.846C18.2496 39.294 18.4456 39.574 19.2156 39.854V37.95C18.5296 38.034 18.2496 38.37 18.2496 38.818V38.846ZM29.3724 46.168C26.7544 46.168 25.0324 43.97 25.0324 41.128V41.1C25.0324 38.258 26.7964 36.032 29.4004 36.032C31.9904 36.032 33.7404 38.23 33.7404 41.072V41.1C33.7404 43.942 31.9904 46.168 29.3724 46.168ZM29.4004 44.222C30.7024 44.222 31.5284 42.906 31.5284 41.128V41.1C31.5284 39.322 30.6604 37.978 29.3724 37.978C28.0844 37.978 27.2444 39.28 27.2444 41.072V41.1C27.2444 42.892 28.0984 44.222 29.4004 44.222ZM35.0975 46V43.76H37.3655V46H35.0975ZM43.0579 46.168C40.4399 46.168 38.7179 43.97 38.7179 41.128V41.1C38.7179 38.258 40.4819 36.032 43.0859 36.032C45.6759 36.032 47.4259 38.23 47.4259 41.072V41.1C47.4259 43.942 45.6759 46.168 43.0579 46.168ZM43.0859 44.222C44.3879 44.222 45.2139 42.906 45.2139 41.128V41.1C45.2139 39.322 44.3459 37.978 43.0579 37.978C41.7699 37.978 40.9299 39.28 40.9299 41.072V41.1C40.9299 42.892 41.7839 44.222 43.0859 44.222ZM48.7378 46V44.292L51.9998 41.618C53.2178 40.61 53.6938 40.078 53.6938 39.266C53.6938 38.44 53.1478 37.992 52.3778 37.992C51.6218 37.992 51.1038 38.412 50.3758 39.308L48.8638 38.09C49.8298 36.774 50.7678 36.06 52.5178 36.06C54.5478 36.06 55.8918 37.25 55.8918 39.084V39.112C55.8918 40.75 55.0518 41.562 53.3158 42.906L51.7198 44.138H55.9898V46H48.7378Z" fill="#2A2E39"/>
<path d="M23.4961 31V23.92H28.1861V25.06H24.7561V26.8H28.0061V27.94H24.7561V29.86H28.3661V31H23.4961ZM30.2293 31H28.8193L31.8993 23.92H32.9893L36.0393 31H34.5993L33.9393 29.38H30.8693L30.2293 31ZM32.4093 25.42L31.2993 28.3H33.4993L32.4093 25.42ZM38.0861 31H36.8261V23.92H39.3261C40.6861 23.92 41.9261 24.4 41.9261 25.95C41.9261 27.01 41.2861 27.73 40.2861 27.87L42.1661 31H40.6461L39.0061 28H38.0861V31ZM38.0861 25V26.92H39.1261C39.8461 26.92 40.6061 26.82 40.6061 25.94C40.6061 25.13 39.8761 25 39.2161 25H38.0861ZM44.385 31H43.125V23.92H44.795L48.225 29.18H48.245V23.92H49.505V31H47.905L44.405 25.57H44.385V31Z" fill="#EF4452"/>
<path d="M71.9999 35.9999C71.9999 55.8821 55.8821 71.9998 35.9999 71.9998C16.1177 71.9998 0 55.8821 0 35.9999C0 16.1177 16.1177 0 35.9999 0C55.8821 0 71.9999 16.1177 71.9999 35.9999ZM7.19999 35.9999C7.19999 51.9057 20.0942 64.7999 35.9999 64.7999C51.9057 64.7999 64.7999 51.9057 64.7999 35.9999C64.7999 20.0942 51.9057 7.19998 35.9999 7.19998C20.0942 7.19998 7.19999 20.0942 7.19999 35.9999Z" fill="#E1E4EE"/>
<path d="M36.0001 3.60002C36.0001 1.6118 34.3842 -0.0186446 32.4059 0.179796C24.3887 0.984011 16.8333 4.46154 10.9883 10.1078C4.27627 16.5916 0.344381 25.4284 0.0216735 34.7551C-0.301034 44.0817 3.01066 53.1692 9.25846 60.1014C15.5063 67.0336 24.2019 71.2688 33.5118 71.9138C42.8217 72.5588 52.0183 69.5633 59.1624 63.559C66.3065 57.5546 70.8398 49.0107 71.8064 39.7286C72.773 30.4466 70.0973 21.1519 64.3436 13.8045C59.3331 7.40612 52.3294 2.91987 44.4997 1.01772C42.5677 0.548349 40.7424 1.94038 40.4682 3.9096C40.1941 5.87882 41.5776 7.67533 43.4973 8.19287C49.479 9.8055 54.8159 13.3156 58.6749 18.2436C63.2779 24.1215 65.4184 31.5573 64.6451 38.9829C63.8719 46.4085 60.2452 53.2437 54.5299 58.0472C48.8147 62.8507 41.4574 65.247 34.0095 64.731C26.5615 64.215 19.605 60.8269 14.6068 55.2811C9.60854 49.7354 6.95919 42.4654 7.21735 35.0041C7.47552 27.5427 10.621 20.4732 15.9906 15.2862C20.4924 10.9376 26.2624 8.19696 32.4093 7.42465C34.382 7.17679 36.0001 5.58824 36.0001 3.60002Z" fill="#4CBB17"/>
</svg>
