<svg width="22" height="22" viewBox="0 0 22 22" fill="none" xmlns="http://www.w3.org/2000/svg">
<path d="M13.6582 6.2132H13.6682M11.1582 19.2132H4.6582C3.86255 19.2132 3.09949 18.8971 2.53688 18.3345C1.97427 17.7719 1.6582 17.0088 1.6582 16.2132V4.2132C1.6582 3.41755 1.97427 2.65448 2.53688 2.09188C3.09949 1.52927 3.86255 1.2132 4.6582 1.2132H16.6582C17.4539 1.2132 18.2169 1.52927 18.7795 2.09188C19.3421 2.65448 19.6582 3.41755 19.6582 4.2132V10.7132" stroke="black" stroke-width="2" stroke-linecap="round" stroke-linejoin="round"/>
<path d="M1.6582 14.2132L6.6582 9.21321C7.5862 8.32021 8.7302 8.32021 9.6582 9.21321L13.1582 12.7132" stroke="black" stroke-width="2" stroke-linecap="round" stroke-linejoin="round"/>
<path d="M12.6582 12.2132L13.6582 11.2132C14.3372 10.5602 15.1312 10.3842 15.8722 10.6872M17.6582 20.2132V14.2132M17.6582 14.2132L20.6582 17.2132M17.6582 14.2132L14.6582 17.2132" stroke="black" stroke-width="2" stroke-linecap="round" stroke-linejoin="round"/>
</svg>
