<svg width="14" height="10" viewBox="0 0 14 10" fill="none" xmlns="http://www.w3.org/2000/svg">
<g id="Group 1000001761">
<path id="Vector" d="M7.15358 6.86943C8.14125 6.86943 8.94192 6.06876 8.94192 5.08109C8.94192 4.09342 8.14125 3.29275 7.15358 3.29275C6.1659 3.29275 5.36523 4.09342 5.36523 5.08109C5.36523 6.06876 6.1659 6.86943 7.15358 6.86943Z" fill="#FDEFEF"/>
<path id="Vector_2" d="M13.8328 4.92908C13.307 3.56889 12.3941 2.39259 11.207 1.54557C10.0199 0.698556 8.61062 0.217948 7.15335 0.163147C5.69609 0.217948 4.28682 0.698556 3.09972 1.54557C1.91263 2.39259 0.999745 3.56889 0.473901 4.92908C0.438387 5.0273 0.438387 5.13487 0.473901 5.23309C0.999745 6.59328 1.91263 7.76958 3.09972 8.6166C4.28682 9.46361 5.69609 9.94422 7.15335 9.99902C8.61062 9.94422 10.0199 9.46361 11.207 8.6166C12.3941 7.76958 13.307 6.59328 13.8328 5.23309C13.8683 5.13487 13.8683 5.0273 13.8328 4.92908ZM7.15335 7.98714C6.57859 7.98714 6.01674 7.8167 5.53884 7.49738C5.06094 7.17806 4.68846 6.7242 4.46851 6.19318C4.24856 5.66217 4.19101 5.07786 4.30314 4.51414C4.41527 3.95042 4.69204 3.43261 5.09846 3.02619C5.50488 2.61978 6.02269 2.343 6.58641 2.23087C7.15013 2.11874 7.73444 2.17629 8.26545 2.39624C8.79647 2.61619 9.25033 2.98867 9.56965 3.46657C9.88897 3.94447 10.0594 4.50632 10.0594 5.08109C10.0582 5.85146 9.75167 6.58994 9.20694 7.13467C8.6622 7.6794 7.92373 7.98596 7.15335 7.98714Z" fill="#FDEFEF"/>
</g>
</svg>
