<svg width="15" height="15" viewBox="0 0 15 15" fill="none" xmlns="http://www.w3.org/2000/svg">
<g id="Edit Square">
<g id="Vector">
<path fill-rule="evenodd" clip-rule="evenodd" d="M11.1518 0.833313C10.7224 0.833313 10.3677 1.01298 10.0319 1.26914C9.71385 1.51182 9.36067 1.86502 8.93714 2.28858L5.28319 5.94247C5.0026 6.2226 4.78074 6.4441 4.64468 6.7272C4.50861 7.0103 4.47425 7.32191 4.43079 7.716L4.41899 7.82251C4.3377 8.55396 4.27069 9.15688 4.28603 9.6318C4.30207 10.1285 4.40941 10.5835 4.765 10.9391C5.1206 11.2947 5.57556 11.402 6.07226 11.418C6.54718 11.4334 7.15008 11.3664 7.88152 11.2851L7.98808 11.2733C8.38215 11.2298 8.69377 11.1954 8.97686 11.0594C9.25996 10.9233 9.48145 10.7015 9.76158 10.4209L13.4155 6.76693C13.839 6.34339 14.1922 5.99022 14.4349 5.67214C14.6911 5.3364 14.8707 4.98168 14.8707 4.55226C14.8707 4.12284 14.6911 3.76813 14.4349 3.43239C14.1922 3.11431 13.839 2.76114 13.4155 2.3376L13.3665 2.2886C12.9429 1.86503 12.5898 1.51182 12.2717 1.26914C11.9359 1.01298 11.5812 0.833313 11.1518 0.833313ZM13.0366 5.72992L9.97414 2.6675C10.2446 2.40106 10.4537 2.20513 10.6385 2.06416C10.8853 1.87587 11.0289 1.83331 11.1518 1.83331C11.2747 1.83331 11.4183 1.87587 11.6651 2.06416C11.9234 2.26125 12.2294 2.56576 12.6839 3.0202C13.1383 3.47464 13.4428 3.78065 13.6399 4.03897C13.8282 4.28575 13.8707 4.4294 13.8707 4.55226C13.8707 4.67513 13.8282 4.81877 13.6399 5.06556C13.4989 5.25032 13.303 5.45949 13.0366 5.72992ZM9.26618 3.37375L12.3303 6.43788L9.10266 9.66553C8.75103 10.0172 8.65386 10.1051 8.54368 10.1581C8.43349 10.211 8.3041 10.232 7.80986 10.2869C7.02987 10.3735 6.499 10.4313 6.10453 10.4186C5.72349 10.4063 5.56965 10.3295 5.47211 10.232C5.37457 10.1344 5.29781 9.98057 5.28551 9.59953C5.27277 9.20506 5.33051 8.67419 5.41718 7.8942C5.4721 7.39996 5.49302 7.27057 5.54598 7.16039C5.59894 7.0502 5.6869 6.95303 6.03853 6.6014L9.26618 3.37375Z" fill="#9399AA"/>
<path d="M6.00603 2.61896C6.28216 2.61564 6.50331 2.38912 6.5 2.113C6.49669 1.83688 6.27017 1.61572 5.99405 1.61903C4.37637 1.63842 3.266 1.72693 2.41353 2.34629C2.0881 2.58273 1.80191 2.86891 1.56548 3.19434C1.17492 3.73189 1.00004 4.36148 0.915859 5.1385C0.833364 5.89993 0.833369 6.85966 0.833374 8.08402V8.14435C0.833369 9.36871 0.833364 10.3284 0.91586 11.0899C1.00004 11.8669 1.17492 12.4965 1.56548 13.034C1.80191 13.3595 2.0881 13.6456 2.41353 13.8821C2.95108 14.2726 3.58067 14.4475 4.35769 14.5317C5.1191 14.6142 6.07882 14.6142 7.30314 14.6142H7.36356C8.58788 14.6142 9.54765 14.6142 10.3091 14.5317C11.0861 14.4475 11.7157 14.2726 12.2532 13.8821C12.5786 13.6456 12.8648 13.3595 13.1013 13.034C13.7206 12.1816 13.8091 11.0712 13.8285 9.45351C13.8318 9.17739 13.6107 8.95087 13.3346 8.94756C13.0584 8.94425 12.8319 9.1654 12.8286 9.44153C12.8086 11.1087 12.6964 11.89 12.2923 12.4462C12.1175 12.6868 11.906 12.8983 11.6654 13.0731C11.3268 13.3191 10.8933 13.4626 10.2013 13.5375C9.50005 13.6135 8.59442 13.6142 7.33337 13.6142C6.07233 13.6142 5.1667 13.6135 4.4654 13.5375C3.77346 13.4626 3.33999 13.3191 3.00132 13.0731C2.76078 12.8983 2.54925 12.6868 2.37449 12.4462C2.12844 12.1076 1.98501 11.6741 1.91004 10.9822C1.83406 10.2809 1.83337 9.37523 1.83337 8.11419C1.83337 6.85314 1.83406 5.94752 1.91004 5.24622C1.98501 4.55428 2.12844 4.1208 2.37449 3.78213C2.54925 3.54159 2.76078 3.33006 3.00132 3.15531C3.55755 2.75118 4.33883 2.63894 6.00603 2.61896Z" fill="#9399AA"/>
</g>
</g>
</svg>
