<svg width="15" height="14" viewBox="0 0 15 14" fill="none" xmlns="http://www.w3.org/2000/svg">
<path fill-rule="evenodd" clip-rule="evenodd" d="M13.9792 3.90953C14.3867 1.78513 12.5216 -0.0799489 10.3972 0.327477L4.29782 1.49724C2.97193 1.75152 1.91156 2.75516 1.57468 4.05927C0.902075 6.66299 3.31677 9.04262 5.90949 8.28016C5.98109 8.2591 6.04762 8.32562 6.02656 8.39722C5.26411 10.99 7.64373 13.4047 10.2475 12.7321C11.5516 12.3952 12.5552 11.3348 12.8095 10.0089L13.9792 3.90953ZM10.5855 1.30958C12.0158 1.03528 13.2714 2.29094 12.9971 3.72118L11.8274 9.82056C11.6465 10.7638 10.9303 11.5228 9.99735 11.7638C8.1326 12.2456 6.44633 10.5143 6.98594 8.67935C7.23029 7.84843 6.45829 7.07643 5.62736 7.32078C3.79243 7.8604 2.06119 6.17413 2.5429 4.30938C2.7839 3.37643 3.54292 2.66024 4.48617 2.47934L10.5855 1.30958Z" fill="#550592"/>
<path d="M2.29636 9.88906C2.49162 9.6938 2.49162 9.37721 2.29636 9.18195C2.1011 8.98669 1.78452 8.98669 1.58926 9.18195L0.646447 10.1248C0.451184 10.32 0.451184 10.6366 0.646447 10.8319C0.841709 11.0271 1.15829 11.0271 1.35355 10.8319L2.29636 9.88906Z" fill="#550592"/>
<path d="M4.65338 10.3605C4.84865 10.1652 4.84865 9.84862 4.65338 9.65336C4.45812 9.45809 4.14154 9.45809 3.94628 9.65336L3.00347 10.5962C2.80821 10.7914 2.80821 11.108 3.00347 11.3033C3.19873 11.4985 3.51531 11.4985 3.71058 11.3033L4.65338 10.3605Z" fill="#550592"/>
<path d="M5.12479 12.7175C5.32005 12.5222 5.32005 12.2056 5.12479 12.0104C4.92953 11.8151 4.61294 11.8151 4.41768 12.0104L3.47487 12.9532C3.27961 13.1484 3.27961 13.465 3.47487 13.6603C3.67014 13.8556 3.98672 13.8556 4.18198 13.6603L5.12479 12.7175Z" fill="#550592"/>
</svg>
