<svg width="19" height="19" viewBox="0 0 19 19" fill="currentColor" xmlns="http://www.w3.org/2000/svg">
<path fill-rule="evenodd" clip-rule="evenodd" d="M9.47729 0.424561C10.0036 0.424561 10.4303 0.851215 10.4303 1.37752V2.71652C11.8471 2.92101 13.17 3.57776 14.1942 4.60194C15.2184 5.62612 15.8751 6.94904 16.0796 8.36589H17.4186C17.9449 8.36589 18.3716 8.79254 18.3716 9.31885C18.3716 9.84515 17.9449 10.2718 17.4186 10.2718H16.0796C15.938 11.2528 15.5789 12.1941 15.0238 13.0249C14.2908 14.1219 13.249 14.9769 12.0301 15.4818C11.5144 15.6954 10.9769 15.8423 10.4303 15.9211V17.2602C10.4303 17.7865 10.0036 18.2131 9.47729 18.2131C8.95099 18.2131 8.52434 17.7865 8.52434 17.2602V15.9211C8.40789 15.9043 8.29171 15.8844 8.1759 15.8614C6.88191 15.604 5.6933 14.9687 4.76039 14.0358C3.82747 13.1028 3.19215 11.9142 2.93476 10.6202C2.91172 10.5044 2.8918 10.3882 2.875 10.2718H1.53597C1.00966 10.2718 0.583008 9.84515 0.583008 9.31885C0.583008 8.79254 1.00966 8.36589 1.53597 8.36589H2.875C2.95389 7.81928 3.10077 7.28173 3.31436 6.76608C3.81925 5.54716 4.67425 4.50534 5.77124 3.77235C6.60202 3.21724 7.54333 2.85815 8.52434 2.71655V1.37752C8.52434 0.851215 8.95099 0.424561 9.47729 0.424561ZM9.47729 4.55405C8.53491 4.55405 7.61368 4.8335 6.83012 5.35706C6.04655 5.88063 5.43583 6.62479 5.0752 7.49544C4.71456 8.36609 4.6202 9.32413 4.80405 10.2484C4.9879 11.1727 5.44171 12.0217 6.10808 12.6881C6.77444 13.3544 7.62345 13.8082 8.54773 13.9921C9.47201 14.1759 10.4301 14.0816 11.3007 13.7209C12.1714 13.3603 12.9155 12.7496 13.4391 11.966C13.9626 11.1825 14.2421 10.2612 14.2421 9.31885C14.2421 8.05515 13.7401 6.8432 12.8465 5.94963C11.9529 5.05605 10.741 4.55405 9.47729 4.55405Z" fill="white"/>
</svg>
