<svg width="38" height="38" viewBox="0 0 38 38" fill="none" xmlns="http://www.w3.org/2000/svg">
<path d="M9.15331 20.8831H2.38613C1.37105 20.8831 0.694336 21.5598 0.694336 22.5749V36.1092C0.694336 37.1243 1.37105 37.801 2.38613 37.801H9.15331C10.1684 37.801 10.8451 37.1243 10.8451 36.1092V22.5749C10.8451 21.5598 10.1684 20.8831 9.15331 20.8831ZM36.222 14.1159H29.4548C28.4398 14.1159 27.7631 14.7926 27.7631 15.8077V36.1092C27.7631 37.1243 28.4398 37.801 29.4548 37.801H36.222C37.2371 37.801 37.9138 37.1243 37.9138 36.1092V15.8077C37.9138 14.7926 37.2371 14.1159 36.222 14.1159ZM22.6877 0.581543H15.9205C14.9054 0.581543 14.2287 1.25826 14.2287 2.27334V36.1092C14.2287 37.1243 14.9054 37.801 15.9205 37.801H22.6877C23.7027 37.801 24.3795 37.1243 24.3795 36.1092V2.27334C24.3795 1.25826 23.7027 0.581543 22.6877 0.581543Z" fill="#FEFBFA"/>
</svg>
