<svg width="10" height="10" viewBox="0 0 10 10" fill="none" xmlns="http://www.w3.org/2000/svg">
<path d="M9.75119 4.49134L5.79286 0.533009C5.71757 0.460935 5.62879 0.404438 5.53161 0.366759C5.33887 0.287578 5.12269 0.287578 4.92994 0.366759C4.83277 0.404438 4.74399 0.460935 4.66869 0.533009L0.710362 4.49134C0.636548 4.56516 0.577996 4.65279 0.538048 4.74923C0.4981 4.84567 0.477539 4.94904 0.477539 5.05343C0.477539 5.26425 0.561288 5.46643 0.710362 5.61551C0.859435 5.76458 1.06162 5.84833 1.27245 5.84833C1.48327 5.84833 1.68545 5.76458 1.83453 5.61551L4.43911 3.00301V9.01176C4.43911 9.22172 4.52252 9.42309 4.67099 9.57155C4.81945 9.72002 5.02082 9.80342 5.23078 9.80342C5.44074 9.80342 5.64211 9.72002 5.79057 9.57155C5.93904 9.42309 6.02245 9.22172 6.02245 9.01176V3.00301L8.62703 5.61551C8.70062 5.68971 8.78818 5.74861 8.88465 5.7888C8.98113 5.82899 9.0846 5.84968 9.18911 5.84968C9.29362 5.84968 9.3971 5.82899 9.49357 5.7888C9.59004 5.74861 9.6776 5.68971 9.75119 5.61551C9.8254 5.54191 9.88429 5.45435 9.92448 5.35788C9.96468 5.26141 9.98537 5.15793 9.98537 5.05343C9.98537 4.94892 9.96468 4.84544 9.92448 4.74897C9.88429 4.6525 9.8254 4.56494 9.75119 4.49134Z" fill="#FAF9FE"/>
</svg>
