<svg width="18" height="18" viewBox="0 0 18 18" fill="none" xmlns="http://www.w3.org/2000/svg">
<path fill-rule="evenodd" clip-rule="evenodd" d="M16.3725 2.27964C15.2661 1.15144 14.0346 0.802424 12.878 0.887094C11.7527 0.969474 10.7393 1.45762 9.99908 1.92714C9.41538 2.29741 8.58454 2.29741 8.00084 1.92714C7.26066 1.45762 6.24725 0.969485 5.12195 0.887107C3.96537 0.802438 2.73379 1.15146 1.6275 2.27964C0.321431 3.61155 -0.0883329 5.25574 0.076212 6.91888C0.23886 8.56285 0.959968 10.234 1.92173 11.7149C2.88606 13.1996 4.11788 14.5327 5.35369 15.5006C6.56231 16.4473 7.87734 17.125 8.99999 17.125C10.1226 17.125 11.4377 16.4473 12.6463 15.5006C13.8821 14.5327 15.1139 13.1996 16.0782 11.7149C17.04 10.234 17.7611 8.56285 17.9237 6.91888C18.0883 5.25574 17.6785 3.61155 16.3725 2.27964ZM10.6687 2.98268C11.3232 2.56748 12.1334 2.19495 12.9693 2.13376C13.7739 2.07485 14.6411 2.29936 15.48 3.15482C16.4826 4.17735 16.8146 5.43323 16.6798 6.79581C16.5431 8.17756 15.9238 9.65775 15.0299 11.034C14.1386 12.4063 12.9997 13.636 11.8755 14.5166C10.7241 15.4184 9.6899 15.875 8.99999 15.875C8.31008 15.875 7.27586 15.4184 6.12447 14.5166C5.00026 13.636 3.86131 12.4063 2.97003 11.034C2.07618 9.65775 1.45684 8.17756 1.32014 6.79581C1.18533 5.43323 1.5173 4.17736 2.52 3.15483C3.35885 2.29937 4.22608 2.07487 5.03068 2.13377C5.86656 2.19496 6.67672 2.56749 7.33126 2.98269C8.3237 3.61223 9.67622 3.61223 10.6687 2.98268Z" fill="currentColor"/>
</svg>
