<svg width="16" height="16" viewBox="0 0 16 16" fill="none" xmlns="http://www.w3.org/2000/svg">
<g clip-path="url(#clip0_285_806)">
<path d="M11.2801 9.74002C10.9534 10.0334 10.4067 10.04 9.76006 9.79336C8.90673 9.4867 7.88673 8.74669 6.96673 7.72002C6.05339 6.69335 5.43338 5.59336 5.22004 4.70669C5.05338 4.04003 5.12671 3.50003 5.45338 3.20669C6.22671 2.52003 8.15338 3.42002 9.76671 5.22002C11.38 7.02002 12.0534 9.0467 11.2801 9.73337V9.74002Z" stroke="#2A2E39" stroke-miterlimit="10" stroke-linecap="round"/>
<path d="M5.24004 3.52667L2.1134 10.5333C1.6734 11.5133 2.60673 12.5533 3.63339 12.2333L10.9534 9.92" stroke="#2A2E39" stroke-miterlimit="10" stroke-linecap="round"/>
<path d="M4.42676 12.0533L4.78009 13.18C4.97342 13.7933 5.64008 14.14 6.25342 13.9467L7.38009 13.5934C7.99342 13.4 8.34008 12.7333 8.14675 12.12L7.79342 10.9933" stroke="#2A2E39" stroke-miterlimit="10" stroke-linecap="round"/>
<path d="M13.4266 2.62L12.84 3.21334" stroke="#2A2E39" stroke-miterlimit="10" stroke-linecap="round"/>
<path d="M10.4 2L10.1267 2.6" stroke="#2A2E39" stroke-miterlimit="10" stroke-linecap="round"/>
<path d="M13.9999 5.59998L13.4399 5.89998" stroke="#2A2E39" stroke-miterlimit="10" stroke-linecap="round"/>
</g>
<defs>
<clipPath id="clip0_285_806">
<rect width="16" height="16" fill="white"/>
</clipPath>
</defs>
</svg>
