<svg width="13" height="13" viewBox="0 0 13 13" fill="none" xmlns="http://www.w3.org/2000/svg">
<g clip-path="url(#clip0_371_1258)">
<path fill-rule="evenodd" clip-rule="evenodd" d="M9.53337 3.25V5.28125H10.8334C11.1781 5.28125 11.5088 5.40965 11.7526 5.63821C11.9964 5.86677 12.1334 6.17677 12.1334 6.5V11.375C12.1334 11.6982 11.9964 12.0082 11.7526 12.2368C11.5088 12.4653 11.1781 12.5938 10.8334 12.5938H2.1667C1.82192 12.5938 1.49126 12.4653 1.24746 12.2368C1.00366 12.0082 0.866699 11.6982 0.866699 11.375V6.5C0.866699 6.17677 1.00366 5.86677 1.24746 5.63821C1.49126 5.40965 1.82192 5.28125 2.1667 5.28125H3.4667V3.25C3.4667 2.49579 3.78628 1.77247 4.35514 1.23917C4.924 0.705858 5.69554 0.40625 6.50003 0.40625C7.30452 0.40625 8.07606 0.705858 8.64492 1.23917C9.21378 1.77247 9.53337 2.49579 9.53337 3.25ZM4.33337 3.25C4.33337 2.71128 4.56164 2.19462 4.96797 1.81369C5.3743 1.43276 5.9254 1.21875 6.50003 1.21875C7.07467 1.21875 7.62577 1.43276 8.0321 1.81369C8.43843 2.19462 8.6667 2.71128 8.6667 3.25V5.28125H4.33337V3.25Z" fill="white"/>
</g>
<defs>
<clipPath id="clip0_371_1258">
<rect width="13" height="13" fill="white"/>
</clipPath>
</defs>
</svg>
