<svg width="9" height="17" viewBox="0 0 9 17" fill="black" xmlns="http://www.w3.org/2000/svg">
<path d="M0.490351 15.8263C0.283242 15.6003 0.166895 15.2938 0.166895 14.9743C0.166895 14.6547 0.283242 14.3482 0.490351 14.1222L5.95886 8.15657L0.49035 2.19092C0.289111 1.96362 0.177759 1.65919 0.180275 1.3432C0.182792 1.0272 0.298977 0.724926 0.503807 0.501477C0.708637 0.278026 0.985722 0.15128 1.27538 0.148533C1.56505 0.145789 1.84411 0.267264 2.05246 0.486797L8.30203 7.3045C8.50914 7.53051 8.62549 7.837 8.62549 8.15657C8.62549 8.47614 8.50914 8.78263 8.30203 9.00863L2.05247 15.8263C1.84529 16.0523 1.56435 16.1792 1.27141 16.1792C0.978468 16.1792 0.697522 16.0523 0.490351 15.8263Z" fill="black"/>
</svg>
