<svg width="23" height="23" viewBox="0 0 23 23" fill="none" xmlns="http://www.w3.org/2000/svg">
<path d="M0.863646 14.5462L1.45505 16.7562C2.14597 19.3357 2.49258 20.6261 3.27616 21.4623C3.89461 22.1221 4.69471 22.5838 5.57542 22.7892C6.69188 23.05 7.98221 22.7045 10.5629 22.0136C13.1413 21.3227 14.4316 20.9772 15.2678 20.1937C15.3364 20.1285 15.4051 20.061 15.4691 19.9923C15.0796 19.9569 14.6923 19.8996 14.3092 19.8207C13.513 19.6629 12.567 19.4089 11.4483 19.1092L11.3259 19.0761L11.2973 19.0692C10.0801 18.742 9.06321 18.4698 8.25103 18.1769C7.39653 17.8681 6.62096 17.4872 5.96092 16.8694C5.05302 16.0188 4.41769 14.9182 4.13523 13.7065C3.92933 12.8269 3.98881 11.9644 4.14896 11.071C4.30225 10.2142 4.57679 9.18693 4.90623 7.95723L5.51822 5.67626L5.53882 5.59619C3.3425 6.18759 2.18601 6.53763 1.41501 7.25944C0.754394 7.87836 0.292207 8.67932 0.0869298 9.56099C-0.173882 10.6763 0.171579 11.9666 0.863646 14.5462Z" fill="white"/>
<path fill-rule="evenodd" clip-rule="evenodd" d="M21.54 9.96919L20.9475 12.1792C20.2554 14.7587 19.91 16.0491 19.1264 16.8853C18.5081 17.5455 17.708 18.0077 16.8271 18.2134C16.7161 18.2397 16.604 18.2591 16.4897 18.2728C15.443 18.4021 14.1652 18.0601 11.8408 17.4378C9.26127 16.7457 7.97094 16.4003 7.13474 15.6167C6.47432 14.9981 6.01214 14.1975 5.80666 13.3163C5.54584 12.1998 5.89131 10.9106 6.58337 8.3311L7.17478 6.12107L7.45389 5.08583C7.97437 3.18007 8.32441 2.1311 8.99588 1.41387C9.61434 0.754059 10.4144 0.292308 11.2951 0.0869298C12.4116 -0.173882 13.7019 0.171579 16.2826 0.863646C18.861 1.55457 20.1513 1.90003 20.9875 2.68247C21.6481 3.30139 22.1103 4.10235 22.3156 4.98402C22.5764 6.10048 22.2309 7.38967 21.54 9.96919ZM10.3549 8.92823C10.384 8.81938 10.4344 8.71735 10.503 8.62797C10.5717 8.53859 10.6573 8.46361 10.7549 8.40731C10.8525 8.351 10.9603 8.31449 11.072 8.29984C11.1837 8.2852 11.2973 8.29271 11.4061 8.32195L16.9312 9.80332C17.0429 9.82981 17.1482 9.87845 17.2407 9.94635C17.3333 10.0143 17.4113 10.1001 17.4701 10.1987C17.5289 10.2973 17.5673 10.4067 17.5831 10.5204C17.5988 10.6341 17.5916 10.7498 17.5618 10.8607C17.532 10.9716 17.4803 11.0753 17.4097 11.1659C17.3391 11.2564 17.251 11.3318 17.1507 11.3876C17.0504 11.4435 16.9399 11.4787 16.8258 11.491C16.7116 11.5034 16.5962 11.4928 16.4862 11.4597L10.9611 9.97948C10.7416 9.9205 10.5544 9.77678 10.4407 9.57988C10.327 9.38298 10.2961 9.14787 10.3549 8.92823ZM9.46718 12.2433C9.52616 12.0237 9.66988 11.8365 9.86678 11.7229C10.0637 11.6092 10.2976 11.5783 10.5173 11.637L13.8323 12.5258C13.9446 12.5517 14.0505 12.6 14.1437 12.6677C14.2369 12.7354 14.3155 12.8212 14.3748 12.9199C14.4341 13.0186 14.473 13.1283 14.489 13.2424C14.505 13.3564 14.4979 13.4726 14.4681 13.5838C14.4383 13.6951 14.3864 13.7992 14.3155 13.89C14.2445 13.9808 14.1561 14.0563 14.0553 14.1122C13.9546 14.168 13.8436 14.203 13.729 14.215C13.6145 14.2271 13.4987 14.2159 13.3885 14.1822L10.0734 13.2945C9.9646 13.2653 9.86257 13.215 9.77319 13.1463C9.68381 13.0777 9.60883 12.9921 9.55253 12.8945C9.49623 12.7969 9.45971 12.6891 9.44507 12.5774C9.43042 12.4657 9.43793 12.3521 9.46718 12.2433Z" fill="white"/>
</svg>
