<svg width="20" height="20" viewBox="0 0 20 20" fill="none" xmlns="http://www.w3.org/2000/svg">
<path d="M6.91916 0.250004C6.06714 0.249936 5.54816 0.249895 5.10048 0.3208C2.6401 0.710486 0.710456 2.64013 0.32077 5.10051C0.249865 5.54819 0.249906 6.06717 0.249974 6.91919L0.249974 13.0808C0.249906 13.9328 0.249865 14.4518 0.320769 14.8995C0.710455 17.3599 2.6401 19.2895 5.10048 19.6792C5.54816 19.7501 6.06715 19.7501 6.91918 19.75L7.99998 19.75C9.29356 19.75 10.4893 19.3219 11.4504 18.6C11.7816 18.3513 11.8484 17.8811 11.5997 17.5499C11.3509 17.2188 10.8807 17.1519 10.5495 17.4007C9.8393 17.9342 8.9576 18.25 7.99998 18.25H6.99998C6.04231 18.25 5.6508 18.2477 5.33513 18.1977C3.51659 17.9097 2.09033 16.4834 1.8023 14.6649C1.75231 14.3492 1.74998 13.9577 1.74998 13L1.74998 7.00001C1.74998 6.04234 1.75231 5.65083 1.8023 5.33516C2.09033 3.51662 3.51659 2.09036 5.33513 1.80233C5.6508 1.75234 6.04231 1.75001 6.99998 1.75001H7.99998C8.95761 1.75001 9.8393 2.06583 10.5495 2.59932C10.8807 2.84808 11.3509 2.78127 11.5997 2.45008C11.8484 2.11888 11.7816 1.64874 11.4504 1.39997C10.4893 0.678072 9.29356 0.250008 7.99998 0.250008L6.91916 0.250004Z" fill="#9399AA"/>
<path d="M15.4659 5.41232C15.1414 5.15498 14.6696 5.20947 14.4123 5.53404C14.1549 5.85861 14.2094 6.33034 14.534 6.58769L16.297 7.98554C17.001 8.54376 17.483 8.92735 17.8105 9.25001L4.99998 9.25001C4.58576 9.25001 4.24998 9.58579 4.24998 10C4.24998 10.4142 4.58576 10.75 4.99998 10.75L17.8105 10.75C17.483 11.0727 17.001 11.4563 16.297 12.0145L14.534 13.4123C14.2094 13.6697 14.1549 14.1414 14.4123 14.466C14.6696 14.7905 15.1414 14.845 15.4659 14.5877L17.2647 13.1615C17.9372 12.6283 18.4921 12.1883 18.8875 11.7945C19.2931 11.3904 19.6294 10.9419 19.7207 10.3687C19.7402 10.2466 19.75 10.1234 19.75 10C19.75 9.87662 19.7402 9.75345 19.7207 9.63134C19.6294 9.05817 19.2931 8.60963 18.8875 8.20552C18.4921 7.81173 17.9372 7.37176 17.2647 6.83858L15.4659 5.41232Z" fill="#9399AA"/>
</svg>
