<svg width="16" height="16" viewBox="0 0 16 16" fill="none" xmlns="http://www.w3.org/2000/svg">
<path fill-rule="evenodd" clip-rule="evenodd" d="M5.68954 4.39994C6.01578 4.21641 6.74643 3.93127 7.38773 4.5126C7.75045 4.84139 7.86964 5.26399 7.82397 5.67438C7.781 6.06046 7.59645 6.42251 7.38121 6.71709C7.1626 7.01628 6.88549 7.28292 6.60455 7.47852C6.34157 7.66162 6.00246 7.83331 5.66668 7.83331C5.3309 7.83331 4.99179 7.66162 4.72881 7.47852C4.44786 7.28292 4.17075 7.01628 3.95214 6.71709C3.7369 6.42251 3.55236 6.06046 3.50939 5.67438C3.46371 5.26399 3.58291 4.84139 3.94563 4.5126C4.58692 3.93128 5.31756 4.21642 5.64381 4.39994C5.64381 4.39994 5.64553 4.40051 5.64718 4.40092C5.6519 4.40208 5.65868 4.40307 5.66667 4.40307C5.67467 4.40307 5.68145 4.40208 5.68616 4.40092C5.68781 4.40051 5.68954 4.39994 5.68954 4.39994ZM6.48387 5.16745C6.39118 5.17348 6.2837 5.21293 6.17904 5.27195C5.86898 5.44677 5.46437 5.44677 5.15431 5.27195C5.04965 5.21293 4.94217 5.17348 4.84948 5.16745C4.77436 5.16256 4.70145 5.17716 4.61724 5.2535C4.51821 5.34327 4.48906 5.43624 4.50325 5.56376C4.52015 5.71558 4.60369 5.91378 4.75957 6.12713C4.91208 6.33585 5.10913 6.52482 5.30019 6.65784C5.39513 6.72394 5.48109 6.77098 5.55179 6.80015C5.58672 6.81456 5.61477 6.8233 5.63576 6.82822C5.65636 6.83306 5.66667 6.83331 5.66667 6.83331C5.66667 6.83331 5.67628 6.83323 5.69759 6.82822C5.71858 6.8233 5.74664 6.81456 5.78157 6.80015C5.85226 6.77098 5.93823 6.72394 6.03317 6.65784C6.22423 6.52482 6.42127 6.33586 6.57378 6.12713C6.72966 5.91378 6.81321 5.71558 6.8301 5.56376C6.8443 5.43624 6.81515 5.34327 6.71612 5.2535C6.6319 5.17716 6.55899 5.16256 6.48387 5.16745Z" fill="#2D264B"/>
<path fill-rule="evenodd" clip-rule="evenodd" d="M10.3562 4.39994C10.6825 4.21641 11.4131 3.93127 12.0544 4.5126C12.4171 4.84139 12.5363 5.26399 12.4906 5.67438C12.4477 6.06046 12.2631 6.42251 12.0479 6.71709C11.8293 7.01628 11.5522 7.28292 11.2712 7.47852C11.0082 7.66162 10.6691 7.83331 10.3333 7.83331C9.99756 7.83331 9.65845 7.66162 9.39547 7.47852C9.11453 7.28292 8.83742 7.01628 8.61881 6.71709C8.40357 6.42251 8.21902 6.06046 8.17605 5.67438C8.13037 5.26399 8.24957 4.84139 8.61229 4.5126C9.25359 3.93128 9.98423 4.21641 10.3105 4.39994L10.3121 4.40088C10.3107 4.40008 10.3105 4.39994 10.3105 4.39994C10.3105 4.39994 10.3122 4.40051 10.3139 4.40092C10.3186 4.40208 10.3253 4.40307 10.3333 4.40307C10.3413 4.40307 10.3481 4.40208 10.3528 4.40092C10.3545 4.40051 10.3562 4.39994 10.3562 4.39994ZM11.1505 5.16745C11.0578 5.17348 10.9504 5.21293 10.8457 5.27195C10.5356 5.44677 10.131 5.44677 9.82098 5.27195C9.71631 5.21293 9.60883 5.17348 9.51614 5.16745C9.44102 5.16256 9.36811 5.17716 9.2839 5.2535C9.18487 5.34327 9.15572 5.43624 9.16992 5.56376C9.18681 5.71558 9.27036 5.91378 9.42624 6.12713C9.57875 6.33585 9.7758 6.52482 9.96686 6.65784C10.0618 6.72394 10.1478 6.77098 10.2185 6.80015C10.2534 6.81456 10.2814 6.8233 10.3024 6.82822C10.323 6.83306 10.3333 6.83331 10.3333 6.83331C10.3333 6.83331 10.3429 6.83323 10.3643 6.82822C10.3853 6.8233 10.4133 6.81456 10.4482 6.80015C10.5189 6.77098 10.6049 6.72394 10.6998 6.65784C10.8909 6.52482 11.0879 6.33586 11.2404 6.12713C11.3963 5.91378 11.4799 5.71558 11.4968 5.56376C11.511 5.43624 11.4818 5.34327 11.3828 5.2535C11.2986 5.17716 11.2257 5.16256 11.1505 5.16745ZM10.3562 4.39994L10.3545 4.40088C10.356 4.40008 10.3562 4.39994 10.3562 4.39994Z" fill="#2D264B"/>
<path fill-rule="evenodd" clip-rule="evenodd" d="M4.77375 10.0663C4.96389 9.72899 5.33205 9.49998 5.76331 9.49998H10.2367C10.668 9.49998 11.0361 9.72899 11.2263 10.0663C11.4207 10.4113 11.4196 10.8578 11.1423 11.2244C10.807 11.6675 10.3697 12.1447 9.85053 12.5148C9.3316 12.8848 8.70365 13.1666 8.00001 13.1666C7.29637 13.1666 6.66841 12.8848 6.14949 12.5148C5.63033 12.1447 5.193 11.6675 4.85772 11.2244C4.58043 10.8578 4.57933 10.4113 4.77375 10.0663ZM5.63739 10.5834C5.63754 10.5862 5.63821 10.5985 5.65519 10.621C5.95146 11.0126 6.31883 11.4074 6.73002 11.7006C7.14144 11.9939 7.56948 12.1666 8.00001 12.1666C8.43053 12.1666 8.85858 11.9939 9.27 11.7006C9.68119 11.4074 10.0486 11.0126 10.3448 10.621C10.3618 10.5985 10.3625 10.5862 10.3626 10.5834C10.3629 10.5785 10.362 10.5696 10.3551 10.5573C10.3414 10.533 10.3053 10.5 10.2367 10.5H5.76331C5.6947 10.5 5.65863 10.533 5.6449 10.5573C5.63799 10.5696 5.63713 10.5785 5.63739 10.5834Z" fill="#2D264B"/>
<path fill-rule="evenodd" clip-rule="evenodd" d="M0.833344 7.99998C0.833344 4.04194 4.04197 0.833313 8.00001 0.833313C11.9581 0.833313 15.1667 4.04194 15.1667 7.99998C15.1667 11.958 11.9581 15.1666 8.00001 15.1666C4.04197 15.1666 0.833344 11.958 0.833344 7.99998ZM8.00001 1.83331C4.59425 1.83331 1.83334 4.59422 1.83334 7.99998C1.83334 11.4057 4.59425 14.1666 8.00001 14.1666C11.4058 14.1666 14.1667 11.4057 14.1667 7.99998C14.1667 4.59422 11.4058 1.83331 8.00001 1.83331Z" fill="#2D264B"/>
</svg>
