<svg width="18" height="18" viewBox="0 0 18 18" fill="none" xmlns="http://www.w3.org/2000/svg">
<path d="M14.0527 1V2.6M3.94739 1V2.6" stroke="#EF4452" stroke-width="1.5" stroke-linecap="round" stroke-linejoin="round"/>
<path d="M1 9.19458C1 5.70874 1 3.96581 2.05442 2.8829C3.10883 1.79999 4.80589 1.79999 8.2 1.79999H9.8C13.1941 1.79999 14.8912 1.79999 15.9456 2.8829C17 3.96581 17 5.70874 17 9.19458V9.60539C17 13.0912 17 14.8342 15.9456 15.9171C14.8912 17 13.1941 17 9.8 17H8.2C4.80589 17 3.10883 17 2.05442 15.9171C1 14.8342 1 13.0912 1 9.60539V9.19458Z" stroke="#EF4452" stroke-width="1.5" stroke-linecap="round" stroke-linejoin="round"/>
<path d="M1.42108 5.79999H16.579" stroke="#EF4452" stroke-width="1.5" stroke-linecap="round" stroke-linejoin="round"/>
</svg>
