<svg width="15" height="15" viewBox="0 0 15 15" fill="none" xmlns="http://www.w3.org/2000/svg">
<path fill-rule="evenodd" clip-rule="evenodd" d="M11.1517 0.833313C10.7223 0.833313 10.3675 1.01298 10.0318 1.26914C9.71372 1.51182 9.36055 1.86502 8.93702 2.28858L5.28307 5.94247C5.00248 6.2226 4.78062 6.4441 4.64456 6.7272C4.50849 7.0103 4.47413 7.32191 4.43067 7.716L4.41887 7.82251C4.33758 8.55396 4.27057 9.15688 4.2859 9.6318C4.30194 10.1285 4.40928 10.5835 4.76488 10.9391C5.12048 11.2947 5.57544 11.402 6.07214 11.418C6.54706 11.4334 7.14996 11.3664 7.8814 11.2851L7.98795 11.2733C8.38203 11.2298 8.69365 11.1954 8.97674 11.0594C9.25984 10.9233 9.48133 10.7015 9.76146 10.4209L13.4154 6.76693C13.8389 6.34339 14.1921 5.99022 14.4348 5.67214C14.691 5.3364 14.8706 4.98168 14.8706 4.55226C14.8706 4.12284 14.691 3.76813 14.4348 3.43239C14.1921 3.11431 13.8389 2.76114 13.4154 2.3376L13.3664 2.2886C12.9428 1.86503 12.5896 1.51182 12.2715 1.26914C11.9358 1.01298 11.5811 0.833313 11.1517 0.833313ZM13.0364 5.72992L9.97402 2.6675C10.2444 2.40106 10.4536 2.20513 10.6384 2.06416C10.8852 1.87587 11.0288 1.83331 11.1517 1.83331C11.2745 1.83331 11.4182 1.87587 11.665 2.06416C11.9233 2.26125 12.2293 2.56576 12.6837 3.0202C13.1382 3.47464 13.4427 3.78065 13.6398 4.03897C13.8281 4.28575 13.8706 4.4294 13.8706 4.55226C13.8706 4.67513 13.8281 4.81877 13.6398 5.06556C13.4988 5.25032 13.3029 5.45949 13.0364 5.72992ZM9.26606 3.37375L12.3302 6.43788L9.10254 9.66553C8.75091 10.0172 8.65374 10.1051 8.54355 10.1581C8.43337 10.211 8.30398 10.232 7.80974 10.2869C7.02975 10.3735 6.49887 10.4313 6.10441 10.4186C5.72336 10.4063 5.56953 10.3295 5.47199 10.232C5.37445 10.1344 5.29769 9.98057 5.28538 9.59953C5.27265 9.20506 5.33039 8.67419 5.41706 7.8942C5.47197 7.39996 5.4929 7.27057 5.54586 7.16039C5.59882 7.0502 5.68678 6.95303 6.03841 6.6014L9.26606 3.37375Z" fill="#9399AA"/>
<path d="M6.00591 2.61896C6.28203 2.61564 6.50319 2.38912 6.49988 2.113C6.49657 1.83688 6.27005 1.61572 5.99393 1.61903C4.37625 1.63842 3.26588 1.72693 2.41341 2.34629C2.08798 2.58273 1.80179 2.86891 1.56535 3.19434C1.1748 3.73189 0.999923 4.36148 0.915737 5.1385C0.833242 5.89993 0.833247 6.85966 0.833252 8.08402V8.14435C0.833247 9.36871 0.833242 10.3284 0.915737 11.0899C0.999923 11.8669 1.1748 12.4965 1.56535 13.034C1.80179 13.3595 2.08798 13.6456 2.41341 13.8821C2.95096 14.2726 3.58054 14.4475 4.35757 14.5317C5.11898 14.6142 6.0787 14.6142 7.30302 14.6142H7.36343C8.58776 14.6142 9.54752 14.6142 10.3089 14.5317C11.086 14.4475 11.7155 14.2726 12.2531 13.8821C12.5785 13.6456 12.8647 13.3595 13.1012 13.034C13.7205 12.1816 13.809 11.0712 13.8284 9.45351C13.8317 9.17739 13.6106 8.95087 13.3344 8.94756C13.0583 8.94425 12.8318 9.1654 12.8285 9.44153C12.8085 11.1087 12.6963 11.89 12.2921 12.4462C12.1174 12.6868 11.9058 12.8983 11.6653 13.0731C11.3266 13.3191 10.8932 13.4626 10.2012 13.5375C9.49992 13.6135 8.5943 13.6142 7.33325 13.6142C6.0722 13.6142 5.16658 13.6135 4.46528 13.5375C3.77334 13.4626 3.33986 13.3191 3.00119 13.0731C2.76066 12.8983 2.54913 12.6868 2.37437 12.4462C2.12831 12.1076 1.98489 11.6741 1.90992 10.9822C1.83394 10.2809 1.83325 9.37523 1.83325 8.11419C1.83325 6.85314 1.83394 5.94752 1.90992 5.24622C1.98489 4.55428 2.12831 4.1208 2.37437 3.78213C2.54913 3.54159 2.76066 3.33006 3.00119 3.15531C3.55743 2.75118 4.33871 2.63894 6.00591 2.61896Z" fill="#9399AA"/>
</svg>
