<svg width="17" height="20" viewBox="0 0 17 20" fill="none" xmlns="http://www.w3.org/2000/svg">
<path d="M9.72159 0.528636C9.46124 0.268287 9.03913 0.268287 8.77878 0.528636C8.51843 0.788986 8.51843 1.2111 8.77878 1.47145L9.64071 2.33337L7.85239 2.33336C6.1324 2.33314 5.10378 2.33301 4.24909 2.61072C2.52394 3.17126 1.1714 4.5238 0.610867 6.24894C0.33316 7.10364 0.33329 8.13225 0.333508 9.85224V10.1478C0.33329 11.8678 0.33316 12.8964 0.610867 13.7511C0.724644 14.1013 1.10075 14.2929 1.45092 14.1792C1.80109 14.0654 1.99272 13.6893 1.87894 13.3391C1.67508 12.7117 1.66685 11.9132 1.66685 10C1.66685 8.08687 1.67508 7.28839 1.87894 6.66097C2.30759 5.34174 3.34188 4.30744 4.66111 3.8788C5.28854 3.67493 6.08702 3.66671 8.00019 3.66671H9.40882L8.5734 4.36289C8.29055 4.5986 8.25233 5.01898 8.48804 5.30183C8.72375 5.58468 9.14412 5.6229 9.42698 5.38719L10.8357 4.21321C11.2017 3.90822 11.4024 3.48055 11.4317 3.04473C11.4626 2.58502 11.3031 2.11012 10.9473 1.75433L9.72159 0.528636Z" fill="#2A2E39"/>
<path d="M16.392 5.80178C16.2825 5.45025 15.9087 5.25404 15.5572 5.36354C15.2057 5.47303 15.0095 5.84677 15.119 6.1983C15.3259 6.86266 15.3335 7.70648 15.3335 9.69806C15.3335 11.6896 15.3259 12.5335 15.119 13.1978C14.6852 14.5904 13.6433 15.6687 12.3313 16.1134C11.7084 16.3245 10.9153 16.3334 9.00019 16.3334H7.60966L8.47159 15.4714C8.73194 15.2111 8.73194 14.789 8.47159 14.5286C8.21124 14.2683 7.78913 14.2683 7.52878 14.5286L6.30309 15.7543C5.9473 16.1101 5.78781 16.585 5.81869 17.0447C5.84797 17.4806 6.04864 17.9082 6.41463 18.2132L7.8234 19.3872C8.10625 19.6229 8.52663 19.5847 8.76233 19.3018C8.99804 19.019 8.95983 18.5986 8.67698 18.3629L7.84155 17.6667L9.15191 17.6667C10.868 17.667 11.9008 17.6671 12.7593 17.3762C14.4916 16.789 15.8366 15.3775 16.392 13.5943C16.6672 12.7108 16.6671 11.6463 16.6669 9.84322V9.5529C16.6671 7.74984 16.6672 6.68527 16.392 5.80178Z" fill="#2A2E39"/>
</svg>
