<svg width="22" height="21" viewBox="0 0 22 21" fill="none" xmlns="http://www.w3.org/2000/svg">
<path fill-rule="evenodd" clip-rule="evenodd" d="M15.6912 5.20525C14.9472 4.44651 14.099 4.19974 13.2994 4.25827C12.5374 4.31406 11.8684 4.64163 11.3986 4.93964C11.171 5.08402 10.829 5.08402 10.6014 4.93964C10.1316 4.64163 9.46257 4.31407 8.70056 4.25828C7.90102 4.19975 7.05278 4.44652 6.30876 5.20525C5.43411 6.0972 5.16492 7.20021 5.27257 8.28826C5.37794 9.35331 5.84113 10.4133 6.43856 11.3332C7.03907 12.2578 7.80603 13.0886 8.58099 13.6956C9.32334 14.2771 10.1966 14.75 11 14.75C11.8034 14.75 12.6767 14.2771 13.419 13.6956C14.194 13.0886 14.9609 12.2578 15.5614 11.3332C16.1589 10.4133 16.6221 9.35331 16.7274 8.28826C16.8351 7.20021 16.5659 6.0972 15.6912 5.20525ZM12.2021 6.20629C12.5691 5.97346 12.9942 5.78463 13.4089 5.75427C13.7861 5.72666 14.1971 5.82401 14.6202 6.25547C15.1308 6.77617 15.3067 7.4132 15.2347 8.14058C15.1605 8.89096 14.8194 9.72178 14.3035 10.5162C13.7906 11.3058 13.1351 12.0126 12.4941 12.5147C11.8204 13.0424 11.2841 13.25 11 13.25C10.7159 13.25 10.1796 13.0424 9.50593 12.5147C8.86488 12.0126 8.20938 11.3058 7.69653 10.5162C7.18059 9.72178 6.83952 8.89096 6.76528 8.14058C6.69331 7.4132 6.86916 6.77617 7.37976 6.25547C7.80284 5.82402 8.21387 5.72667 8.59105 5.75428C9.00575 5.78464 9.43087 5.97347 9.7979 6.20629C10.516 6.6618 11.484 6.6618 12.2021 6.20629Z" fill="currentColor"/>
<path fill-rule="evenodd" clip-rule="evenodd" d="M16.3451 0.320612C15.4807 0.249992 14.4053 0.249995 13.0336 0.25H8.96644C7.59472 0.249995 6.51928 0.249992 5.65494 0.320612C4.77479 0.392522 4.04768 0.541379 3.38955 0.876713C2.30762 1.42798 1.42798 2.30762 0.876713 3.38955C0.541379 4.04769 0.392522 4.7748 0.320612 5.65494C0.249992 6.51929 0.249995 7.59472 0.25 8.96644V13.2283C0.25 15.7256 2.27441 17.75 4.77166 17.75H5.37341C5.62191 17.75 5.79183 18.001 5.69954 18.2317C5.01288 19.9484 6.9899 21.5003 8.49441 20.4257L11.1051 18.5609L11.1543 18.5259C11.8632 18.0264 12.7079 17.7556 13.5751 17.7501L13.6354 17.75L14.3311 17.75C15.8797 17.7502 16.8244 17.7504 17.6179 17.5177C19.4971 16.9667 20.9667 15.4971 21.5177 13.6179C21.7504 12.8244 21.7502 11.8798 21.75 10.3312L21.75 8.96642C21.75 7.59473 21.75 6.51927 21.6794 5.65494C21.6075 4.77479 21.4586 4.04769 21.1233 3.38955C20.572 2.30762 19.6924 1.42798 18.6104 0.876713C17.9523 0.541379 17.2252 0.392522 16.3451 0.320612ZM4.07054 2.21322C4.48197 2.00359 4.9897 1.87996 5.77708 1.81563C6.57322 1.75058 7.58749 1.75 9 1.75H13C14.4125 1.75 15.4268 1.75058 16.2229 1.81563C17.0103 1.87996 17.518 2.00359 17.9295 2.21322C18.7291 2.62068 19.3793 3.27085 19.7868 4.07054C19.9964 4.48197 20.12 4.9897 20.1844 5.77708C20.2494 6.57322 20.25 7.58749 20.25 9V10.1842C20.25 11.9261 20.2424 12.6363 20.0783 13.1958C19.671 14.5848 18.5848 15.671 17.1958 16.0783C16.6363 16.2424 15.9261 16.25 14.1842 16.25H13.6354L13.5655 16.2501C12.3922 16.2576 11.2493 16.6239 10.2902 17.2997L10.2333 17.3403L7.62255 19.2051C7.33709 19.409 6.96197 19.1145 7.09226 18.7888C7.57867 17.5728 6.68311 16.25 5.37341 16.25H4.77166C3.10284 16.25 1.75 14.8972 1.75 13.2283V9C1.75 7.58749 1.75058 6.57322 1.81563 5.77708C1.87996 4.9897 2.00359 4.48197 2.21322 4.07054C2.62068 3.27085 3.27085 2.62068 4.07054 2.21322Z" fill="currentColor"/>
</svg>
