<svg width="18" height="17" viewBox="0 0 18 17" fill="none" xmlns="http://www.w3.org/2000/svg">
<path d="M15.9939 4.69302L14.5381 3.4288C13.4892 2.5179 13.0781 2.02789 12.5101 2.20112C11.8018 2.41712 12.035 3.78004 12.035 4.24016C10.9338 4.24016 9.78901 4.15546 8.70359 4.33193C5.12044 4.91447 4 7.46382 4 10.2104C5.01415 9.58874 6.02728 8.89549 7.24617 8.60737C8.76768 8.24771 10.467 8.41933 12.035 8.41933C12.035 8.87943 11.8018 10.2424 12.5101 10.4584C13.1537 10.6546 13.4892 10.1416 14.5381 9.23069L15.9939 7.96646C16.8869 7.19101 17.3333 6.80328 17.3333 6.32974C17.3333 5.85621 16.8869 5.46848 15.9939 4.69302Z" stroke="currentColor" stroke-linecap="round" stroke-linejoin="round"/>
<path d="M7.80616 0.5C4.58929 0.505781 2.90478 0.584596 1.82826 1.65894C0.666505 2.81835 0.666505 4.68438 0.666504 8.41644C0.666503 12.1485 0.666503 14.0145 1.82826 15.1739C2.99001 16.3333 4.85982 16.3333 8.59945 16.3333C12.3391 16.3333 14.2089 16.3333 15.3706 15.1739C16.1795 14.3667 16.4252 13.2169 16.4998 11.3333" stroke="currentColor" stroke-linecap="round" stroke-linejoin="round"/>
</svg>
