<svg width="81" height="81" viewBox="0 0 81 81" fill="none" xmlns="http://www.w3.org/2000/svg">
<path d="M5.35851 44.6171H32.0252C34.4696 44.6171 36.4696 42.6171 36.4696 40.1726V4.61705C36.4696 2.17261 34.4696 0.172607 32.0252 0.172607H5.35851C2.91406 0.172607 0.914062 2.17261 0.914062 4.61705V40.1726C0.914062 42.6171 2.91406 44.6171 5.35851 44.6171ZM5.35851 80.1726H32.0252C34.4696 80.1726 36.4696 78.1726 36.4696 75.7282V57.9504C36.4696 55.5059 34.4696 53.5059 32.0252 53.5059H5.35851C2.91406 53.5059 0.914062 55.5059 0.914062 57.9504V75.7282C0.914062 78.1726 2.91406 80.1726 5.35851 80.1726ZM49.803 80.1726H76.4696C78.9141 80.1726 80.9141 78.1726 80.9141 75.7282V40.1726C80.9141 37.7282 78.9141 35.7282 76.4696 35.7282H49.803C47.3585 35.7282 45.3585 37.7282 45.3585 40.1726V75.7282C45.3585 78.1726 47.3585 80.1726 49.803 80.1726ZM45.3585 4.61705V22.3948C45.3585 24.8393 47.3585 26.8393 49.803 26.8393H76.4696C78.9141 26.8393 80.9141 24.8393 80.9141 22.3948V4.61705C80.9141 2.17261 78.9141 0.172607 76.4696 0.172607H49.803C47.3585 0.172607 45.3585 2.17261 45.3585 4.61705Z" fill="white"/>
</svg>
