<svg width="20" height="18" viewBox="0 0 20 18" fill="none" xmlns="http://www.w3.org/2000/svg">
<path d="M11 13.25C10.5858 13.25 10.25 13.5858 10.25 14C10.25 14.4142 10.5858 14.75 11 14.75H15C15.4142 14.75 15.75 14.4142 15.75 14C15.75 13.5858 15.4142 13.25 15 13.25H11Z" fill="#2A2E39"/>
<path fill-rule="evenodd" clip-rule="evenodd" d="M14.3451 0.320612C13.4807 0.249992 12.4053 0.249995 11.0336 0.25H8.96644C7.59472 0.249995 6.51929 0.249992 5.65494 0.320612C4.77479 0.392522 4.04769 0.541379 3.38955 0.876713C2.30762 1.42798 1.42798 2.30762 0.876713 3.38955C0.39394 4.33705 0.290597 5.44938 0.261185 6.98564C0.25 7.56985 0.25 8.23525 0.25 8.99421V9.03356C0.249995 10.4053 0.249992 11.4807 0.320612 12.3451C0.392522 13.2252 0.541379 13.9523 0.876713 14.6104C1.42798 15.6924 2.30762 16.572 3.38955 17.1233C4.04769 17.4586 4.77479 17.6075 5.65494 17.6794C6.51927 17.75 7.59469 17.75 8.96637 17.75H11.0336C12.4053 17.75 13.4807 17.75 14.3451 17.6794C15.2252 17.6075 15.9523 17.4586 16.6104 17.1233C17.6924 16.572 18.572 15.6924 19.1233 14.6104C19.4586 13.9523 19.6075 13.2252 19.6794 12.3451C19.75 11.4807 19.75 10.4053 19.75 9.03363V8.9942C19.75 8.23524 19.75 7.56985 19.7388 6.98564C19.7094 5.44938 19.6061 4.33705 19.1233 3.38955C18.572 2.30762 17.6924 1.42798 16.6104 0.876713C15.9523 0.541379 15.2252 0.392522 14.3451 0.320612ZM4.07054 2.21322C4.48197 2.00359 4.9897 1.87996 5.77708 1.81563C6.57322 1.75058 7.58749 1.75 9 1.75H11C12.4125 1.75 13.4268 1.75058 14.2229 1.81563C15.0103 1.87996 15.518 2.00359 15.9295 2.21322C16.7291 2.62068 17.3793 3.27085 17.7868 4.07054C18.0409 4.56922 18.1625 5.19217 18.2143 6.25H1.78567C1.83752 5.19217 1.95913 4.56922 2.21322 4.07054C2.62068 3.27085 3.27085 2.62068 4.07054 2.21322ZM1.75 9C1.75 8.54524 1.75001 8.13073 1.7523 7.75H18.2477C18.25 8.13073 18.25 8.54524 18.25 9C18.25 10.4125 18.2494 11.4268 18.1844 12.2229C18.12 13.0103 17.9964 13.518 17.7868 13.9295C17.3793 14.7291 16.7291 15.3793 15.9295 15.7868C15.518 15.9964 15.0103 16.12 14.2229 16.1844C13.4268 16.2494 12.4125 16.25 11 16.25H9C7.58749 16.25 6.57322 16.2494 5.77708 16.1844C4.9897 16.12 4.48197 15.9964 4.07054 15.7868C3.27085 15.3793 2.62068 14.7291 2.21322 13.9295C2.00359 13.518 1.87996 13.0103 1.81563 12.2229C1.75058 11.4268 1.75 10.4125 1.75 9Z" fill="#2A2E39"/>
</svg>
