<svg width="22" height="22" viewBox="0 0 22 22" fill="none" xmlns="http://www.w3.org/2000/svg">
<path fill-rule="evenodd" clip-rule="evenodd" d="M3.41388 7.76099C3.74878 6.00204 4.59659 4.32081 5.95587 2.95982C9.56443 -0.653275 15.4154 -0.653275 19.024 2.95982C20.1248 4.06202 21.097 5.69355 21.5221 7.50489C21.9499 9.3272 21.8313 11.3742 20.676 13.2356C20.6168 13.3309 20.5802 13.3899 20.5544 13.4341C20.5425 13.4545 20.5362 13.4661 20.5336 13.4711C20.5311 13.4775 20.5297 13.4819 20.5288 13.4847C20.5288 13.488 20.5289 13.4936 20.5295 13.5021C20.5302 13.506 20.5319 13.5147 20.5352 13.5295C20.5438 13.5674 20.5568 13.618 20.5799 13.7074L20.5866 13.7334C20.7193 14.2459 20.8284 14.6672 20.8925 15.0076C20.957 15.3502 20.9944 15.696 20.9257 16.0337C20.73 16.9967 19.9782 17.75 19.0152 17.9462C18.6774 18.015 18.3316 17.9776 17.9893 17.9129C17.6492 17.8487 17.2284 17.7395 16.7165 17.6067L16.6906 17.5999C16.6013 17.5768 16.5507 17.5637 16.513 17.5552C16.4983 17.5518 16.4897 17.5502 16.4857 17.5495C16.4779 17.5489 16.4725 17.5488 16.4692 17.5487C16.4664 17.5496 16.4622 17.5511 16.4564 17.5532C16.4514 17.5559 16.4396 17.5622 16.4191 17.5742C16.3746 17.6002 16.3151 17.6369 16.2192 17.6962C15.5993 18.0798 14.9541 18.3479 14.3005 18.5177C14.058 18.8554 13.7854 19.1778 13.4826 19.4808C12.5908 20.3739 11.2285 21.1843 9.71111 21.5478C8.1832 21.9137 6.44238 21.8371 4.86718 20.8624C4.79079 20.8151 4.74412 20.7863 4.7097 20.7661C4.68224 20.7727 4.64448 20.7824 4.58189 20.7986L4.55666 20.8052C4.13844 20.9137 3.78817 21.0046 3.50368 21.0584C3.21699 21.1125 2.91168 21.1473 2.60781 21.0854C1.76267 20.9132 1.10293 20.252 0.931185 19.4071C0.869454 19.1034 0.904135 18.7981 0.958182 18.5112C1.01181 18.2264 1.10258 17.8758 1.21099 17.457L1.21753 17.4318C1.23393 17.3684 1.24368 17.3305 1.25022 17.3029C1.23012 17.2687 1.20143 17.2224 1.15411 17.1461C0.18042 15.5774 0.0823613 13.8541 0.440872 12.3267C0.796808 10.8103 1.60998 9.44499 2.53337 8.52044C2.81159 8.24187 3.10608 7.98867 3.41388 7.76099ZM7.0172 4.01982C10.0398 0.993394 14.9401 0.993394 17.9627 4.01982C18.8726 4.93094 19.7024 6.31632 20.0618 7.84766C20.4187 9.36803 20.3046 10.9895 19.4015 12.4445C19.393 12.4583 19.3843 12.4722 19.3756 12.4862C19.2895 12.6244 19.1967 12.7733 19.143 12.9084C19.0476 13.1482 19.0146 13.3652 19.0343 13.6225C19.0454 13.7671 19.0842 13.9161 19.1184 14.0471C19.1216 14.0593 19.1247 14.0714 19.1278 14.0833C19.2689 14.6282 19.3648 15.0004 19.4184 15.2852C19.4727 15.5735 19.4654 15.6875 19.4558 15.735C19.3798 16.109 19.088 16.4005 18.7157 16.4764C18.6689 16.4859 18.5554 16.4933 18.2676 16.439C17.9833 16.3853 17.6117 16.2893 17.0674 16.148C17.0555 16.1449 17.0434 16.1418 17.0311 16.1386C16.9005 16.1044 16.7516 16.0655 16.6074 16.0544C16.3503 16.0345 16.1347 16.0671 15.8951 16.1621C15.7603 16.2156 15.6109 16.3083 15.472 16.3946C15.4579 16.4034 15.4439 16.4121 15.43 16.4207C15.4026 16.4376 15.3752 16.4542 15.3478 16.4705C16.252 13.7706 15.6309 10.6714 13.4826 8.52044C11.2563 6.2913 8.01213 5.70388 5.24874 6.75716C5.62506 5.75929 6.21437 4.82365 7.0172 4.01982ZM4.52033 8.81521C6.94742 7.17382 10.2731 7.4295 12.4213 9.58044C14.5519 11.7137 14.8212 15.0073 13.2263 17.4329C12.997 17.7817 12.7288 18.113 12.4213 18.4208C11.7249 19.1181 10.6089 19.7903 9.36171 20.089C8.12503 20.3852 6.81491 20.3036 5.65644 19.5868C5.64495 19.5797 5.63315 19.5724 5.62108 19.5649C5.50954 19.4955 5.37549 19.4122 5.25253 19.3634C5.03646 19.2777 4.83873 19.2478 4.60696 19.2657C4.47555 19.2759 4.34093 19.3112 4.23568 19.3388C4.22518 19.3415 4.21498 19.3442 4.2051 19.3467C3.75505 19.4635 3.45412 19.5412 3.22539 19.5844C2.99317 19.6282 2.92023 19.6182 2.90731 19.6156C2.65282 19.5637 2.45317 19.3644 2.40113 19.1083C2.39839 19.0948 2.38846 19.0214 2.43227 18.7888C2.47542 18.5596 2.55303 18.2582 2.66966 17.8077C2.67222 17.7978 2.67489 17.7876 2.67763 17.7771C2.7052 17.6716 2.74041 17.5368 2.7505 17.4051C2.76828 17.1731 2.73801 16.9742 2.65202 16.758C2.60301 16.6348 2.51967 16.5012 2.45043 16.3902C2.44296 16.3782 2.43566 16.3665 2.42858 16.3551C1.70711 15.1927 1.61355 13.8949 1.90118 12.6695C2.19139 11.4331 2.86214 10.3139 3.5947 9.58044C3.88414 9.29062 4.19437 9.03565 4.52033 8.81521Z" fill="#2D264B"/>
<path d="M9.99985 14C9.99985 14.5523 10.4476 15 10.9998 15C11.5521 15 11.9998 14.5523 11.9998 14C11.9998 13.4477 11.5521 13 10.9998 13C10.4476 13 9.99985 13.4477 9.99985 14Z" fill="#2D264B"/>
<path d="M6.99985 14C6.99985 14.5523 7.44756 15 7.99985 15C8.55213 15 8.99985 14.5523 8.99985 14C8.99985 13.4477 8.55213 13 7.99985 13C7.44756 13 6.99985 13.4477 6.99985 14Z" fill="#2D264B"/>
<path d="M3.99985 14C3.99985 14.5523 4.44756 15 4.99985 15C5.55213 15 5.99985 14.5523 5.99985 14C5.99985 13.4477 5.55213 13 4.99985 13C4.44756 13 3.99985 13.4477 3.99985 14Z" fill="#2D264B"/>
</svg>
