<svg width="18" height="18" viewBox="0 0 18 18" fill="none" xmlns="http://www.w3.org/2000/svg">
<path fill-rule="evenodd" clip-rule="evenodd" d="M2.68515 2.66546C6.1836 -0.832986 11.8557 -0.832986 15.3542 2.66546C18.8526 6.16391 18.8526 11.836 15.3542 15.3345C14.3261 16.3625 12.7467 17.3024 10.9867 17.7234C9.21802 18.1465 7.22061 18.0544 5.41799 16.9404C5.32445 16.8826 5.26457 16.8457 5.21934 16.8193C5.18863 16.8014 5.17498 16.7946 5.17219 16.7932C5.14182 16.7814 5.13159 16.7801 5.13069 16.78C5.12926 16.7797 5.11789 16.7779 5.08316 16.7806C5.08923 16.7802 5.08306 16.7799 5.04618 16.7882C5.007 16.7971 4.95545 16.8104 4.86845 16.8329L4.84637 16.8387C4.34104 16.9696 3.9311 17.0759 3.60107 17.1381C3.26916 17.2007 2.94705 17.2341 2.63719 17.171C1.73614 16.9877 1.03195 16.2835 0.848571 15.3824C0.785509 15.0726 0.818895 14.7504 0.881484 14.4185C0.943717 14.0885 1.04997 13.6786 1.18095 13.1733L1.18668 13.1512C1.20924 13.0641 1.22252 13.0126 1.23137 12.9735C1.23969 12.9367 1.23941 12.9305 1.23895 12.9365C1.24159 12.9022 1.2398 12.8907 1.23953 12.8889C1.23927 12.8872 1.23765 12.8763 1.22621 12.8471C1.22479 12.8443 1.21798 12.8308 1.20021 12.8005C1.17394 12.7556 1.13713 12.6963 1.07938 12.6033C-0.0361018 10.8084 -0.152204 8.83281 0.262466 7.0684C0.674977 5.31318 1.61876 3.73185 2.68515 2.66546ZM14.4703 3.54935C11.46 0.539053 6.57933 0.539053 3.56904 3.54935C2.66177 4.45661 1.83692 5.83277 1.47931 7.35438C1.12386 8.86681 1.23615 10.4874 2.14107 11.9436C2.14927 11.9568 2.1575 11.97 2.16572 11.9832C2.2519 12.1214 2.3372 12.2583 2.38607 12.381C2.4735 12.6005 2.50337 12.7965 2.48529 13.0321C2.47521 13.1635 2.43968 13.2998 2.40563 13.4305C2.40263 13.4419 2.39965 13.4534 2.3967 13.4648C2.25863 13.9975 2.16333 14.3665 2.10984 14.6502C2.0558 14.9367 2.05968 15.0654 2.07346 15.1331C2.15681 15.5427 2.4769 15.8628 2.88647 15.9461C2.95417 15.9599 3.08288 15.9638 3.36944 15.9098C3.6531 15.8563 4.02214 15.761 4.55482 15.6229C4.56624 15.62 4.5777 15.617 4.5892 15.614C4.71978 15.5799 4.85593 15.5445 4.98686 15.5343C5.22215 15.5162 5.41672 15.5456 5.63613 15.6324C5.75855 15.6809 5.89597 15.7661 6.03514 15.8523C6.04845 15.8606 6.06178 15.8689 6.07511 15.8771C7.53066 16.7766 9.16955 16.8729 10.6959 16.5077C12.231 16.1405 13.6052 15.3156 14.4703 14.4506C17.4806 11.4403 17.4806 6.55964 14.4703 3.54935Z" fill="currentColor"/>
<path d="M6.54419 8.88145C6.54419 9.34169 6.1711 9.71478 5.71086 9.71478C5.25062 9.71478 4.87753 9.34169 4.87753 8.88145C4.87753 8.42121 5.25062 8.04812 5.71086 8.04812C6.1711 8.04812 6.54419 8.42121 6.54419 8.88145Z" fill="currentColor"/>
<path d="M9.87753 8.88145C9.87753 9.34169 9.50443 9.71478 9.04419 9.71478C8.58396 9.71478 8.21086 9.34169 8.21086 8.88145C8.21086 8.42121 8.58396 8.04812 9.04419 8.04812C9.50443 8.04812 9.87753 8.42121 9.87753 8.88145Z" fill="currentColor"/>
<path d="M13.2109 8.88145C13.2109 9.34169 12.8378 9.71478 12.3775 9.71478C11.9173 9.71478 11.5442 9.34169 11.5442 8.88145C11.5442 8.42121 11.9173 8.04812 12.3775 8.04812C12.8378 8.04812 13.2109 8.42121 13.2109 8.88145Z" fill="currentColor"/>
</svg>
