<svg width="24" height="24" viewBox="0 0 24 24" fill="none" xmlns="http://www.w3.org/2000/svg">
<path fill-rule="evenodd" clip-rule="evenodd" d="M13.8518 6.036C13.2735 4.19753 10.7265 4.19753 10.1482 6.036C10.0657 6.29811 9.83857 6.45492 9.60461 6.45492C7.67632 6.45492 6.97865 8.93603 8.45278 10.0424C8.65591 10.1948 8.75124 10.4772 8.66775 10.7426C8.38442 11.6434 8.74781 12.486 9.36774 12.9512C9.99087 13.4189 10.9062 13.5255 11.6714 12.9512C11.8689 12.803 12.1311 12.803 12.3286 12.9512C13.0938 13.5255 14.0091 13.4189 14.6323 12.9512C15.2522 12.486 15.6156 11.6434 15.3323 10.7426C15.2488 10.4772 15.3441 10.1948 15.5472 10.0424C17.0213 8.93603 16.3237 6.45492 14.3954 6.45492C14.1614 6.45492 13.9343 6.29811 13.8518 6.036ZM9.60461 7.82634C10.4618 7.82634 11.2017 7.25736 11.4564 6.44749C11.6321 5.88893 12.3679 5.88893 12.5436 6.44749C12.7983 7.25737 13.5382 7.82634 14.3954 7.82634C14.6606 7.82634 14.8585 7.98945 14.939 8.24526C15.0199 8.50264 14.9538 8.77304 14.724 8.94551C14.0444 9.45558 13.7703 10.3476 14.024 11.1541C14.1177 11.4519 14.0056 11.7069 13.809 11.8544C13.6157 11.9995 13.3736 12.0208 13.1518 11.8544C12.4666 11.3401 11.5334 11.3401 10.8482 11.8544C10.6264 12.0208 10.3843 11.9995 10.191 11.8544C9.99442 11.7069 9.88233 11.4519 9.97599 11.1541C10.2297 10.3476 9.95562 9.45558 9.276 8.94551C9.0462 8.77304 8.98007 8.50264 9.06103 8.24526C9.14149 7.98945 9.33941 7.82634 9.60461 7.82634Z" fill="currentColor"/>
<path fill-rule="evenodd" clip-rule="evenodd" d="M12 1C7.58172 1 4 4.58172 4 9C4 10.9334 4.68669 12.708 5.82861 14.0909L5.82857 19.4584C5.82852 20.1263 5.82848 20.7049 5.89307 21.1387C5.95822 21.5764 6.12518 22.1257 6.69053 22.3786C7.24727 22.6276 7.76997 22.399 8.14816 22.1659C8.52652 21.9327 8.97647 21.5576 9.4996 21.1216L10.399 20.3719C10.8992 19.955 11.2266 19.6837 11.4982 19.5093C11.7533 19.3454 11.8903 19.3138 12 19.3138C12.1097 19.3138 12.2467 19.3454 12.5018 19.5093C12.7734 19.6837 13.1008 19.955 13.601 20.3719L14.5004 21.1215C15.0235 21.5576 15.4735 21.9327 15.8518 22.1659C16.23 22.399 16.7527 22.6276 17.3095 22.3786C17.8748 22.1257 18.0418 21.5764 18.1069 21.1387C18.1715 20.7049 18.1715 20.1263 18.1714 19.4584L18.1714 14.0909C19.3133 12.708 20 10.9334 20 9C20 4.58172 16.4183 1 12 1ZM5.37143 9C5.37143 5.33914 8.33914 2.37143 12 2.37143C15.6609 2.37143 18.6286 5.33914 18.6286 9C18.6286 10.6816 18.0033 12.2154 16.9716 13.3843C15.756 14.7616 13.9797 15.6286 12 15.6286C10.0205 15.6286 8.24431 14.7617 7.02872 13.3847C5.99681 12.2157 5.37143 10.6817 5.37143 9ZM7.24955 20.9368C7.20186 20.6165 7.2 20.1423 7.2 19.4034V15.4005C8.53679 16.4044 10.1991 17 12 17C13.8009 17 15.4632 16.4044 16.8 15.4005V19.4034C16.8 20.1423 16.7981 20.6165 16.7504 20.9368C16.7412 20.9991 16.7314 21.0464 16.7225 21.0818C16.6854 21.0644 16.6358 21.0381 16.5713 20.9984C16.2872 20.8233 15.9133 20.5139 15.3374 20.0338L14.4473 19.2919C13.9877 18.9088 13.5949 18.5814 13.2429 18.3554C12.8664 18.1135 12.4701 17.9423 12 17.9423C11.5299 17.9423 11.1336 18.1135 10.7571 18.3554C10.4051 18.5814 10.0123 18.9088 9.55271 19.2919L8.66261 20.0338C8.08667 20.5139 7.71281 20.8233 7.42867 20.9984C7.36418 21.0381 7.31457 21.0644 7.27747 21.0818C7.26856 21.0464 7.25883 20.9991 7.24955 20.9368ZM16.6886 21.1758C16.6884 21.1754 16.6901 21.172 16.6942 21.1668C16.6908 21.1737 16.6888 21.1762 16.6886 21.1758ZM16.806 21.1131C16.8117 21.1132 16.8148 21.1139 16.815 21.1142C16.8152 21.1145 16.8123 21.1145 16.806 21.1131ZM7.18499 21.1142C7.18517 21.1139 7.18835 21.1132 7.19401 21.1131C7.18765 21.1145 7.18482 21.1145 7.18499 21.1142ZM7.3114 21.1758C7.31157 21.1754 7.30987 21.172 7.30581 21.1668C7.30623 21.1677 7.30663 21.1685 7.30701 21.1692C7.30967 21.1743 7.31125 21.1762 7.3114 21.1758Z" fill="currentColor"/>
</svg>
