<svg width="81" height="88" viewBox="0 0 81 88" fill="none" xmlns="http://www.w3.org/2000/svg">
<path d="M17.319 24.1726C17.319 30.361 19.7773 36.2959 24.1532 40.6717C28.529 45.0476 34.464 47.5059 40.6523 47.5059C46.8407 47.5059 52.7757 45.0476 57.1515 40.6717C61.5273 36.2959 63.9857 30.361 63.9857 24.1726C63.9857 17.9842 61.5273 12.0493 57.1515 7.67341C52.7757 3.29756 46.8407 0.839233 40.6523 0.839233C34.464 0.839233 28.529 3.29756 24.1532 7.67341C19.7773 12.0493 17.319 17.9842 17.319 24.1726ZM73.9857 87.5059H3.98568C3.10162 87.5059 2.25378 87.1547 1.62866 86.5296C1.00353 85.9045 0.652344 85.0566 0.652344 84.1726V74.1726C0.652344 69.7523 2.40829 65.5131 5.5339 62.3875C8.6595 59.2618 12.8987 57.5059 17.319 57.5059H63.9857C68.406 57.5059 72.6452 59.2618 75.7708 62.3875C78.8964 65.5131 80.6523 69.7523 80.6523 74.1726V84.1726C80.6523 85.0566 80.3012 85.9045 79.676 86.5296C79.0509 87.1547 78.2031 87.5059 77.319 87.5059H73.9857Z" fill="white"/>
</svg>
