<svg width="22" height="20" viewBox="0 0 22 20" fill="none" xmlns="http://www.w3.org/2000/svg">
<path d="M1 10.5C1 9.39543 1.89543 8.5 3 8.5C4.65685 8.5 6 9.84315 6 11.5V15.5C6 17.1569 4.65685 18.5 3 18.5C1.89543 18.5 1 17.6046 1 16.5V10.5Z" stroke="#2A2E39" stroke-width="1.5" stroke-linecap="round" stroke-linejoin="round"/>
<path d="M14.4787 5.80626L14.2124 6.66634C13.9942 7.37111 13.8851 7.72349 13.969 8.0018C14.0369 8.22695 14.1859 8.42102 14.389 8.54871C14.64 8.70655 15.0197 8.70655 15.7791 8.70655H16.1831C18.7532 8.70655 20.0382 8.70655 20.6452 9.4673C20.7145 9.55425 20.7762 9.64669 20.8296 9.74367C21.2965 10.5921 20.7657 11.7351 19.704 14.0211C18.7297 16.1189 18.2425 17.1678 17.338 17.7852C17.2505 17.8449 17.1605 17.9013 17.0683 17.9541C16.116 18.5 14.9362 18.5 12.5764 18.5H12.0646C9.20572 18.5 7.77628 18.5 6.88814 17.6395C6 16.7789 6 15.3939 6 12.6239V11.6503C6 10.1946 6 9.46678 6.25834 8.8006C6.51668 8.13441 7.01135 7.58664 8.00069 6.49112L12.0921 1.96056C12.1947 1.84694 12.246 1.79012 12.2913 1.75075C12.7135 1.38328 13.3652 1.42464 13.7344 1.84235C13.774 1.8871 13.8172 1.94991 13.9036 2.07554C14.0388 2.27205 14.1064 2.37031 14.1654 2.46765C14.6928 3.33913 14.8524 4.37436 14.6108 5.35715C14.5838 5.46692 14.5488 5.5801 14.4787 5.80626Z" stroke="#2A2E39" stroke-width="1.5" stroke-linecap="round" stroke-linejoin="round"/>
</svg>
