<svg width="10" height="10" viewBox="0 0 10 10" fill="none" xmlns="http://www.w3.org/2000/svg">
<path d="M9.4924 4.49134L5.53407 0.533009C5.45878 0.460935 5.37 0.404438 5.27282 0.366759C5.08008 0.287578 4.8639 0.287578 4.67116 0.366759C4.57398 0.404438 4.4852 0.460935 4.40991 0.533009L0.451573 4.49134C0.377759 4.56516 0.319207 4.65279 0.279259 4.74923C0.239311 4.84567 0.21875 4.94904 0.21875 5.05343C0.21875 5.26425 0.302499 5.46643 0.451573 5.61551C0.600646 5.76458 0.802834 5.84833 1.01366 5.84833C1.22448 5.84833 1.42667 5.76458 1.57574 5.61551L4.18032 3.00301V9.01176C4.18032 9.22172 4.26373 9.42309 4.4122 9.57155C4.56066 9.72002 4.76203 9.80342 4.97199 9.80342C5.18195 9.80342 5.38332 9.72002 5.53178 9.57155C5.68025 9.42309 5.76366 9.22172 5.76366 9.01176V3.00301L8.36824 5.61551C8.44184 5.68971 8.52939 5.74861 8.62587 5.7888C8.72234 5.82899 8.82581 5.84968 8.93032 5.84968C9.03483 5.84968 9.13831 5.82899 9.23478 5.7888C9.33125 5.74861 9.41881 5.68971 9.4924 5.61551C9.56661 5.54191 9.6255 5.45435 9.6657 5.35788C9.70589 5.26141 9.72658 5.15793 9.72658 5.05343C9.72658 4.94892 9.70589 4.84544 9.6657 4.74897C9.6255 4.6525 9.56661 4.56494 9.4924 4.49134Z" fill="#0B0721"/>
</svg>
