<svg width="18" height="13" viewBox="0 0 18 13" fill="none" xmlns="http://www.w3.org/2000/svg">
<path d="M16.6352 5.83599C16.8784 6.17704 17 6.34757 17 6.6C17 6.85243 16.8784 7.02296 16.6352 7.36401C15.5423 8.89645 12.7514 12.2 9 12.2C5.24862 12.2 2.45768 8.89645 1.36483 7.36401C1.12161 7.02296 1 6.85243 1 6.6C1 6.34757 1.12161 6.17704 1.36483 5.83599C2.45768 4.30355 5.24862 1 9 1C12.7514 1 15.5423 4.30355 16.6352 5.83599Z" stroke="#EF4452" stroke-width="1.5"/>
<path d="M11.4003 6.6C11.4003 5.27452 10.3258 4.2 9.00034 4.2C7.67486 4.2 6.60034 5.27452 6.60034 6.6C6.60034 7.92548 7.67486 9 9.00034 9C10.3258 9 11.4003 7.92548 11.4003 6.6Z" stroke="#EF4452" stroke-width="1.5"/>
</svg>
