<svg width="18" height="18" viewBox="0 0 18 18" fill="none" xmlns="http://www.w3.org/2000/svg">
<path d="M15.4866 8.99999C15.4866 12.5767 12.5871 15.4762 9.01043 15.4762C5.43373 15.4762 2.53424 12.5767 2.53424 8.99999C2.53424 5.42329 5.43373 2.5238 9.01043 2.5238C12.5871 2.5238 15.4866 5.42329 15.4866 8.99999Z" stroke="#EF4452" stroke-width="1.5"/>
<path d="M17 9H15.4762" stroke="#EF4452" stroke-width="1.5" stroke-linecap="round" stroke-linejoin="round"/>
<path d="M2.52381 9H1" stroke="#EF4452" stroke-width="1.5" stroke-linecap="round" stroke-linejoin="round"/>
<path d="M9 0.999994L9 2.5238" stroke="#EF4452" stroke-width="1.5" stroke-linecap="round" stroke-linejoin="round"/>
<path d="M9 15.4762V17" stroke="#EF4452" stroke-width="1.5" stroke-linecap="round" stroke-linejoin="round"/>
<path d="M11.2857 9.00001C11.2857 10.2624 10.2623 11.2857 8.99997 11.2857C7.73761 11.2857 6.71426 10.2624 6.71426 9.00001C6.71426 7.73764 7.73761 6.71429 8.99997 6.71429C10.2623 6.71429 11.2857 7.73764 11.2857 9.00001Z" stroke="#EF4452" stroke-width="1.5"/>
</svg>
