<svg width="18" height="20" viewBox="0 0 18 20" fill="none" xmlns="http://www.w3.org/2000/svg">
<path d="M4 19L4 16" stroke="currentColor" stroke-width="1.5" stroke-linecap="round" stroke-linejoin="round"/>
<path d="M14 19L14 13" stroke="currentColor" stroke-width="1.5" stroke-linecap="round" stroke-linejoin="round"/>
<path d="M14 4L14 1" stroke="currentColor" stroke-width="1.5" stroke-linecap="round" stroke-linejoin="round"/>
<path d="M4 7L4 1" stroke="currentColor" stroke-width="1.5" stroke-linecap="round" stroke-linejoin="round"/>
<path d="M4 16C3.06812 16 2.60218 16 2.23463 15.8478C1.74458 15.6448 1.35523 15.2554 1.15224 14.7654C1 14.3978 1 13.9319 1 13C1 12.0681 1 11.6022 1.15224 11.2346C1.35523 10.7446 1.74458 10.3552 2.23463 10.1522C2.60218 10 3.06812 10 4 10C4.93188 10 5.39782 10 5.76537 10.1522C6.25542 10.3552 6.64477 10.7446 6.84776 11.2346C7 11.6022 7 12.0681 7 13C7 13.9319 7 14.3978 6.84776 14.7654C6.64477 15.2554 6.25542 15.6448 5.76537 15.8478C5.39782 16 4.93188 16 4 16Z" stroke="currentColor" stroke-width="1.5"/>
<path d="M14 10C13.0681 10 12.6022 10 12.2346 9.84776C11.7446 9.64477 11.3552 9.25542 11.1522 8.76537C11 8.39782 11 7.93188 11 7C11 6.06812 11 5.60218 11.1522 5.23463C11.3552 4.74458 11.7446 4.35523 12.2346 4.15224C12.6022 4 13.0681 4 14 4C14.9319 4 15.3978 4 15.7654 4.15224C16.2554 4.35523 16.6448 4.74458 16.8478 5.23463C17 5.60218 17 6.06812 17 7C17 7.93188 17 8.39782 16.8478 8.76537C16.6448 9.25542 16.2554 9.64477 15.7654 9.84776C15.3978 10 14.9319 10 14 10Z" stroke="currentColor" stroke-width="1.5"/>
</svg>
