<svg width="19" height="19" viewBox="0 0 19 19" fill="none" xmlns="http://www.w3.org/2000/svg">
<path d="M1.01514 10.1514H7.10596C7.66428 10.1514 8.12109 9.69456 8.12109 9.13623V1.01514C8.12109 0.456812 7.66428 0 7.10596 0H1.01514C0.456812 0 0 0.456812 0 1.01514V9.13623C0 9.69456 0.456812 10.1514 1.01514 10.1514ZM1.01514 18.2725H7.10596C7.66428 18.2725 8.12109 17.8156 8.12109 17.2573V13.1968C8.12109 12.6385 7.66428 12.1816 7.10596 12.1816H1.01514C0.456812 12.1816 0 12.6385 0 13.1968V17.2573C0 17.8156 0.456812 18.2725 1.01514 18.2725ZM11.1665 18.2725H17.2573C17.8156 18.2725 18.2725 17.8156 18.2725 17.2573V9.13623C18.2725 8.57791 17.8156 8.12109 17.2573 8.12109H11.1665C10.6082 8.12109 10.1514 8.57791 10.1514 9.13623V17.2573C10.1514 17.8156 10.6082 18.2725 11.1665 18.2725ZM10.1514 1.01514V5.07568C10.1514 5.63401 10.6082 6.09082 11.1665 6.09082H17.2573C17.8156 6.09082 18.2725 5.63401 18.2725 5.07568V1.01514C18.2725 0.456812 17.8156 0 17.2573 0H11.1665C10.6082 0 10.1514 0.456812 10.1514 1.01514Z" fill="white"/>
</svg>
