<svg width="16" height="16" viewBox="0 0 16 16" fill="none" xmlns="http://www.w3.org/2000/svg">
<g clip-path="url(#clip0_294_1124)">
<path d="M9.1518 2.2961L10.325 4.6619C10.485 4.99123 10.9116 5.30711 11.2716 5.3676L13.398 5.72382C14.7578 5.95233 15.0778 6.94704 14.0979 7.92831L12.4448 9.59512C12.1648 9.8774 12.0115 10.4218 12.0981 10.8116L12.5714 12.875C12.9447 14.5082 12.0848 15.14 10.6516 14.2864L8.65852 13.0968C8.29856 12.8817 7.70529 12.8817 7.33867 13.0968L5.34555 14.2864C3.91904 15.14 3.05247 14.5015 3.42576 12.875L3.89905 10.8116C3.9857 10.4218 3.83239 9.8774 3.55242 9.59512L1.89927 7.92831C0.926041 6.94704 1.23934 5.95233 2.59919 5.72382L4.72562 5.3676C5.07891 5.30711 5.50553 4.99123 5.66552 4.6619L6.83872 2.2961C7.47865 1.01238 8.51853 1.01238 9.1518 2.2961Z" stroke="#2A2E39" stroke-linecap="round" stroke-linejoin="round"/>
</g>
<defs>
<clipPath id="clip0_294_1124">
<rect width="16" height="16" fill="white"/>
</clipPath>
</defs>
</svg>
