<svg width="10" height="10" viewBox="0 0 10 10" fill="none" xmlns="http://www.w3.org/2000/svg">
<path d="M9.33323 4.49427L5.37489 0.535938C5.2996 0.463865 5.21082 0.407367 5.11364 0.369688C4.9209 0.290508 4.70472 0.290508 4.51198 0.369688C4.4148 0.407367 4.32602 0.463865 4.25073 0.535938L0.292393 4.49427C0.218579 4.56809 0.160027 4.65571 0.120079 4.75216C0.0801314 4.8486 0.0595703 4.95197 0.0595703 5.05635C0.0595703 5.26718 0.143319 5.46936 0.292393 5.61844C0.441467 5.76751 0.643654 5.85126 0.854476 5.85126C1.0653 5.85126 1.26749 5.76751 1.41656 5.61844L4.02114 3.00594V9.01469C4.02114 9.22465 4.10455 9.42601 4.25302 9.57448C4.40148 9.72295 4.60285 9.80635 4.81281 9.80635C5.02277 9.80635 5.22414 9.72295 5.3726 9.57448C5.52107 9.42601 5.60448 9.22465 5.60448 9.01469V3.00594L8.20906 5.61844C8.28266 5.69264 8.37021 5.75154 8.46669 5.79173C8.56316 5.83192 8.66663 5.85261 8.77114 5.85261C8.87565 5.85261 8.97913 5.83192 9.0756 5.79173C9.17207 5.75154 9.25963 5.69264 9.33323 5.61844C9.40743 5.54484 9.46632 5.45728 9.50652 5.36081C9.54671 5.26434 9.5674 5.16086 9.5674 5.05635C9.5674 4.95185 9.54671 4.84837 9.50652 4.7519C9.46632 4.65543 9.40743 4.56787 9.33323 4.49427Z" fill="#0B0721"/>
</svg>
