<svg width="10" height="11" viewBox="0 0 10 11" fill="none" xmlns="http://www.w3.org/2000/svg">
<path d="M9.33323 6.26732L5.37489 10.2257C5.2996 10.2977 5.21082 10.3542 5.11364 10.3919C4.9209 10.4711 4.70472 10.4711 4.51198 10.3919C4.4148 10.3542 4.32602 10.2977 4.25073 10.2257L0.292393 6.26732C0.218579 6.19351 0.160027 6.10588 0.120079 6.00944C0.0801314 5.913 0.0595703 5.80963 0.0595703 5.70524C0.0595703 5.49442 0.143319 5.29223 0.292393 5.14316C0.441467 4.99408 0.643654 4.91034 0.854476 4.91034C1.0653 4.91034 1.26749 4.99408 1.41656 5.14316L4.02114 7.75566V1.74691C4.02114 1.53695 4.10455 1.33558 4.25302 1.18712C4.40148 1.03865 4.60285 0.955242 4.81281 0.955242C5.02277 0.955242 5.22414 1.03865 5.3726 1.18712C5.52107 1.33558 5.60448 1.53695 5.60448 1.74691V7.75566L8.20906 5.14316C8.28266 5.06896 8.37021 5.01006 8.46669 4.96987C8.56316 4.92968 8.66663 4.90898 8.77114 4.90898C8.87565 4.90898 8.97913 4.92968 9.0756 4.96987C9.17207 5.01006 9.25963 5.06896 9.33323 5.14316C9.40743 5.21675 9.46632 5.30431 9.50652 5.40078C9.54671 5.49726 9.5674 5.60073 9.5674 5.70524C9.5674 5.80975 9.54671 5.91323 9.50652 6.0097C9.46632 6.10617 9.40743 6.19373 9.33323 6.26732Z" fill="#0B0721"/>
</svg>
