<svg width="68" height="68" viewBox="0 0 68 68" fill="none" xmlns="http://www.w3.org/2000/svg">
<path fill-rule="evenodd" clip-rule="evenodd" d="M13.1835 6.99068C11.4894 6.99068 9.86467 7.66366 8.66675 8.86158C7.46883 10.0595 6.79585 11.6842 6.79585 13.3783V51.7042C6.79585 53.3983 7.46883 55.023 8.66675 56.221C9.86467 57.4189 11.4894 58.0919 13.1835 58.0919H33.9434C35.7073 58.0919 37.1372 59.5218 37.1372 61.2857C37.1372 63.0496 35.7073 64.4795 33.9434 64.4795H13.1835C9.79528 64.4795 6.54584 63.1335 4.15 60.7377C1.75417 58.3419 0.408203 55.0924 0.408203 51.7042V13.3783C0.408203 9.9901 1.75417 6.74066 4.15 4.34483C6.54583 1.94899 9.79528 0.603027 13.1835 0.603027H51.5094C54.8976 0.603027 58.1471 1.94899 60.5429 4.34483C62.9387 6.74066 64.2847 9.99011 64.2847 13.3783V34.1382C64.2847 35.9021 62.8548 37.332 61.0909 37.332C59.327 37.332 57.897 35.9021 57.897 34.1382V13.3783C57.897 11.6842 57.2241 10.0595 56.0261 8.86158C54.8282 7.66366 53.2035 6.99068 51.5094 6.99068H13.1835ZM38.7341 19.766C38.7341 18.0021 40.164 16.5721 41.9279 16.5721H41.9599C43.7238 16.5721 45.1537 18.0021 45.1537 19.766C45.1537 21.5299 43.7238 22.9598 41.9599 22.9598H41.9279C40.164 22.9598 38.7341 21.5299 38.7341 19.766Z" fill="black"/>
<path fill-rule="evenodd" clip-rule="evenodd" d="M21.8058 31.6298L5.8604 47.5752C4.61314 48.8224 2.59092 48.8224 1.34365 47.5752C0.0963865 46.3279 0.0963865 44.3057 1.34365 43.0584L17.3128 27.0893L17.3566 27.0463C19.3181 25.1588 21.7342 24.0148 24.3619 24.0148C26.9896 24.0148 29.4057 25.1588 31.3672 27.0463L31.411 27.0893L42.5894 38.2677C43.8367 39.5149 43.8367 41.5372 42.5894 42.7844C41.3421 44.0317 39.3199 44.0317 38.0726 42.7844L26.918 31.6298C25.9238 30.6807 25.0385 30.4024 24.3619 30.4024C23.6853 30.4024 22.8 30.6807 21.8058 31.6298Z" fill="black"/>
<path fill-rule="evenodd" clip-rule="evenodd" d="M44.162 38.0176C45.5636 36.6802 46.7822 36.5994 47.79 37.0115C49.4227 37.6791 51.2874 36.8968 51.955 35.2641C52.6227 33.6314 51.8403 31.7667 50.2076 31.099C46.4871 29.5777 42.6408 30.6183 39.7138 33.4332L39.6693 33.4768L36.4755 36.6707C35.2282 37.9179 35.2282 39.9401 36.4755 41.1874C37.7228 42.4347 39.745 42.4347 40.9922 41.1874L44.162 38.0176ZM54.703 42.1229C55.55 42.1229 56.3624 42.4594 56.9614 43.0583L66.5428 52.6398C67.7901 53.8871 67.7901 55.9093 66.5428 57.1565C65.2956 58.4038 63.2733 58.4038 62.0261 57.1565L57.8968 53.0273V64.4796C57.8968 66.2435 56.4669 67.6735 54.703 67.6735C52.9391 67.6735 51.5092 66.2435 51.5092 64.4796V53.0273L47.3799 57.1565C46.1326 58.4038 44.1104 58.4038 42.8631 57.1565C41.6159 55.9093 41.6159 53.8871 42.8631 52.6398L52.4446 43.0583C53.0436 42.4594 53.8559 42.1229 54.703 42.1229Z" fill="black"/>
</svg>
