<svg width="51" height="50" viewBox="0 0 51 50" fill="none" xmlns="http://www.w3.org/2000/svg">
<path d="M51 24.9999C51 38.7964 39.5836 49.9998 25.5249 49.9998C11.4164 50.0488 0 38.8453 0 24.9999C0 11.2035 11.4164 0 25.4751 0C39.5836 0 51 11.2035 51 24.9999Z" fill="#FFCD05"/>
<path d="M44.9677 8.90408C40.3314 3.47357 33.3021 0 25.4751 0C11.4164 0 0 11.2035 0 24.9999C0 27.8864 0.498534 30.6751 1.44575 33.268C15.8035 24.9021 30.3108 16.7808 44.9677 8.90408Z" fill="#FCDC58"/>
<path d="M28.4165 49.853C34.2493 49.1681 39.5338 46.5752 43.4722 42.7102C39.484 44.5693 35.5455 46.4773 31.5573 48.3853C30.5103 48.8746 29.4634 49.3638 28.4165 49.853Z" fill="#FCDC58"/>
<path d="M44.469 24.6086C44.469 35.1272 35.7945 43.6399 25.0761 43.6399C14.3576 43.6399 5.68311 35.1272 5.68311 24.6086C5.68311 14.0901 14.3576 5.57739 25.0761 5.57739C35.7945 5.62632 44.469 14.139 44.469 24.6086Z" fill="#D98227"/>
<path d="M45.0178 25.3913C45.0178 35.7631 36.443 44.129 25.9239 44.129C15.355 44.129 6.83008 35.7141 6.83008 25.3913C6.83008 15.0195 15.4049 6.65356 25.9239 6.65356C36.443 6.65356 45.0178 15.0684 45.0178 25.3913Z" fill="#EFAA1F"/>
<path d="M39.5836 24.2171L33.9502 24.1192L34.698 22.7983C35.0968 22.1134 35.4956 21.0371 35.2464 19.814C34.8974 17.857 33.1027 16.1936 30.7596 15.6555H19.1936V19.0801H14.4077C13.9091 19.0801 13.4604 18.6398 13.4604 18.1506C13.4604 17.6613 13.9091 17.221 14.4077 17.221H17.2992V13.7964H30.9091H31.0088C34.2493 14.4813 36.5924 16.7318 37.0909 19.4715C37.2904 20.5478 37.1408 21.4774 36.8915 22.3091L39.5836 22.358C40.0821 22.358 40.5308 22.7983 40.5308 23.2875C40.5308 23.8257 40.0821 24.2171 39.5836 24.2171Z" fill="#E99D23"/>
<path d="M30.8095 36.6439H17.1995V33.2192H14.3081C13.8095 33.2192 13.3608 32.7789 13.3608 32.2897C13.3608 31.8004 13.8095 31.3601 14.3081 31.3601H19.094V34.7848H30.6101C33.0031 34.2466 34.7978 32.5832 35.0969 30.6263C35.2963 29.4032 34.8975 28.3269 34.5485 27.6419L33.8007 26.321L39.4342 26.2231C39.9825 26.2231 40.3814 26.6145 40.3814 27.1527C40.3814 27.6419 39.9825 28.0822 39.4342 28.0822L36.7421 28.1312C36.9913 28.9139 37.1409 29.8924 36.9415 30.9687C36.4928 33.7084 34.0998 35.9589 30.8594 36.6439H30.8095Z" fill="#E99D23"/>
<path d="M29.6131 24.217H21.2876V17.5634L29.6131 17.4656H29.663C30.66 17.5634 31.6072 18.1016 32.2055 18.8844C32.7539 19.6182 33.0031 20.5478 32.8536 21.3795C32.6542 22.8472 31.3081 24.0703 29.6131 24.217ZM23.182 22.3579H29.5134C30.2612 22.2601 30.9093 21.7708 31.009 21.0859C31.0589 20.7435 30.9592 20.3031 30.7099 20.0096C30.4108 19.6182 30.0119 19.3736 29.5134 19.3247L23.182 19.4225V22.3579Z" fill="#E99D23"/>
<path d="M29.7625 32.8764H21.437V26.2228L29.7625 26.125H29.8124C30.8094 26.2228 31.7567 26.761 32.3549 27.5438C32.9033 28.2776 33.1526 29.2072 33.003 30.0389C32.8036 31.5066 31.4575 32.6808 29.7625 32.8764ZM23.3314 31.0174H29.6628C30.4106 30.9195 31.0587 30.4303 31.1584 29.7453C31.2083 29.4029 31.1086 28.9626 30.8593 28.669C30.5602 28.2776 30.1614 28.033 29.6628 27.9841L23.3314 28.0819V31.0174Z" fill="#E99D23"/>
<path d="M14.3081 28.131C13.8095 28.131 13.3608 27.7396 13.3608 27.2015C13.3608 26.7123 13.7597 26.2719 14.3081 26.2719H17.1497V24.2661H14.3081C13.8095 24.2661 13.3608 23.8258 13.3608 23.3365C13.3608 22.8473 13.8095 22.407 14.3081 22.407H19.0441V28.0821L14.3081 28.131Z" fill="#E99D23"/>
<path d="M38.6862 23.8255L33.0527 23.7276L33.8005 22.4067C34.1994 21.7218 34.5982 20.6455 34.3489 19.4224C33.9999 17.4654 32.2052 15.802 29.8621 15.2639H18.2961V18.6885H13.5102C13.0117 18.6885 12.563 18.2482 12.563 17.759C12.563 17.2697 13.0117 16.8294 13.5102 16.8294H16.4017V13.4048H30.0117H30.1114C33.3518 14.0897 35.695 16.3402 36.1935 19.0799C36.3929 20.1562 36.2433 21.0858 35.9941 21.9175L38.6862 21.9664C39.1847 21.9664 39.6334 22.4067 39.6334 22.8959C39.6334 23.4341 39.2345 23.8255 38.6862 23.8255Z" fill="#FFCD05"/>
<path d="M29.9619 36.2523H16.3021V32.8276H13.4106C12.9121 32.8276 12.4634 32.3873 12.4634 31.8981C12.4634 31.4088 12.9121 30.9685 13.4106 30.9685H18.1965V34.3932H29.7126C32.1056 33.855 33.9003 32.1916 34.1994 30.2347C34.3989 29.0116 34 27.9353 33.6511 27.2503L32.9033 25.9294L38.5367 25.8315C39.0851 25.8315 39.4839 26.2229 39.4839 26.7611C39.4839 27.2503 39.0851 27.6906 38.5367 27.6906H35.8945C36.1437 28.4734 36.2933 29.4519 36.0939 30.5282C35.6452 33.2679 33.2522 35.5184 30.0616 36.2033L29.9619 36.2523Z" fill="#FFCD05"/>
<path d="M28.7655 23.8257H20.4399V17.1721L28.7655 17.0742H28.8153C29.8124 17.1721 30.7596 17.7102 31.3578 18.493C31.9062 19.2269 32.1555 20.1564 32.0059 20.9881C31.7567 22.4558 30.4106 23.6789 28.7655 23.8257ZM22.3344 21.9666H28.6657C29.4135 21.8687 30.0616 21.3795 30.1613 20.6946C30.2112 20.3521 30.1115 19.9118 29.8622 19.6182C29.5631 19.2269 29.1643 18.9822 28.6657 18.9333L22.3344 19.0312V21.9666Z" fill="#FFCD05"/>
<path d="M28.9149 32.4852H20.5894V25.8316L28.9149 25.6848H28.9647C29.9618 25.7827 30.909 26.3208 31.5072 27.1036C32.0556 27.8375 32.3049 28.767 32.1553 29.5987C31.9061 31.1153 30.56 32.2895 28.9149 32.4852ZM22.4838 30.6261H28.8152C29.563 30.5282 30.2111 30.039 30.3108 29.3541C30.3606 29.0116 30.2609 28.5713 30.0116 28.2778C29.7125 27.8864 29.3137 27.6418 28.8152 27.5928L22.4838 27.6907V30.6261Z" fill="#FFCD05"/>
<path d="M13.4106 27.7397C12.9121 27.7397 12.4634 27.3483 12.4634 26.8101C12.4634 26.3209 12.8622 25.8806 13.4106 25.8806H16.2522V23.8747H13.4106C12.9121 23.8747 12.4634 23.4344 12.4634 22.9452C12.4634 22.4559 12.9121 22.0156 13.4106 22.0156H18.1467V27.6908L13.4106 27.7397Z" fill="#FFCD05"/>
</svg>
