<svg width="14" height="14" viewBox="0 0 14 14" fill="none" xmlns="http://www.w3.org/2000/svg">
<path fill-rule="evenodd" clip-rule="evenodd" d="M7.5 2.33333C7.5 2.05719 7.27614 1.83333 7 1.83333C6.72386 1.83333 6.5 2.05719 6.5 2.33333V2.53871C6.28215 2.59336 6.06839 2.67875 5.86485 2.79626C4.05028 3.84391 4.28091 6.53261 6.2474 7.25592L6.50003 7.34884L6.50001 10.4796C6.14341 10.3791 5.8248 10.1447 5.62533 9.79917L5.37495 9.3655C5.23688 9.12636 4.93109 9.04442 4.69194 9.18249C4.45279 9.32056 4.37086 9.62636 4.50893 9.8655L4.7593 10.2992C5.14495 10.9671 5.7951 11.3864 6.5 11.5023L6.5 11.6667C6.5 11.9428 6.72385 12.1667 7 12.1667C7.27614 12.1667 7.5 11.9428 7.5 11.6667L7.5 11.4613C7.71787 11.4067 7.93166 11.3213 8.13521 11.2037C9.94979 10.1561 9.71916 7.46739 7.75267 6.74408L7.50003 6.65116L7.5 3.52035C7.85662 3.62092 8.17525 3.85532 8.37474 4.20083L8.62511 4.6345C8.76318 4.87364 9.06898 4.95558 9.30813 4.81751C9.54727 4.67944 9.62921 4.37364 9.49114 4.1345L9.24076 3.70083C8.85511 3.03285 8.20492 2.61356 7.5 2.49767V2.33333ZM6.36485 3.66229C6.40924 3.63666 6.45434 3.61363 6.50001 3.59313L6.50003 6.27999C5.41531 5.80102 5.3137 4.26917 6.36485 3.66229ZM7.50001 10.4069L7.50003 7.72001C8.58476 8.19896 8.68637 9.73083 7.63521 10.3377C7.59081 10.3634 7.54569 10.3864 7.50001 10.4069Z" fill="#2A2E39"/>
<path fill-rule="evenodd" clip-rule="evenodd" d="M9.97568 0.582485C9.21426 0.49999 8.25452 0.499995 7.03017 0.5H6.96983C5.74548 0.499995 4.78574 0.49999 4.02432 0.582485C3.24729 0.666671 2.61771 0.841549 2.08016 1.2321C1.75473 1.46854 1.46854 1.75473 1.2321 2.08016C0.841549 2.61771 0.666671 3.24729 0.582485 4.02432C0.49999 4.78574 0.499995 5.74548 0.5 6.96983V7.03017C0.499995 8.25452 0.49999 9.21426 0.582485 9.97568C0.666671 10.7527 0.841549 11.3823 1.2321 11.9198C1.46854 12.2453 1.75473 12.5315 2.08016 12.7679C2.61771 13.1585 3.24729 13.3333 4.02432 13.4175C4.78573 13.5 5.74544 13.5 6.96977 13.5H7.03018C8.25451 13.5 9.21427 13.5 9.97568 13.4175C10.7527 13.3333 11.3823 13.1585 11.9198 12.7679C12.2453 12.5315 12.5315 12.2453 12.7679 11.9198C13.1585 11.3823 13.3333 10.7527 13.4175 9.97568C13.5 9.21427 13.5 8.25456 13.5 7.03023V6.96982C13.5 5.74549 13.5 4.78573 13.4175 4.02432C13.3333 3.24729 13.1585 2.61771 12.7679 2.08016C12.5315 1.75473 12.2453 1.46854 11.9198 1.2321C11.3823 0.841549 10.7527 0.666671 9.97568 0.582485ZM2.66794 2.04112C3.00661 1.79506 3.44009 1.65163 4.13203 1.57667C4.83333 1.50069 5.73895 1.5 7 1.5C8.26105 1.5 9.16667 1.50069 9.86797 1.57667C10.5599 1.65163 10.9934 1.79506 11.3321 2.04112C11.5726 2.21588 11.7841 2.42741 11.9589 2.66794C12.2049 3.00661 12.3484 3.44009 12.4233 4.13203C12.4993 4.83333 12.5 5.73895 12.5 7C12.5 8.26105 12.4993 9.16667 12.4233 9.86797C12.3484 10.5599 12.2049 10.9934 11.9589 11.3321C11.7841 11.5726 11.5726 11.7841 11.3321 11.9589C10.9934 12.2049 10.5599 12.3484 9.86797 12.4233C9.16667 12.4993 8.26105 12.5 7 12.5C5.73895 12.5 4.83333 12.4993 4.13203 12.4233C3.44009 12.3484 3.00661 12.2049 2.66794 11.9589C2.42741 11.7841 2.21588 11.5726 2.04112 11.3321C1.79506 10.9934 1.65163 10.5599 1.57667 9.86797C1.50069 9.16667 1.5 8.26105 1.5 7C1.5 5.73895 1.50069 4.83333 1.57667 4.13203C1.65163 3.44009 1.79506 3.00661 2.04112 2.66794C2.21588 2.42741 2.42741 2.21588 2.66794 2.04112Z" fill="#2A2E39"/>
</svg>
