<svg width="22" height="22" viewBox="0 0 22 22" fill="none" xmlns="http://www.w3.org/2000/svg">
<path d="M13.4016 9.40165C13.6945 9.10876 13.6945 8.63388 13.4016 8.34099C13.1088 8.0481 12.6339 8.0481 12.341 8.34099L10.75 9.93198L9.15901 8.34099C8.86612 8.0481 8.39124 8.0481 8.09835 8.34099C7.80546 8.63388 7.80546 9.10876 8.09835 9.40165L9.68934 10.9926L8.09835 12.5836C7.80546 12.8765 7.80546 13.3514 8.09835 13.6443C8.39124 13.9372 8.86612 13.9372 9.15901 13.6443L10.75 12.0533L12.341 13.6443C12.6339 13.9372 13.1088 13.9372 13.4017 13.6443C13.6945 13.3514 13.6945 12.8765 13.4017 12.5836L11.8107 10.9926L13.4016 9.40165Z" fill="#FF0A5C"/>
<path fill-rule="evenodd" clip-rule="evenodd" d="M10.75 0C4.81294 0 0 4.81294 0 10.75C0 16.6871 4.81294 21.5 10.75 21.5C16.6871 21.5 21.5 16.6871 21.5 10.75C21.5 4.81294 16.6871 0 10.75 0ZM1.5 10.75C1.5 5.64137 5.64137 1.5 10.75 1.5C15.8586 1.5 20 5.64137 20 10.75C20 15.8586 15.8586 20 10.75 20C5.64137 20 1.5 15.8586 1.5 10.75Z" fill="#FF0A5C"/>
</svg>
