<svg width="17" height="23" viewBox="0 0 17 23" fill="none" xmlns="http://www.w3.org/2000/svg">
<path d="M11.2084 2.05518C11.823 1.74964 12.5454 1.65873 13.2604 1.85032C14.8163 2.26723 15.7397 3.86655 15.3228 5.42249L12.9503 14.2768C12.5334 15.8328 10.934 16.7561 9.37811 16.3392C7.82216 15.9223 6.8988 14.323 7.31571 12.767L8.26472 9.2253C8.37192 8.8252 8.13448 8.41395 7.73439 8.30674C7.33429 8.19954 6.92303 8.43698 6.81583 8.83708L5.86682 12.3788C5.2355 14.7349 6.63374 17.1568 8.98988 17.7881C11.346 18.4194 13.7678 17.0212 14.3992 14.665L16.7717 5.81072C17.403 3.45458 16.0048 1.03275 13.6486 0.401427C12.5672 0.111652 11.4701 0.249988 10.5407 0.711984C9.97083 0.99527 9.46281 1.4007 9.05828 1.90504C8.79911 2.22815 8.85094 2.70019 9.17406 2.95936C9.49717 3.21853 9.96921 3.1667 10.2284 2.84358C10.4949 2.51125 10.8307 2.24292 11.2084 2.05518Z" fill="#550592"/>
<path d="M4.72299 8.2763C5.1399 6.72036 6.73922 5.79699 8.29516 6.21391C9.8511 6.63082 10.7745 8.23013 10.3576 9.78608L9.40855 13.3278C9.30134 13.7279 9.53878 14.1392 9.93888 14.2464C10.339 14.3536 10.7502 14.1161 10.8574 13.716L11.8064 10.1743C12.4378 7.81816 11.0395 5.39634 8.68339 4.76502C6.32725 4.13369 3.90542 5.53193 3.2741 7.88807L0.90159 16.7424C0.270264 19.0985 1.6685 21.5204 4.02465 22.1517C5.1061 22.4415 6.20319 22.3031 7.13256 21.8411C7.70244 21.5578 8.21046 21.1524 8.61499 20.6481C8.87416 20.325 8.82232 19.8529 8.49921 19.5937C8.1761 19.3346 7.70406 19.3864 7.44489 19.7095C7.17832 20.0419 6.84253 20.3102 6.46485 20.4979C5.85022 20.8035 5.12787 20.8944 4.41287 20.7028C2.85693 20.2859 1.93357 18.6866 2.35048 17.1306L4.72299 8.2763Z" fill="#550592"/>
</svg>
