<svg width="23" height="19" viewBox="0 0 23 19" fill="none" xmlns="http://www.w3.org/2000/svg">
<path d="M18.7266 0C19.3474 0 19.9428 0.246622 20.3818 0.685612C20.8208 1.1246 21.0674 1.72 21.0674 2.34083V3.51124H14.045C12.4929 3.51124 11.0044 4.12779 9.90692 5.22527C8.80945 6.32274 8.19289 7.81124 8.19289 9.3633C8.19289 10.9154 8.80945 12.4039 9.90692 13.5013C11.0044 14.5988 12.4929 15.2154 14.045 15.2154H21.0674V16.3858C21.0674 17.0066 20.8208 17.602 20.3818 18.041C19.9428 18.48 19.3474 18.7266 18.7266 18.7266H2.34083C1.72 18.7266 1.1246 18.48 0.685612 18.041C0.246622 17.602 0 17.0066 0 16.3858V2.34083C0 1.72 0.246622 1.1246 0.685612 0.685612C1.1246 0.246622 1.72 0 2.34083 0H18.7266ZM19.897 5.85207C20.5178 5.85207 21.1132 6.09869 21.5522 6.53768C21.9912 6.97667 22.2378 7.57207 22.2378 8.19289V10.5337C22.2378 11.1545 21.9912 11.7499 21.5522 12.1889C21.1132 12.6279 20.5178 12.8745 19.897 12.8745H14.045C13.1137 12.8745 12.2206 12.5046 11.5621 11.8461C10.9036 11.1876 10.5337 10.2945 10.5337 9.3633C10.5337 8.43207 10.9036 7.53897 11.5621 6.88048C12.2206 6.222 13.1137 5.85207 14.045 5.85207H19.897ZM14.045 8.19289C13.7345 8.19289 13.4368 8.3162 13.2173 8.5357C12.9979 8.75519 12.8745 9.05289 12.8745 9.3633C12.8745 9.67372 12.9979 9.97142 13.2173 10.1909C13.4368 10.4104 13.7345 10.5337 14.045 10.5337C14.3554 10.5337 14.6531 10.4104 14.8726 10.1909C15.0921 9.97142 15.2154 9.67372 15.2154 9.3633C15.2154 9.05289 15.0921 8.75519 14.8726 8.5357C14.6531 8.3162 14.3554 8.19289 14.045 8.19289Z" fill="white"/>
</svg>
