<svg width="16" height="16" viewBox="0 0 16 16" fill="none" xmlns="http://www.w3.org/2000/svg">
<circle cx="8" cy="8" r="7" fill="white"/>
<path d="M8.48837 6.04651C8.48837 5.77679 8.26972 5.55814 8 5.55814C7.73028 5.55814 7.51163 5.77679 7.51163 6.04651V7.51163H6.04651C5.77679 7.51163 5.55814 7.73028 5.55814 8C5.55814 8.26972 5.77679 8.48837 6.04651 8.48837H7.51163V9.95349C7.51163 10.2232 7.73028 10.4419 8 10.4419C8.26972 10.4419 8.48837 10.2232 8.48837 9.95349V8.48837H9.95349C10.2232 8.48837 10.4419 8.26972 10.4419 8C10.4419 7.73028 10.2232 7.51163 9.95349 7.51163H8.48837V6.04651Z" fill="#9399AA"/>
<path fill-rule="evenodd" clip-rule="evenodd" d="M8 1C4.13401 1 1 4.13401 1 8C1 11.866 4.13401 15 8 15C11.866 15 15 11.866 15 8C15 4.13401 11.866 1 8 1ZM1.97674 8C1.97674 4.67345 4.67345 1.97674 8 1.97674C11.3266 1.97674 14.0233 4.67345 14.0233 8C14.0233 11.3266 11.3266 14.0233 8 14.0233C4.67345 14.0233 1.97674 11.3266 1.97674 8Z" fill="#9399AA"/>
</svg>
